<svg width="400" height="300" viewBox="0 0 400 300" fill="none" xmlns="http://www.w3.org/2000/svg">
<g clip-path="url(#clip0_2_1832)">
<path d="M400.341 285.311H0V285.504H400.341V285.311Z" fill="#EBEBEB"/>
<path d="M360.227 297.711H333.708V297.904H360.227V297.711Z" fill="#EBEBEB"/>
<path d="M265.202 299.807H258.244V300H265.202V299.807Z" fill="#EBEBEB"/>
<path d="M332.907 290.56H317.542V290.752H332.907V290.56Z" fill="#EBEBEB"/>
<path d="M76.5851 291.854H42.0037V292.047H76.5851V291.854Z" fill="#EBEBEB"/>
<path d="M88.7876 291.854H83.7192V292.047H88.7876V291.854Z" fill="#EBEBEB"/>
<path d="M180.273 295.106H105.266V295.299H180.273V295.106Z" fill="#EBEBEB"/>
<path d="M189.761 250.94H35.1579C33.9467 250.938 32.7859 250.474 31.9302 249.649C31.0746 248.824 30.594 247.706 30.594 246.54V37.3619C30.6045 36.2028 31.0898 35.0946 31.9443 34.2779C32.7988 33.4612 33.9536 33.002 35.1579 33H189.761C190.974 33 192.137 33.4636 192.994 34.2889C193.852 35.1141 194.333 36.2334 194.333 37.4004V246.54C194.333 247.707 193.852 248.826 192.994 249.651C192.137 250.477 190.974 250.94 189.761 250.94ZM35.1579 33.1541C33.9998 33.1562 32.8899 33.6004 32.0718 34.3893C31.2537 35.1782 30.7942 36.2473 30.7942 37.3619V246.54C30.7942 247.655 31.2537 248.724 32.0718 249.513C32.8899 250.301 33.9998 250.746 35.1579 250.748H189.761C190.92 250.746 192.031 250.302 192.85 249.513C193.67 248.724 194.131 247.655 194.133 246.54V37.3619C194.131 36.2465 193.67 35.1775 192.85 34.3888C192.031 33.6001 190.92 33.1562 189.761 33.1541H35.1579Z" fill="#EBEBEB"/>
<path d="M362.957 250.94H208.345C207.133 250.938 205.972 250.474 205.115 249.649C204.258 248.824 203.776 247.706 203.773 246.54V37.3619C203.786 36.2021 204.273 35.0939 205.129 34.2774C205.985 33.4609 207.14 33.002 208.345 33H362.957C364.16 33.004 365.313 33.4641 366.165 34.2806C367.018 35.0971 367.502 36.2042 367.513 37.3619V246.54C367.513 247.704 367.033 248.821 366.179 249.646C365.325 250.471 364.167 250.936 362.957 250.94ZM208.345 33.1541C207.187 33.1562 206.076 33.6001 205.256 34.3888C204.437 35.1775 203.976 36.2465 203.974 37.3619V246.54C203.976 247.655 204.437 248.724 205.256 249.513C206.076 250.302 207.187 250.746 208.345 250.748H362.957C364.116 250.746 365.226 250.302 366.046 249.513C366.865 248.724 367.327 247.655 367.329 246.54V37.3619C367.327 36.2465 366.865 35.1775 366.046 34.3888C365.226 33.6001 364.116 33.1562 362.957 33.1541H208.345Z" fill="#EBEBEB"/>
<path d="M296.316 218.812V233.878L302.922 238.502H272.056L281.92 234.988V219.86L296.316 218.812Z" fill="#E0E0E0"/>
<path d="M208.353 238.07V285.535H360.219V238.07H208.353ZM210.835 241.153H332.763V256.666H210.835V241.153Z" fill="#E0E0E0"/>
<path d="M208.353 238.07V285.535H336.078V238.07H208.353ZM210.835 241.153H332.763V256.666H210.835V241.153Z" fill="#EBEBEB"/>
<path d="M210.843 256.658H233.07V241.145H210.843V256.658Z" fill="#E0E0E0"/>
<path d="M300.576 256.658H332.763V248.906H300.576V256.658Z" fill="#E0E0E0"/>
<path d="M277.836 256.658H298.542V252.05H277.836V256.658Z" fill="#E0E0E0"/>
<path d="M248.644 256.666H273.056V247.241H248.644V256.666Z" fill="#E0E0E0"/>
<path d="M308.519 260.034L309.111 261.891H317.03L317.622 260.034H332.763V280.626H293.386V260.034H308.519Z" fill="#E0E0E0"/>
<path d="M267.3 260.034L267.892 261.891H275.811L276.395 260.034H291.536V280.626H252.159V260.034H267.3Z" fill="#E0E0E0"/>
<path d="M226.08 260.034L226.673 261.891H234.584L235.176 260.034H250.317V280.626H210.939V260.034H226.08Z" fill="#E0E0E0"/>
<path d="M231.189 227.813H335.838C337.399 227.813 338.664 226.595 338.664 225.093V166.384C338.664 164.882 337.399 163.664 335.838 163.664H231.189C229.628 163.664 228.362 164.882 228.362 166.384V225.093C228.362 226.595 229.628 227.813 231.189 227.813Z" fill="#E0E0E0"/>
<path d="M228.595 227.813H333.244C334.805 227.813 336.07 226.595 336.07 225.093V166.384C336.07 164.882 334.805 163.664 333.244 163.664H228.595C227.034 163.664 225.768 164.882 225.768 166.384V225.093C225.768 226.595 227.034 227.813 228.595 227.813Z" fill="#E6E6E6"/>
<path d="M332.835 224.692V166.785H229.019V224.692H332.835Z" fill="#F0F0F0"/>
<path d="M349.569 54.9867H259.397V151.025H349.569V54.9867Z" fill="#E9E9E9"/>
<path d="M345.83 58.7937H263.36V147.419H345.83V58.7937Z" fill="#F4F4F4"/>
<path d="M286.668 58.7937L263.36 142.81V97.3263L274.025 58.7937H286.668Z" fill="white"/>
<path d="M297.085 58.7937L272.504 147.419H267.868L292.449 58.7937H297.085Z" fill="white"/>
<path d="M345.83 82.9613V128.453L340.61 147.419H327.967L345.83 82.9613Z" fill="white"/>
<path d="M306.077 54.9867H302.874V151.025H306.077V54.9867Z" fill="#E9E9E9"/>
<path d="M347.832 74.4765H260.958V77.5591H347.832V74.4765Z" fill="#E9E9E9"/>
<path d="M57.1445 137.601V161.498H92.2704V137.601H57.1445Z" fill="#E0E0E0"/>
<path d="M58.7939 139.165V159.942H90.621V139.165H58.7939Z" fill="#EBEBEB"/>
<path d="M69.3311 107.591V131.489H104.457V107.591H69.3311Z" fill="#E0E0E0"/>
<path d="M70.9805 109.156V129.933H102.808V109.156H70.9805Z" fill="#EBEBEB"/>
<path d="M121.295 137.608H98.9402V168.049H121.295V137.608Z" fill="#E0E0E0"/>
<path d="M119.838 139.042H100.397V166.623H119.838V139.042Z" fill="#EBEBEB"/>
<path d="M134.01 97.6731H109.181V131.482H134.01V97.6731Z" fill="#E0E0E0"/>
<path d="M132.385 99.2683H110.798V129.902H132.385V99.2683Z" fill="#EBEBEB"/>
<path d="M156.389 156.32V137.608H128.886V156.32H156.389Z" fill="#E0E0E0"/>
<path d="M155.092 155.094V138.826H130.175V155.094H155.092Z" fill="#EBEBEB"/>
<path d="M51.2436 191.377H138.054C139.929 191.379 141.728 192.097 143.053 193.375C144.379 194.652 145.124 196.384 145.124 198.189L154.732 257.113H53.7498L44.1416 198.189C44.1405 197.292 44.3237 196.404 44.6805 195.576C45.0374 194.747 45.5608 193.995 46.2208 193.362C46.8808 192.728 47.6644 192.227 48.5264 191.886C49.3884 191.546 50.3118 191.373 51.2436 191.377Z" fill="#EBEBEB"/>
<path d="M154.476 214.165L154.371 213.864H188V285.535H146.365V222.457C146.333 220.332 147.162 218.278 148.676 216.73C150.19 215.183 152.27 214.263 154.476 214.165Z" fill="#E0E0E0"/>
<path d="M188.352 214.149C190.639 214.153 192.83 215.031 194.445 216.588C196.06 218.146 196.968 220.256 196.968 222.457V285.535H179.721V222.457C179.721 220.254 180.63 218.141 182.249 216.583C183.868 215.025 186.063 214.149 188.352 214.149Z" fill="#F0F0F0"/>
<path d="M57.593 214.165L57.4889 213.864H91.1175V285.535H49.4821V222.457C49.4506 220.332 50.2795 218.278 51.7932 216.73C53.307 215.183 55.3869 214.263 57.593 214.165Z" fill="#E0E0E0"/>
<path d="M100.101 285.535H174.092V235.057H100.101V285.535Z" fill="#E0E0E0"/>
<path d="M169.272 247.38H86.0013V229.878H169.272C171.685 229.878 173.998 230.801 175.704 232.443C177.41 234.084 178.368 236.311 178.368 238.633C178.366 240.954 177.407 243.178 175.701 244.818C173.995 246.459 171.683 247.38 169.272 247.38Z" fill="#F5F5F5"/>
<path d="M91.47 214.149C93.7564 214.153 95.9477 215.031 97.5629 216.588C99.1781 218.146 100.085 220.256 100.085 222.457V285.535H82.8386V222.457C82.8386 220.254 83.748 218.141 85.3667 216.583C86.9854 215.025 89.1808 214.149 91.47 214.149Z" fill="#F0F0F0"/>
<path d="M67.8898 257.984H53.7498L44.1416 198.189C44.1405 197.292 44.3237 196.404 44.6805 195.576C45.0374 194.747 45.5608 193.995 46.2208 193.362C46.8808 192.728 47.6644 192.227 48.5264 191.886C49.3884 191.546 50.3118 191.373 51.2436 191.377C52.1731 191.377 53.0935 191.553 53.9523 191.895C54.811 192.238 55.5913 192.739 56.2486 193.372C56.9058 194.005 57.4272 194.756 57.7829 195.582C58.1386 196.409 58.3217 197.295 58.3217 198.189L67.8898 257.984Z" fill="#E0E0E0"/>
<path d="M47.5044 48.783V71.5326C47.508 71.8271 47.5741 72.1179 47.6985 72.387C47.8228 72.6561 48.003 72.898 48.2278 73.0978C48.4527 73.2976 48.7175 73.4512 49.0061 73.5491C49.2947 73.647 49.6011 73.6872 49.9064 73.6673H129.83C129.83 73.6673 139.07 69.5212 138.414 63.7259C137.893 59.102 137.349 55.3335 136.9 52.4667C136.637 50.7833 135.752 49.2477 134.408 48.1409C133.064 47.0342 131.351 46.4304 129.582 46.4402H49.9064C49.5883 46.4402 49.2733 46.501 48.9797 46.6191C48.6862 46.7372 48.42 46.9102 48.1965 47.1282C47.973 47.3462 47.7967 47.6047 47.6779 47.8887C47.5591 48.1728 47.5001 48.4768 47.5044 48.783Z" fill="#F5F5F5"/>
<path d="M47.5044 48.7829V71.5326C47.5081 71.8271 47.5741 72.1178 47.6985 72.3869C47.8229 72.656 48.003 72.8979 48.2279 73.0977C48.4527 73.2975 48.7175 73.4511 49.0062 73.549C49.2948 73.647 49.6011 73.6872 49.9065 73.6673H56.9605C56.9605 73.6673 66.2003 69.5212 65.5438 63.7258C65.0153 59.1251 64.4789 55.3489 64.0545 52.4897C63.7908 50.8064 62.906 49.2707 61.5621 48.164C60.2181 47.0573 58.505 46.4535 56.7363 46.4633H49.9305C49.6123 46.4602 49.2967 46.518 49.002 46.6333C48.7073 46.7486 48.4393 46.9191 48.2136 47.1349C47.9879 47.3507 47.8089 47.6075 47.6872 47.8904C47.5655 48.1733 47.5033 48.4767 47.5044 48.7829Z" fill="#E6E6E6"/>
<path d="M136.58 65.5832H66.7608C66.7608 65.5832 64.4549 70.4999 60.5396 72.5191H128.758C128.758 72.5191 135.98 69.344 136.58 65.5832Z" fill="#E0E0E0"/>
<path d="M131.76 70.2148H64.3589L65.3597 72.5344H131.76V70.2148Z" fill="#EBEBEB"/>
<path d="M134.17 67.3171H66.7607L67.7696 69.6368H134.17V67.3171Z" fill="#EBEBEB"/>
<path d="M69.1708 64.5197H70.8762V63.8415H69.1708V64.5197Z" fill="#E0E0E0"/>
<path d="M71.5729 64.5197H73.2783V63.8415H71.5729V64.5197Z" fill="#E0E0E0"/>
<path d="M200 256.536C285.666 256.536 355.112 253.495 355.112 249.744C355.112 245.993 285.666 242.952 200 242.952C114.334 242.952 44.8879 245.993 44.8879 249.744C44.8879 253.495 114.334 256.536 200 256.536Z" fill="#F5F5F5"/>
<path d="M72.56 206.46C72.728 207.342 69.536 207.924 66.96 208.26C67.176 209.862 68.56 211.482 70.552 212.994C73.024 211.95 76.544 210.594 77.2 210.912C77.856 211.23 74.272 213 72 214.044C73.6142 215.098 75.3222 216.068 77.112 216.948C78.216 216.174 79.512 215.49 80.312 215.862C81.112 216.234 80.896 217.44 80.496 218.514C83.184 219.684 85.192 220.398 85.192 220.398C85.9736 218.527 86.5752 216.616 86.992 214.68C86.856 214.482 86.72 214.278 86.592 214.08C86.16 213.33 86.592 213.012 87.296 212.91C87.4995 211.541 87.5156 210.16 87.344 208.788C84.304 208.308 80.608 207.426 81.992 206.058C82.792 205.236 84.392 205.14 85.944 205.344C85.728 205.072 85.4761 204.816 85.192 204.582C79.664 200.01 75.808 204.582 75.808 204.582C72.608 202.572 68.072 203.112 67.096 206.256C68.896 205.89 72.352 205.374 72.56 206.46Z" fill="#6750A4"/>
<path opacity="0.3" d="M72.56 206.46C72.728 207.342 69.536 207.924 66.96 208.26C67.176 209.862 68.56 211.482 70.552 212.994C73.024 211.95 76.544 210.594 77.2 210.912C77.856 211.23 74.272 213 72 214.044C73.6142 215.098 75.3222 216.068 77.112 216.948C78.216 216.174 79.512 215.49 80.312 215.862C81.112 216.234 80.896 217.44 80.496 218.514C83.184 219.684 85.192 220.398 85.192 220.398C85.9736 218.527 86.5752 216.616 86.992 214.68C86.856 214.482 86.72 214.278 86.592 214.08C86.16 213.33 86.592 213.012 87.296 212.91C87.4995 211.541 87.5156 210.16 87.344 208.788C84.304 208.308 80.608 207.426 81.992 206.058C82.792 205.236 84.392 205.14 85.944 205.344C85.728 205.072 85.4761 204.816 85.192 204.582C79.664 200.01 75.808 204.582 75.808 204.582C72.608 202.572 68.072 203.112 67.096 206.256C68.896 205.89 72.352 205.374 72.56 206.46Z" fill="white"/>
<path d="M79.4641 240.054L78.6641 240.006C78.6641 239.694 81.9361 209.088 72.7761 206.202C72.3391 206.05 71.8612 205.976 71.3797 205.985C70.8982 205.995 70.4261 206.087 70.0001 206.256C66.6961 207.546 65.1121 212.904 65.0961 212.958L64.2961 212.832C64.3601 212.604 65.9761 207.144 69.6161 205.722C70.1463 205.512 70.7337 205.397 71.333 205.384C71.9322 205.372 72.5272 205.463 73.0721 205.65C82.7761 208.704 79.6001 238.8 79.4641 240.054Z" fill="#6750A4"/>
<path d="M80.6161 239.4C80.4561 238.026 76.7121 205.644 83.7041 202.2C85.3841 201.372 86.9041 201.198 88.1441 201.678C91.4481 202.932 91.8801 208.224 91.8961 208.452L91.0961 208.488C91.0961 208.434 90.6721 203.31 87.7841 202.218C86.7841 201.84 85.5601 202.002 84.1441 202.698C77.5521 205.944 81.3761 239.01 81.4081 239.346L80.6161 239.4Z" fill="#6750A4"/>
<path d="M81.6641 242.01C81.6161 240.954 80.4641 216.168 86.8241 213.996C87.4179 213.788 88.065 213.681 88.7201 213.681C89.3752 213.681 90.0223 213.788 90.6161 213.996C94.9841 215.436 97.6801 221.544 97.8161 221.796L97.0561 221.982C97.0561 221.922 94.3521 215.874 90.3121 214.542C89.8237 214.367 89.2893 214.277 88.7481 214.277C88.2069 214.277 87.6726 214.367 87.1841 214.542C82.3041 216.204 82.1361 234.942 82.4881 241.986L81.6641 242.01Z" fill="#6750A4"/>
<path d="M80.0482 240.876L79.2482 240.81C80.3762 233.43 82.5202 213.768 79.0162 211.41C78.8465 211.256 78.6208 211.142 78.3666 211.083C78.1124 211.023 77.8406 211.02 77.5842 211.074C75.2002 211.8 73.8002 218.16 73.4482 220.572L72.6482 220.506C72.7842 219.582 74.0642 211.458 77.2882 210.534C77.6795 210.433 78.1018 210.422 78.5018 210.501C78.9018 210.58 79.2617 210.746 79.5362 210.978C84.0722 214.008 80.2162 239.778 80.0482 240.876Z" fill="#6750A4"/>
<path d="M66.696 226.89H95.44L93.04 251.034H69.096L66.696 226.89Z" fill="#263238"/>
<path opacity="0.2" d="M75.4241 226.89L76.2241 251.034H93.0401L95.4401 226.89H75.4241Z" fill="white"/>
<path d="M70.6082 218.028C70.3122 218.628 68.0802 218.154 66.3282 217.686C65.7282 218.73 65.8642 220.086 66.3842 221.526C68.3762 221.526 71.1842 221.574 71.4322 221.952C71.6802 222.33 68.6722 222.51 66.8082 222.552C67.3219 223.619 67.9341 224.657 68.6402 225.66C69.6722 225.462 70.7842 225.378 71.0882 225.804C71.3922 226.23 70.7282 226.926 69.9922 227.484C71.1122 228.9 72.0242 229.884 72.0242 229.884C73.3639 228.926 74.6073 227.895 75.7442 226.8C75.7442 226.644 75.7442 226.482 75.7442 226.32C75.8242 225.72 76.2322 225.654 76.7202 225.774C77.4699 224.981 78.1105 224.132 78.6322 223.242C76.9762 222.168 75.0962 220.674 76.5762 220.182C77.4722 219.894 78.4562 220.224 79.3362 220.782C79.3314 220.558 79.2939 220.334 79.2242 220.116C77.9042 215.874 73.4402 217.716 73.4402 217.716C72.3762 215.652 69.3362 214.83 67.3042 216.516C68.6162 216.732 70.9842 217.302 70.6082 218.028Z" fill="#6750A4"/>
<path opacity="0.3" d="M70.6082 218.028C70.3122 218.628 68.0802 218.154 66.3282 217.686C65.7282 218.73 65.8642 220.086 66.3842 221.526C68.3762 221.526 71.1842 221.574 71.4322 221.952C71.6802 222.33 68.6722 222.51 66.8082 222.552C67.3219 223.619 67.9341 224.657 68.6402 225.66C69.6722 225.462 70.7842 225.378 71.0882 225.804C71.3922 226.23 70.7282 226.926 69.9922 227.484C71.1122 228.9 72.0242 229.884 72.0242 229.884C73.3639 228.926 74.6073 227.895 75.7442 226.8C75.7442 226.644 75.7442 226.482 75.7442 226.32C75.8242 225.72 76.2322 225.654 76.7202 225.774C77.4699 224.981 78.1105 224.132 78.6322 223.242C76.9762 222.168 75.0962 220.674 76.5762 220.182C77.4722 219.894 78.4562 220.224 79.3362 220.782C79.3314 220.558 79.2939 220.334 79.2242 220.116C77.9042 215.874 73.4402 217.716 73.4402 217.716C72.3762 215.652 69.3362 214.83 67.3042 216.516C68.6162 216.732 70.9842 217.302 70.6082 218.028Z" fill="white"/>
<path d="M91.9521 220.896C91.0578 220.952 90.1764 221.091 89.3281 221.31C89.0968 220.853 88.9644 220.371 88.9361 219.882C88.7521 215.538 92.9361 217.368 95.0961 216.09C95.5955 215.764 96.1796 215.519 96.8115 215.37C97.4435 215.221 98.1096 215.172 98.7681 215.226C98.5789 215.467 98.4131 215.717 98.272 215.976C98.2194 216.07 98.1962 216.173 98.2043 216.275C98.2124 216.377 98.2515 216.477 98.3186 216.566C98.3858 216.655 98.4792 216.731 98.5917 216.789C98.7043 216.847 98.833 216.885 98.9681 216.9C99.5083 216.98 100.068 216.929 100.568 216.756C100.716 216.695 100.856 216.623 100.984 216.54C101.334 216.996 101.603 217.484 101.784 217.992C102.001 218.6 102.127 219.223 102.16 219.852C101.828 219.904 101.502 219.975 101.184 220.062C101.058 220.103 100.947 220.165 100.858 220.243C100.768 220.321 100.704 220.413 100.669 220.512C100.635 220.612 100.631 220.716 100.657 220.817C100.684 220.917 100.741 221.012 100.824 221.094C101.173 221.354 101.579 221.567 102.024 221.724C101.873 222.419 101.627 223.101 101.288 223.758L100.992 223.794C100.784 223.824 100.576 223.866 100.368 223.908L100.024 224.004C99.8817 224.051 99.7572 224.124 99.6622 224.216C99.5671 224.308 99.5045 224.417 99.4801 224.532C99.4669 224.646 99.4914 224.76 99.5514 224.864C99.6114 224.969 99.7051 225.061 99.824 225.132C99.9603 225.207 100.105 225.273 100.256 225.33C99.703 226.047 98.912 226.644 97.96 227.064C97.1193 226.779 96.3019 226.456 95.5121 226.098C95.6881 225.924 95.8641 225.75 96.0241 225.57C96.2124 225.371 96.3004 225.129 96.272 224.886C96.2204 224.649 96.052 224.435 95.8001 224.286C95.6718 224.211 95.5253 224.157 95.3688 224.125C95.2123 224.093 95.0489 224.084 94.8881 224.1C94.5717 224.139 94.2862 224.265 94.0881 224.454C93.8961 224.67 93.68 224.874 93.472 225.054C92.3649 224.442 91.3744 223.719 90.5281 222.906H90.616C91.1405 222.804 91.6759 222.735 92.216 222.702C92.4883 222.635 92.7207 222.498 92.8734 222.317C93.0261 222.135 93.0894 221.918 93.0524 221.705C93.0155 221.492 92.8806 221.295 92.671 221.149C92.4614 221.002 92.1902 220.915 91.904 220.902L91.9521 220.896Z" fill="#6750A4"/>
<path opacity="0.5" d="M91.9521 220.896C91.0578 220.952 90.1764 221.091 89.3281 221.31C89.0968 220.853 88.9644 220.371 88.9361 219.882C88.7521 215.538 92.9361 217.368 95.0961 216.09C95.5955 215.764 96.1796 215.519 96.8115 215.37C97.4435 215.221 98.1096 215.172 98.7681 215.226C98.5789 215.467 98.4131 215.717 98.272 215.976C98.2194 216.07 98.1962 216.173 98.2043 216.275C98.2124 216.377 98.2515 216.477 98.3186 216.566C98.3858 216.655 98.4792 216.731 98.5917 216.789C98.7043 216.847 98.833 216.885 98.9681 216.9C99.5083 216.98 100.068 216.929 100.568 216.756C100.716 216.695 100.856 216.623 100.984 216.54C101.334 216.996 101.603 217.484 101.784 217.992C102.001 218.6 102.127 219.223 102.16 219.852C101.828 219.904 101.502 219.975 101.184 220.062C101.058 220.103 100.947 220.165 100.858 220.243C100.768 220.321 100.704 220.413 100.669 220.512C100.635 220.612 100.631 220.716 100.657 220.817C100.684 220.917 100.741 221.012 100.824 221.094C101.173 221.354 101.579 221.567 102.024 221.724C101.873 222.419 101.627 223.101 101.288 223.758L100.992 223.794C100.784 223.824 100.576 223.866 100.368 223.908L100.024 224.004C99.8817 224.051 99.7572 224.124 99.6622 224.216C99.5671 224.308 99.5045 224.417 99.4801 224.532C99.4669 224.646 99.4914 224.76 99.5514 224.864C99.6114 224.969 99.7051 225.061 99.824 225.132C99.9603 225.207 100.105 225.273 100.256 225.33C99.703 226.047 98.912 226.644 97.96 227.064C97.1193 226.779 96.3019 226.456 95.5121 226.098C95.6881 225.924 95.8641 225.75 96.0241 225.57C96.2124 225.371 96.3004 225.129 96.272 224.886C96.2204 224.649 96.052 224.435 95.8001 224.286C95.6718 224.211 95.5253 224.157 95.3688 224.125C95.2123 224.093 95.0489 224.084 94.8881 224.1C94.5717 224.139 94.2862 224.265 94.0881 224.454C93.8961 224.67 93.68 224.874 93.472 225.054C92.3649 224.442 91.3744 223.719 90.5281 222.906H90.616C91.1405 222.804 91.6759 222.735 92.216 222.702C92.4883 222.635 92.7207 222.498 92.8734 222.317C93.0261 222.135 93.0894 221.918 93.0524 221.705C93.0155 221.492 92.8806 221.295 92.671 221.149C92.4614 221.002 92.1902 220.915 91.904 220.902L91.9521 220.896Z" fill="white"/>
<path d="M93.6001 205.908C94.0948 205.642 94.6324 205.424 95.2001 205.26C95.0538 204.944 94.8403 204.649 94.5681 204.384C92.1201 202.038 91.0161 204.384 89.1121 204.42C88.6649 204.415 88.2211 204.479 87.8083 204.608C87.3954 204.737 87.0223 204.928 86.7121 205.17C86.9496 205.236 87.182 205.312 87.4081 205.398C87.492 205.43 87.5648 205.477 87.621 205.534C87.6772 205.59 87.7153 205.656 87.7323 205.726C87.7493 205.795 87.7448 205.867 87.7191 205.935C87.6934 206.003 87.6472 206.065 87.5841 206.118C87.3468 206.344 87.0184 206.506 86.6481 206.58C86.5309 206.586 86.4133 206.586 86.2961 206.58C86.3851 206.934 86.5302 207.278 86.7281 207.606C86.9709 207.996 87.2714 208.364 87.6241 208.704C87.8281 208.623 88.0393 208.553 88.2561 208.494C88.3462 208.473 88.4415 208.467 88.5347 208.478C88.628 208.489 88.7167 208.516 88.794 208.556C88.8713 208.597 88.9352 208.65 88.9806 208.712C89.0261 208.774 89.0519 208.843 89.0561 208.914C89.0271 209.166 88.9377 209.412 88.7921 209.64C89.2855 209.959 89.8217 210.238 90.3921 210.474L90.5681 210.39L90.9681 210.246C91.0451 210.22 91.1256 210.2 91.2081 210.186C91.3095 210.162 91.4172 210.159 91.521 210.176C91.6247 210.193 91.7208 210.229 91.8001 210.282C91.8797 210.338 91.9386 210.408 91.9709 210.486C92.0031 210.564 92.0077 210.646 91.9841 210.726C91.9568 210.81 91.922 210.892 91.8801 210.972C92.5884 211.167 93.3519 211.221 94.0961 211.128C94.3733 210.702 94.6138 210.263 94.8161 209.814L94.2401 209.706C94.0268 209.663 93.8401 209.565 93.7121 209.43C93.5921 209.287 93.5519 209.115 93.6001 208.95C93.6216 208.869 93.6654 208.791 93.7287 208.723C93.7921 208.655 93.8736 208.597 93.9681 208.554C94.1585 208.464 94.3884 208.434 94.6081 208.47C94.8321 208.518 95.0641 208.554 95.2881 208.596C95.5154 207.912 95.6151 207.207 95.5841 206.502H95.5281C95.1862 206.622 94.8596 206.764 94.5521 206.928C94.4592 206.973 94.3553 207.004 94.2465 207.018C94.1377 207.033 94.026 207.032 93.918 207.014C93.8099 206.997 93.7074 206.963 93.6165 206.916C93.5256 206.869 93.448 206.809 93.3881 206.739C93.3283 206.669 93.2873 206.591 93.2675 206.51C93.2478 206.428 93.2497 206.344 93.2731 206.263C93.2965 206.182 93.3409 206.106 93.4039 206.037C93.4669 205.969 93.5472 205.911 93.6401 205.866L93.6001 205.908Z" fill="#6750A4"/>
<path opacity="0.3" d="M93.6001 205.908C94.0948 205.642 94.6324 205.424 95.2001 205.26C95.0538 204.944 94.8403 204.649 94.5681 204.384C92.1201 202.038 91.0161 204.384 89.1121 204.42C88.6649 204.415 88.2211 204.479 87.8083 204.608C87.3954 204.737 87.0223 204.928 86.7121 205.17C86.9496 205.236 87.182 205.312 87.4081 205.398C87.492 205.43 87.5648 205.477 87.621 205.534C87.6772 205.59 87.7153 205.656 87.7323 205.726C87.7493 205.795 87.7448 205.867 87.7191 205.935C87.6934 206.003 87.6472 206.065 87.5841 206.118C87.3468 206.344 87.0184 206.506 86.6481 206.58C86.5309 206.586 86.4133 206.586 86.2961 206.58C86.3851 206.934 86.5302 207.278 86.7281 207.606C86.9709 207.996 87.2714 208.364 87.6241 208.704C87.8281 208.623 88.0393 208.553 88.2561 208.494C88.3462 208.473 88.4415 208.467 88.5347 208.478C88.628 208.489 88.7167 208.516 88.794 208.556C88.8713 208.597 88.9352 208.65 88.9806 208.712C89.0261 208.774 89.0519 208.843 89.0561 208.914C89.0271 209.166 88.9377 209.412 88.7921 209.64C89.2855 209.959 89.8217 210.238 90.3921 210.474L90.5681 210.39L90.9681 210.246C91.0451 210.22 91.1256 210.2 91.2081 210.186C91.3095 210.162 91.4172 210.159 91.521 210.176C91.6247 210.193 91.7208 210.229 91.8001 210.282C91.8797 210.338 91.9386 210.408 91.9709 210.486C92.0031 210.564 92.0077 210.646 91.9841 210.726C91.9568 210.81 91.922 210.892 91.8801 210.972C92.5884 211.167 93.3519 211.221 94.0961 211.128C94.3733 210.702 94.6138 210.263 94.8161 209.814L94.2401 209.706C94.0268 209.663 93.8401 209.565 93.7121 209.43C93.5921 209.287 93.5519 209.115 93.6001 208.95C93.6216 208.869 93.6654 208.791 93.7287 208.723C93.7921 208.655 93.8736 208.597 93.9681 208.554C94.1585 208.464 94.3884 208.434 94.6081 208.47C94.8321 208.518 95.0641 208.554 95.2881 208.596C95.5154 207.912 95.6151 207.207 95.5841 206.502H95.5281C95.1862 206.622 94.8596 206.764 94.5521 206.928C94.4592 206.973 94.3553 207.004 94.2465 207.018C94.1377 207.033 94.026 207.032 93.918 207.014C93.8099 206.997 93.7074 206.963 93.6165 206.916C93.5256 206.869 93.448 206.809 93.3881 206.739C93.3283 206.669 93.2873 206.591 93.2675 206.51C93.2478 206.428 93.2497 206.344 93.2731 206.263C93.2965 206.182 93.3409 206.106 93.4039 206.037C93.4669 205.969 93.5472 205.911 93.6401 205.866L93.6001 205.908Z" fill="white"/>
<path d="M70.1921 210.258C70.0241 211.14 73.2161 211.722 75.7921 212.058C75.5761 213.66 74.1921 215.28 72.1921 216.786C69.7281 215.748 66.2001 214.386 65.5521 214.704C64.9041 215.022 68.4561 216.822 70.7121 217.848C69.0994 218.9 67.3913 219.866 65.6001 220.74C64.4961 219.966 63.2001 219.288 62.4001 219.654C61.6001 220.02 61.8161 221.238 62.2161 222.306C59.5281 223.506 57.5201 224.196 57.5201 224.196C56.7384 222.325 56.1369 220.414 55.7201 218.478C55.8561 218.274 55.9921 218.076 56.1121 217.878C56.5521 217.128 56.1121 216.81 55.4161 216.678C55.2084 215.309 55.1924 213.928 55.3681 212.556C58.4081 212.082 62.1041 211.194 60.7201 209.826C59.9201 209.004 58.3601 208.908 56.7681 209.118C56.9842 208.844 57.2361 208.587 57.5201 208.35C63.0481 203.778 66.9041 208.35 66.9041 208.35C70.1041 206.34 74.6321 206.886 75.6081 210.024C73.8561 209.682 70.4001 209.166 70.1921 210.258Z" fill="#6750A4"/>
<path opacity="0.5" d="M70.1921 210.258C70.0241 211.14 73.2161 211.722 75.7921 212.058C75.5761 213.66 74.1921 215.28 72.1921 216.786C69.7281 215.748 66.2001 214.386 65.5521 214.704C64.9041 215.022 68.4561 216.822 70.7121 217.848C69.0994 218.9 67.3913 219.866 65.6001 220.74C64.4961 219.966 63.2001 219.288 62.4001 219.654C61.6001 220.02 61.8161 221.238 62.2161 222.306C59.5281 223.506 57.5201 224.196 57.5201 224.196C56.7384 222.325 56.1369 220.414 55.7201 218.478C55.8561 218.274 55.9921 218.076 56.1121 217.878C56.5521 217.128 56.1121 216.81 55.4161 216.678C55.2084 215.309 55.1924 213.928 55.3681 212.556C58.4081 212.082 62.1041 211.194 60.7201 209.826C59.9201 209.004 58.3601 208.908 56.7681 209.118C56.9842 208.844 57.2361 208.587 57.5201 208.35C63.0481 203.778 66.9041 208.35 66.9041 208.35C70.1041 206.34 74.6321 206.886 75.6081 210.024C73.8561 209.682 70.4001 209.166 70.1921 210.258Z" fill="white"/>
<path d="M308.36 251.034L323.68 174.684V251.034H327.792V174.21L343.128 251.034H347.536L328.336 154.866L327.792 154.926V151.8H323.68V154.914L323.112 154.866L303.864 251.034H308.36Z" fill="#6750A4"/>
<path opacity="0.3" d="M308.36 251.034L323.68 174.684V251.034H327.792V174.21L343.128 251.034H347.536L328.336 154.866L327.792 154.926V151.8H323.68V154.914L323.112 154.866L303.864 251.034H308.36Z" fill="white"/>
<path d="M346.816 165.534H304.432L307.864 138.972H343.384L346.816 165.534Z" fill="#6750A4"/>
<g opacity="0.5">
<path d="M346.816 165.534H304.432L307.864 138.972H343.384L346.816 165.534Z" fill="white"/>
</g>
<path d="M240 131.046H226.064C225.767 131.046 225.482 130.958 225.272 130.8C225.062 130.642 224.944 130.429 224.944 130.206V105.456C225.097 105.402 225.228 105.317 225.322 105.211C225.416 105.105 225.47 104.983 225.478 104.856C225.486 104.729 225.448 104.603 225.368 104.49C225.288 104.378 225.169 104.285 225.024 104.219C224.878 104.154 224.712 104.12 224.543 104.12C224.373 104.12 224.207 104.154 224.062 104.22C223.916 104.285 223.797 104.379 223.717 104.491C223.638 104.603 223.6 104.729 223.608 104.856C223.616 104.983 223.67 105.106 223.764 105.212C223.859 105.318 223.99 105.402 224.144 105.456V130.2C224.143 130.389 224.192 130.577 224.288 130.752C224.384 130.927 224.526 131.086 224.704 131.22C224.883 131.354 225.095 131.46 225.328 131.532C225.561 131.604 225.812 131.641 226.064 131.64H240C240.297 131.64 240.582 131.729 240.792 131.886C241.002 132.044 241.12 132.257 241.12 132.48V146.646H241.92V132.486C241.92 132.297 241.87 132.11 241.774 131.935C241.677 131.76 241.536 131.602 241.358 131.468C241.179 131.334 240.968 131.228 240.735 131.156C240.502 131.083 240.252 131.046 240 131.046Z" fill="#6750A4"/>
<path opacity="0.4" d="M240 131.046H226.064C225.767 131.046 225.482 130.958 225.272 130.8C225.062 130.642 224.944 130.429 224.944 130.206V105.456C225.097 105.402 225.228 105.317 225.322 105.211C225.416 105.105 225.47 104.983 225.478 104.856C225.486 104.729 225.448 104.603 225.368 104.49C225.288 104.378 225.169 104.285 225.024 104.219C224.878 104.154 224.712 104.12 224.543 104.12C224.373 104.12 224.207 104.154 224.062 104.22C223.916 104.285 223.797 104.379 223.717 104.491C223.638 104.603 223.6 104.729 223.608 104.856C223.616 104.983 223.67 105.106 223.764 105.212C223.859 105.318 223.99 105.402 224.144 105.456V130.2C224.143 130.389 224.192 130.577 224.288 130.752C224.384 130.927 224.526 131.086 224.704 131.22C224.883 131.354 225.095 131.46 225.328 131.532C225.561 131.604 225.812 131.641 226.064 131.64H240C240.297 131.64 240.582 131.729 240.792 131.886C241.002 132.044 241.12 132.257 241.12 132.48V146.646H241.92V132.486C241.92 132.297 241.87 132.11 241.774 131.935C241.677 131.76 241.536 131.602 241.358 131.468C241.179 131.334 240.968 131.228 240.735 131.156C240.502 131.083 240.252 131.046 240 131.046Z" fill="white"/>
<path d="M256.672 146.052H226.296C225.108 146.052 224.144 146.775 224.144 147.666V171.72C224.144 172.611 225.108 173.334 226.296 173.334H256.672C257.861 173.334 258.824 172.611 258.824 171.72V147.666C258.824 146.775 257.861 146.052 256.672 146.052Z" fill="#6750A4"/>
<path opacity="0.4" d="M256.672 146.052H226.296C225.108 146.052 224.144 146.775 224.144 147.666V171.72C224.144 172.611 225.108 173.334 226.296 173.334H256.672C257.861 173.334 258.824 172.611 258.824 171.72V147.666C258.824 146.775 257.861 146.052 256.672 146.052Z" fill="white"/>
<path opacity="0.2" d="M243.816 161.742H239.152V165.24H243.816V161.742Z" fill="white"/>
<path opacity="0.2" d="M248.88 150.348H244.216V153.846H248.88V150.348Z" fill="white"/>
<path opacity="0.2" d="M238.752 165.54H234.088V169.038H238.752V165.54Z" fill="white"/>
<path opacity="0.2" d="M248.88 154.146H244.216V157.644H248.88V154.146Z" fill="white"/>
<path opacity="0.2" d="M248.88 157.944H244.216V161.442H248.88V157.944Z" fill="white"/>
<path opacity="0.2" d="M243.816 154.146H239.152V157.644H243.816V154.146Z" fill="white"/>
<path opacity="0.2" d="M243.816 146.352H239.152V150.048H243.816V146.352Z" fill="white"/>
<path opacity="0.2" d="M238.752 161.742H234.088V165.24H238.752V161.742Z" fill="white"/>
<path opacity="0.2" d="M243.816 150.348H239.152V153.846H243.816V150.348Z" fill="white"/>
<path opacity="0.2" d="M243.816 165.54H239.152V169.038H243.816V165.54Z" fill="white"/>
<path opacity="0.2" d="M248.88 165.54H244.216V169.038H248.88V165.54Z" fill="white"/>
<path opacity="0.2" d="M243.816 157.944H239.152V161.442H243.816V157.944Z" fill="white"/>
<path opacity="0.2" d="M248.88 146.352H244.216V150.048H248.88V146.352Z" fill="white"/>
<path opacity="0.2" d="M228.624 161.742H224.544V165.24H228.624V161.742Z" fill="white"/>
<path opacity="0.2" d="M228.624 150.348H224.544V153.846H228.624V150.348Z" fill="white"/>
<path opacity="0.2" d="M228.624 157.944H224.544V161.442H228.624V157.944Z" fill="white"/>
<path opacity="0.2" d="M228.624 154.146H224.544V157.644H228.624V154.146Z" fill="white"/>
<path opacity="0.2" d="M248.88 161.742H244.216V165.24H248.88V161.742Z" fill="white"/>
<path opacity="0.2" d="M254.344 150.048H258.4V147.648C258.4 147.3 258.215 146.965 257.887 146.719C257.558 146.472 257.113 146.334 256.648 146.334H254.32L254.344 150.048Z" fill="white"/>
<path opacity="0.2" d="M253.944 150.348H249.28V153.846H253.944V150.348Z" fill="white"/>
<path opacity="0.2" d="M228.624 165.54H224.544V169.038H228.624V165.54Z" fill="white"/>
<path opacity="0.2" d="M253.944 154.146H249.28V157.644H253.944V154.146Z" fill="white"/>
<path opacity="0.2" d="M253.944 157.944H249.28V161.442H253.944V157.944Z" fill="white"/>
<path opacity="0.2" d="M253.944 161.742H249.28V165.24H253.944V161.742Z" fill="white"/>
<path opacity="0.2" d="M253.944 165.54H249.28V169.038H253.944V165.54Z" fill="white"/>
<path opacity="0.2" d="M258.424 165.54H254.344V169.038H258.424V165.54Z" fill="white"/>
<path opacity="0.2" d="M253.944 146.352H249.28V150.048H253.944V146.352Z" fill="white"/>
<path opacity="0.2" d="M243.816 169.344H239.152V173.04H243.816V169.344Z" fill="white"/>
<path opacity="0.2" d="M248.88 169.344H244.216V173.04H248.88V169.344Z" fill="white"/>
<path opacity="0.2" d="M258.424 157.944H254.344V161.442H258.424V157.944Z" fill="white"/>
<path opacity="0.2" d="M253.944 169.344H249.28V173.04H253.944V169.344Z" fill="white"/>
<path opacity="0.2" d="M258.424 161.742H254.344V165.24H258.424V161.742Z" fill="white"/>
<path opacity="0.2" d="M228.616 169.344H224.544V171.744C224.546 172.091 224.732 172.424 225.06 172.669C225.388 172.914 225.833 173.052 226.296 173.052H228.616V169.344Z" fill="white"/>
<path opacity="0.2" d="M254.344 169.344V173.034H256.672C257.135 173.034 257.58 172.896 257.908 172.651C258.236 172.406 258.422 172.074 258.424 171.726V169.326L254.344 169.344Z" fill="white"/>
<path opacity="0.2" d="M228.616 150.048V146.352H226.296C225.831 146.352 225.386 146.49 225.057 146.737C224.729 146.983 224.544 147.318 224.544 147.666V150.066L228.616 150.048Z" fill="white"/>
<path opacity="0.2" d="M258.424 154.146H254.344V157.644H258.424V154.146Z" fill="white"/>
<path opacity="0.2" d="M258.424 150.348H254.344V153.846H258.424V150.348Z" fill="white"/>
<path opacity="0.2" d="M233.68 157.944H229.016V161.442H233.68V157.944Z" fill="white"/>
<path opacity="0.2" d="M233.68 165.54H229.016V169.038H233.68V165.54Z" fill="white"/>
<path opacity="0.2" d="M238.752 146.352H234.088V150.048H238.752V146.352Z" fill="white"/>
<path opacity="0.2" d="M233.68 161.742H229.016V165.24H233.68V161.742Z" fill="white"/>
<path opacity="0.2" d="M238.752 154.146H234.088V157.644H238.752V154.146Z" fill="white"/>
<path opacity="0.2" d="M238.752 150.348H234.088V153.846H238.752V150.348Z" fill="white"/>
<path opacity="0.2" d="M238.752 169.344H234.088V173.04H238.752V169.344Z" fill="white"/>
<path opacity="0.2" d="M233.68 169.344H229.016V173.04H233.68V169.344Z" fill="white"/>
<path opacity="0.2" d="M233.68 146.352H229.016V150.048H233.68V146.352Z" fill="white"/>
<path opacity="0.2" d="M238.752 157.944H234.088V161.442H238.752V157.944Z" fill="white"/>
<path opacity="0.2" d="M233.68 154.146H229.016V157.644H233.68V154.146Z" fill="white"/>
<path opacity="0.2" d="M233.68 150.348H229.016V153.846H233.68V150.348Z" fill="white"/>
<path d="M249.768 155.67C249.699 155.396 249.6 155.128 249.472 154.866C248.972 153.797 248.099 152.848 246.945 152.118C245.791 151.387 244.397 150.901 242.909 150.711C241.42 150.521 239.89 150.633 238.479 151.035C237.067 151.438 235.824 152.116 234.88 153C234.433 153.416 234.059 153.874 233.768 154.362C233.273 155.182 233.016 156.072 233.016 156.972V162.42C233.015 162.94 233.101 163.458 233.272 163.962C233.397 164.347 233.576 164.722 233.808 165.078C234.01 165.411 234.251 165.731 234.528 166.032C234.744 166.248 234.96 166.452 235.192 166.632C235.477 166.869 235.784 167.089 236.112 167.292C236.38 167.456 236.661 167.608 236.952 167.748C237.457 167.989 237.993 168.19 238.552 168.348C238.824 168.42 239.096 168.486 239.352 168.54C239.703 168.605 240.058 168.655 240.416 168.69C240.682 168.715 240.949 168.729 241.216 168.732H241.432C241.869 168.732 242.304 168.708 242.736 168.66C243.008 168.624 243.28 168.582 243.536 168.534C244.519 168.341 245.449 168.018 246.28 167.58C246.581 167.423 246.867 167.251 247.136 167.064C247.871 166.56 248.483 165.963 248.944 165.3C249.184 164.959 249.38 164.601 249.528 164.232C249.751 163.693 249.872 163.134 249.888 162.57C249.888 162.57 249.888 162.444 249.888 162.384V156.936C249.906 156.512 249.866 156.088 249.768 155.67ZM247.872 165.6C247.419 166.115 246.857 166.571 246.208 166.95C245.972 167.091 245.724 167.219 245.464 167.334C244.779 167.65 244.031 167.883 243.248 168.024C242.992 168.066 242.728 168.102 242.448 168.126C242.127 168.157 241.804 168.173 241.48 168.174H241.12C240.84 168.174 240.576 168.174 240.32 168.114C239.985 168.074 239.654 168.018 239.328 167.946C239.048 167.886 238.776 167.808 238.528 167.73C237.962 167.548 237.425 167.319 236.928 167.046C236.66 166.895 236.406 166.731 236.168 166.554C235.876 166.347 235.609 166.123 235.368 165.882C235.136 165.652 234.928 165.409 234.744 165.156C234.469 164.776 234.254 164.374 234.104 163.956C233.917 163.454 233.823 162.935 233.824 162.414V156.966C233.826 155.701 234.389 154.473 235.424 153.474C236.114 152.799 236.993 152.246 238 151.854C239.084 151.43 240.289 151.209 241.512 151.212C243.254 151.212 244.944 151.657 246.304 152.472C247.665 153.288 248.616 154.426 249 155.7C249.123 156.112 249.184 156.532 249.184 156.954V162.45C249.177 162.804 249.129 163.158 249.04 163.506C248.915 163.973 248.714 164.426 248.44 164.856C248.278 165.115 248.088 165.364 247.872 165.6Z" fill="white"/>
<path d="M242.448 160.344C241.592 162.378 240.48 165.054 241.12 168.144C241.16 168.342 241.208 168.54 241.264 168.744C240.996 168.741 240.729 168.727 240.464 168.702C240.408 168.492 240.36 168.288 240.328 168.102C239.72 164.922 240.848 162.216 241.704 160.158C242.616 157.974 242.992 156.906 241.616 156.468C241.4 156.4 241.164 156.377 240.932 156.4C240.7 156.423 240.481 156.492 240.296 156.6C238.112 157.686 236.16 162.372 235.384 165.87C235.32 166.146 235.264 166.41 235.216 166.662C234.984 166.464 234.768 166.26 234.552 166.062C234.608 165.774 234.68 165.462 234.76 165.168C235.64 161.7 237.52 157.29 239.856 156.132C240.151 155.97 240.496 155.867 240.859 155.835C241.222 155.802 241.591 155.84 241.928 155.946C244 156.6 243.32 158.25 242.448 160.344Z" fill="white"/>
<path d="M241.056 160.2C240.256 162.126 239.08 164.946 239.312 167.946C239.312 168.156 239.312 168.366 239.376 168.582C239.096 168.528 238.824 168.462 238.576 168.39C238.576 168.168 238.536 167.952 238.528 167.73C238.368 164.73 239.528 161.934 240.328 160.02C240.638 159.388 240.863 158.735 241 158.07C240.032 158.718 237 163.998 236.944 167.07C236.928 167.318 236.942 167.567 236.984 167.814C236.693 167.674 236.412 167.522 236.144 167.358C236.144 167.112 236.144 166.848 236.184 166.578C236.52 163.398 239.072 158.604 240.464 157.656C240.566 157.565 240.702 157.498 240.854 157.465C241.007 157.432 241.169 157.434 241.32 157.47C242.112 157.68 241.736 158.574 241.056 160.2Z" fill="white"/>
<path d="M243.248 168C243.346 168.189 243.458 168.373 243.584 168.552C243.328 168.6 243.056 168.642 242.784 168.678C242.655 168.484 242.543 168.283 242.448 168.078C241.792 166.794 241.448 164.844 242.64 162.18C244.968 156.984 244.56 155.748 242.832 155.064C242.391 154.87 241.891 154.762 241.38 154.749C240.869 154.737 240.361 154.82 239.904 154.992C237.504 155.88 235.432 159.09 234.096 163.914C233.992 164.28 233.896 164.652 233.808 165.036C233.576 164.68 233.396 164.305 233.272 163.92C233.44 163.32 233.624 162.72 233.816 162.12C235.208 157.992 237.2 155.31 239.552 154.44C240.12 154.221 240.753 154.113 241.392 154.125C242.031 154.138 242.656 154.271 243.208 154.512C245.608 155.472 245.664 157.302 243.4 162.348C242.24 164.94 242.6 166.788 243.24 167.958L243.248 168Z" fill="white"/>
<path d="M247.2 167.106C246.931 167.293 246.645 167.465 246.344 167.622L246.016 167.544C245.823 167.492 245.64 167.422 245.472 167.334C244.568 166.886 243.933 166.19 243.704 165.396C243.288 164.274 243.968 162.654 244.696 160.944C245.424 159.234 246.176 157.446 245.816 156.144C245.719 155.676 245.478 155.232 245.113 154.845C244.748 154.459 244.268 154.142 243.712 153.918C242.312 153.396 240.448 153.486 238.472 154.176C236.496 154.866 234.8 157.074 233.824 158.784C233.48 159.384 233.208 159.936 233.024 160.338V158.652C233.256 158.244 233.52 157.8 233.824 157.356C234.856 155.838 236.304 154.272 238.128 153.636C240.336 152.862 242.448 152.772 244.072 153.384C244.737 153.647 245.312 154.022 245.751 154.48C246.19 154.939 246.48 155.467 246.6 156.024C247 157.464 246.216 159.318 245.456 161.112C244.768 162.738 244.12 164.268 244.472 165.222C244.569 165.589 244.776 165.934 245.078 166.232C245.381 166.529 245.77 166.771 246.216 166.938L246.304 166.968C246.588 167.057 246.892 167.104 247.2 167.106Z" fill="white"/>
<path d="M249.6 164.274C249.452 164.643 249.256 165.001 249.016 165.342C248.665 165.48 248.282 165.567 247.888 165.6H247.664H247.464C247.024 165.573 246.607 165.443 246.272 165.227C245.937 165.012 245.702 164.722 245.6 164.4C245.248 163.506 245.824 161.826 246.4 160.05C246.855 158.926 247.156 157.77 247.296 156.6C247.296 154.752 246.656 152.772 241.928 152.142C239.528 151.818 236.072 152.97 234.048 155.43C233.648 155.91 234.168 154.068 233.728 154.338C234.016 153.846 234.464 153.87 234.904 153.456C235.792 153.024 238.264 151.194 242.064 151.548C247.512 152.052 248.096 154.776 248.096 156.6C247.963 157.822 247.652 159.029 247.168 160.2C246.64 161.742 246.048 163.494 246.368 164.232C246.426 164.435 246.569 164.619 246.777 164.757C246.984 164.895 247.244 164.98 247.52 165C247.825 165.014 248.129 164.973 248.408 164.88C248.857 164.742 249.262 164.535 249.6 164.274Z" fill="white"/>
<path d="M249.952 161.01V162.42C249.952 162.48 249.952 162.546 249.952 162.606C249.737 162.96 249.417 163.272 249.016 163.518C248.739 163.668 248.406 163.748 248.064 163.746H247.832C247.711 163.735 247.595 163.701 247.496 163.648C247.397 163.594 247.317 163.523 247.264 163.44C246.904 162.942 247.352 161.934 247.648 161.376C248.688 159.595 249.143 157.652 248.976 155.712C248.976 155.37 249.024 155.16 249.024 155.148C249.034 155.07 249.083 154.997 249.162 154.944C249.241 154.892 249.343 154.864 249.448 154.866C249.576 155.128 249.675 155.396 249.744 155.67C249.744 156.114 249.648 156.558 249.592 157.002C249.48 157.854 249.344 158.706 249.128 159.552C249.072 159.78 249.328 159.69 249.264 159.918C249.068 160.369 248.833 160.81 248.56 161.238C248.368 161.568 248.152 161.892 248 162.234C247.904 162.438 247.552 163.398 248.272 163.188C248.542 163.083 248.767 162.923 248.92 162.726C248.992 162.642 249.064 162.558 249.128 162.468C249.361 162.142 249.559 161.803 249.72 161.454C249.816 161.31 249.888 161.16 249.952 161.01Z" fill="white"/>
<path d="M190.968 59.238V74.538C190.968 74.7608 190.85 74.9745 190.64 75.132C190.43 75.2895 190.145 75.378 189.848 75.378H169.104C169.033 75.2621 168.921 75.1632 168.78 75.0923C168.638 75.0213 168.474 74.9811 168.304 74.976C168.135 74.9698 167.966 74.9982 167.817 75.0581C167.668 75.118 167.543 75.2072 167.455 75.3162C167.368 75.4252 167.322 75.5499 167.322 75.677C167.322 75.8041 167.368 75.9288 167.455 76.0378C167.542 76.1469 167.667 76.2361 167.817 76.2961C167.966 76.3561 168.134 76.3845 168.303 76.3784C168.473 76.3722 168.637 76.3318 168.778 76.2613C168.919 76.1907 169.031 76.0929 169.104 75.978H189.848C190.357 75.9765 190.844 75.8242 191.203 75.5545C191.563 75.2848 191.766 74.9195 191.768 74.538V59.238H190.968Z" fill="#6750A4"/>
<path opacity="0.4" d="M190.968 59.238V74.538C190.968 74.7608 190.85 74.9745 190.64 75.132C190.43 75.2895 190.145 75.378 189.848 75.378H169.104C169.033 75.2621 168.921 75.1632 168.78 75.0923C168.638 75.0213 168.474 74.9811 168.304 74.976C168.135 74.9698 167.966 74.9982 167.817 75.0581C167.668 75.118 167.543 75.2072 167.455 75.3162C167.368 75.4252 167.322 75.5499 167.322 75.677C167.322 75.8041 167.368 75.9288 167.455 76.0378C167.542 76.1469 167.667 76.2361 167.817 76.2961C167.966 76.3561 168.134 76.3845 168.303 76.3784C168.473 76.3722 168.637 76.3318 168.778 76.2613C168.919 76.1907 169.031 76.0929 169.104 75.978H189.848C190.357 75.9765 190.844 75.8242 191.203 75.5545C191.563 75.2848 191.766 74.9195 191.768 74.538V59.238H190.968Z" fill="white"/>
<path d="M209.552 62.388V39.606C209.552 38.7146 208.589 37.992 207.4 37.992H175.328C174.139 37.992 173.176 38.7146 173.176 39.606V62.388C173.176 63.2794 174.139 64.002 175.328 64.002H207.4C208.589 64.002 209.552 63.2794 209.552 62.388Z" fill="#6750A4"/>
<path opacity="0.4" d="M209.552 62.388V39.606C209.552 38.7146 208.589 37.992 207.4 37.992H175.328C174.139 37.992 173.176 38.7146 173.176 39.606V62.388C173.176 63.2794 174.139 64.002 175.328 64.002H207.4C208.589 64.002 209.552 63.2794 209.552 62.388Z" fill="white"/>
<path opacity="0.2" d="M188.632 49.248H183.968V52.746H188.632V49.248Z" fill="white"/>
<path opacity="0.2" d="M203.824 53.046H199.16V56.544H203.824V53.046Z" fill="white"/>
<path opacity="0.2" d="M183.568 45.444H178.904V48.942H183.568V45.444Z" fill="white"/>
<path opacity="0.2" d="M198.76 53.046H194.096V56.544H198.76V53.046Z" fill="white"/>
<path opacity="0.2" d="M193.696 53.046H189.032V56.544H193.696V53.046Z" fill="white"/>
<path opacity="0.2" d="M198.76 49.248H194.096V52.746H198.76V49.248Z" fill="white"/>
<path opacity="0.2" d="M209.16 49.248H204.232V52.746H209.16V49.248Z" fill="white"/>
<path opacity="0.2" d="M188.632 45.444H183.968V48.942H188.632V45.444Z" fill="white"/>
<path opacity="0.2" d="M203.824 49.248H199.16V52.746H203.824V49.248Z" fill="white"/>
<path opacity="0.2" d="M183.568 49.248H178.904V52.746H183.568V49.248Z" fill="white"/>
<path opacity="0.2" d="M183.568 53.046H178.904V56.544H183.568V53.046Z" fill="white"/>
<path opacity="0.2" d="M193.696 49.248H189.032V52.746H193.696V49.248Z" fill="white"/>
<path opacity="0.2" d="M209.16 53.046H204.232V56.544H209.16V53.046Z" fill="white"/>
<path opacity="0.2" d="M188.632 38.292H183.968V41.352H188.632V38.292Z" fill="white"/>
<path opacity="0.2" d="M203.824 38.292H199.16V41.352H203.824V38.292Z" fill="white"/>
<path opacity="0.2" d="M193.696 38.292H189.032V41.352H193.696V38.292Z" fill="white"/>
<path opacity="0.2" d="M198.76 38.292H194.096V41.352H198.76V38.292Z" fill="white"/>
<path opacity="0.2" d="M188.632 53.046H183.968V56.544H188.632V53.046Z" fill="white"/>
<path opacity="0.2" d="M204.232 60.642V63.702H207.432C207.895 63.7004 208.339 63.5613 208.666 63.3151C208.992 63.0688 209.176 62.7355 209.176 62.388V60.642H204.232Z" fill="white"/>
<path opacity="0.2" d="M203.824 56.844H199.16V60.342H203.824V56.844Z" fill="white"/>
<path opacity="0.2" d="M183.568 38.292H178.904V41.352H183.568V38.292Z" fill="white"/>
<path opacity="0.2" d="M198.76 56.844H194.096V60.342H198.76V56.844Z" fill="white"/>
<path opacity="0.2" d="M193.696 56.844H189.032V60.342H193.696V56.844Z" fill="white"/>
<path opacity="0.2" d="M188.632 56.844H183.968V60.342H188.632V56.844Z" fill="white"/>
<path opacity="0.2" d="M183.568 56.844H178.904V60.342H183.568V56.844Z" fill="white"/>
<path opacity="0.2" d="M183.568 60.642H178.904V63.702H183.568V60.642Z" fill="white"/>
<path opacity="0.2" d="M209.16 56.844H204.232V60.342H209.16V56.844Z" fill="white"/>
<path opacity="0.2" d="M178.504 49.248H173.576V52.746H178.504V49.248Z" fill="white"/>
<path opacity="0.2" d="M178.504 53.046H173.576V56.544H178.504V53.046Z" fill="white"/>
<path opacity="0.2" d="M193.696 60.642H189.032V63.702H193.696V60.642Z" fill="white"/>
<path opacity="0.2" d="M178.504 56.844H173.576V60.342H178.504V56.844Z" fill="white"/>
<path opacity="0.2" d="M188.632 60.642H183.968V63.702H188.632V60.642Z" fill="white"/>
<path opacity="0.2" d="M178.504 41.346V38.292H175.304C174.849 38.3013 174.417 38.4431 174.099 38.6872C173.781 38.9313 173.602 39.2587 173.6 39.6V41.346H178.504Z" fill="white"/>
<path opacity="0.2" d="M178.504 60.642H173.6V62.4C173.6 62.7485 173.785 63.0827 174.113 63.3292C174.442 63.5756 174.887 63.714 175.352 63.714H178.552L178.504 60.642Z" fill="white"/>
<path opacity="0.2" d="M204.232 41.346H209.152V39.6C209.15 39.2536 208.965 38.9218 208.639 38.6768C208.312 38.4319 207.87 38.2936 207.408 38.292H204.208L204.232 41.346Z" fill="white"/>
<path opacity="0.2" d="M198.76 60.642H194.096V63.702H198.76V60.642Z" fill="white"/>
<path opacity="0.2" d="M203.824 60.642H199.16V63.702H203.824V60.642Z" fill="white"/>
<path opacity="0.2" d="M193.696 41.646H189.032V45.144H193.696V41.646Z" fill="white"/>
<path opacity="0.2" d="M183.568 41.646H178.904V45.144H183.568V41.646Z" fill="white"/>
<path opacity="0.2" d="M209.16 45.444H204.232V48.942H209.16V45.444Z" fill="white"/>
<path opacity="0.2" d="M188.632 41.646H183.968V45.144H188.632V41.646Z" fill="white"/>
<path opacity="0.2" d="M198.76 45.444H194.096V48.942H198.76V45.444Z" fill="white"/>
<path opacity="0.2" d="M203.824 45.444H199.16V48.942H203.824V45.444Z" fill="white"/>
<path opacity="0.2" d="M178.504 45.444H173.576V48.942H178.504V45.444Z" fill="white"/>
<path opacity="0.2" d="M178.504 41.646H173.576V45.144H178.504V41.646Z" fill="white"/>
<path opacity="0.2" d="M209.16 41.646H204.232V45.144H209.16V41.646Z" fill="white"/>
<path opacity="0.2" d="M193.696 45.444H189.032V48.942H193.696V45.444Z" fill="white"/>
<path opacity="0.2" d="M198.76 41.646H194.096V45.144H198.76V41.646Z" fill="white"/>
<path opacity="0.2" d="M203.824 41.646H199.16V45.144H203.824V41.646Z" fill="white"/>
<path d="M180.8 50.886C180.8 50.886 185.52 55.086 191.352 55.086C197.184 55.086 201.896 50.886 201.896 50.886C201.896 50.886 197.176 46.686 191.352 46.686C185.528 46.686 180.8 50.886 180.8 50.886Z" stroke="white" stroke-linecap="round" stroke-linejoin="round"/>
<path d="M195.04 50.286C195.042 50.8324 194.827 51.3668 194.423 51.8216C194.019 52.2764 193.445 52.6311 192.772 52.8407C192.099 53.0504 191.359 53.1055 190.644 52.9992C189.929 52.8929 189.273 52.6299 188.758 52.2436C188.243 51.8572 187.892 51.3649 187.75 50.829C187.609 50.293 187.682 49.7376 187.962 49.233C188.241 48.7284 188.714 48.2974 189.32 47.9946C189.927 47.6918 190.639 47.5308 191.368 47.532C192.342 47.532 193.276 47.8221 193.964 48.3386C194.653 48.8551 195.04 49.5556 195.04 50.286Z" stroke="white" stroke-miterlimit="10"/>
<path d="M191.776 49.074C191.774 48.8969 191.843 48.7235 191.973 48.5757C192.103 48.4279 192.289 48.3124 192.506 48.2438C192.724 48.1752 192.964 48.1566 193.196 48.1905C193.427 48.2243 193.64 48.3089 193.808 48.4337C193.975 48.5585 194.09 48.7178 194.136 48.8914C194.183 49.065 194.16 49.245 194.07 49.4087C193.98 49.5724 193.827 49.7124 193.631 49.8109C193.435 49.9094 193.204 49.962 192.968 49.962C192.653 49.962 192.351 49.8687 192.128 49.7023C191.905 49.5359 191.778 49.3101 191.776 49.074Z" stroke="white" stroke-miterlimit="10"/>
<path d="M191.368 46.68V43.86" stroke="white" stroke-linecap="round" stroke-linejoin="round"/>
<path d="M194.64 46.884L195.984 44.592" stroke="white" stroke-linecap="round" stroke-linejoin="round"/>
<path d="M197.784 47.928L199.664 46.254" stroke="white" stroke-linecap="round" stroke-linejoin="round"/>
<path d="M200.304 49.218L202.12 48.312" stroke="white" stroke-linecap="round" stroke-linejoin="round"/>
<path d="M188.088 46.884L186.744 44.592" stroke="white" stroke-linecap="round" stroke-linejoin="round"/>
<path d="M184.944 47.928L183.064 46.254" stroke="white" stroke-linecap="round" stroke-linejoin="round"/>
<path d="M182.424 49.218L180.608 48.312" stroke="white" stroke-linecap="round" stroke-linejoin="round"/>
<path d="M136.992 76.326C136.824 76.3299 136.66 76.3684 136.519 76.4371C136.378 76.5059 136.265 76.6024 136.192 76.716H114.92C114.411 76.7176 113.924 76.8698 113.565 77.1395C113.205 77.4092 113.002 77.7746 113 78.156V94.53C113 94.7528 112.882 94.9664 112.672 95.124C112.462 95.2815 112.177 95.37 111.88 95.37H103.336V95.97H111.88C112.389 95.9684 112.876 95.8162 113.235 95.5465C113.595 95.2768 113.798 94.9114 113.8 94.53V78.156C113.8 77.9332 113.918 77.7196 114.128 77.562C114.338 77.4045 114.623 77.316 114.92 77.316H136.144C136.213 77.4313 136.322 77.5304 136.46 77.6029C136.599 77.6755 136.76 77.7187 136.928 77.7281C137.096 77.7374 137.265 77.7126 137.415 77.6561C137.566 77.5997 137.694 77.5138 137.785 77.4074C137.876 77.3011 137.927 77.1782 137.933 77.0519C137.939 76.9256 137.899 76.8004 137.818 76.6897C137.736 76.5789 137.617 76.4867 137.471 76.4226C137.326 76.3586 137.16 76.3252 136.992 76.326Z" fill="#6750A4"/>
<path opacity="0.4" d="M136.992 76.326C136.824 76.3299 136.66 76.3684 136.519 76.4371C136.378 76.5059 136.265 76.6024 136.192 76.716H114.92C114.411 76.7176 113.924 76.8698 113.565 77.1395C113.205 77.4092 113.002 77.7746 113 78.156V94.53C113 94.7528 112.882 94.9664 112.672 95.124C112.462 95.2815 112.177 95.37 111.88 95.37H103.336V95.97H111.88C112.389 95.9684 112.876 95.8162 113.235 95.5465C113.595 95.2768 113.798 94.9114 113.8 94.53V78.156C113.8 77.9332 113.918 77.7196 114.128 77.562C114.338 77.4045 114.623 77.316 114.92 77.316H136.144C136.213 77.4313 136.322 77.5304 136.46 77.6029C136.599 77.6755 136.76 77.7187 136.928 77.7281C137.096 77.7374 137.265 77.7126 137.415 77.6561C137.566 77.5997 137.694 77.5138 137.785 77.4074C137.876 77.3011 137.927 77.1782 137.933 77.0519C137.939 76.9256 137.899 76.8004 137.818 76.6897C137.736 76.5789 137.617 76.4867 137.471 76.4226C137.326 76.3586 137.16 76.3252 136.992 76.326Z" fill="white"/>
<path d="M101.184 82.026H70.808C69.6195 82.026 68.656 82.7486 68.656 83.64V107.694C68.656 108.585 69.6195 109.308 70.808 109.308H101.184C102.373 109.308 103.336 108.585 103.336 107.694V83.64C103.336 82.7486 102.373 82.026 101.184 82.026Z" fill="#6750A4"/>
<path opacity="0.4" d="M101.184 82.026H70.808C69.6195 82.026 68.656 82.7486 68.656 83.64V107.694C68.656 108.585 69.6195 109.308 70.808 109.308H101.184C102.373 109.308 103.336 108.585 103.336 107.694V83.64C103.336 82.7486 102.373 82.026 101.184 82.026Z" fill="white"/>
<path opacity="0.2" d="M88.3281 97.716H83.6641V101.214H88.3281V97.716Z" fill="white"/>
<path opacity="0.2" d="M93.392 86.322H88.728V89.82H93.392V86.322Z" fill="white"/>
<path opacity="0.2" d="M83.256 101.52H78.592V105.018H83.256V101.52Z" fill="white"/>
<path opacity="0.2" d="M93.392 90.12H88.728V93.618H93.392V90.12Z" fill="white"/>
<path opacity="0.2" d="M93.392 93.918H88.728V97.416H93.392V93.918Z" fill="white"/>
<path opacity="0.2" d="M88.3281 90.12H83.6641V93.618H88.3281V90.12Z" fill="white"/>
<path opacity="0.2" d="M88.3281 82.326H83.6641V86.022H88.3281V82.326Z" fill="white"/>
<path opacity="0.2" d="M83.256 97.716H78.592V101.214H83.256V97.716Z" fill="white"/>
<path opacity="0.2" d="M88.3281 86.322H83.6641V89.82H88.3281V86.322Z" fill="white"/>
<path opacity="0.2" d="M88.3281 101.52H83.6641V105.018H88.3281V101.52Z" fill="white"/>
<path opacity="0.2" d="M93.392 101.52H88.728V105.018H93.392V101.52Z" fill="white"/>
<path opacity="0.2" d="M88.3281 93.918H83.6641V97.416H88.3281V93.918Z" fill="white"/>
<path opacity="0.2" d="M93.392 82.326H88.728V86.022H93.392V82.326Z" fill="white"/>
<path opacity="0.2" d="M73.1359 97.716H69.0559V101.214H73.1359V97.716Z" fill="white"/>
<path opacity="0.2" d="M73.1359 86.322H69.0559V89.82H73.1359V86.322Z" fill="white"/>
<path opacity="0.2" d="M73.1359 93.918H69.0559V97.416H73.1359V93.918Z" fill="white"/>
<path opacity="0.2" d="M73.1359 90.12H69.0559V93.618H73.1359V90.12Z" fill="white"/>
<path opacity="0.2" d="M93.392 97.716H88.728V101.214H93.392V97.716Z" fill="white"/>
<path opacity="0.2" d="M98.856 86.022H102.936V83.622C102.936 83.2735 102.751 82.9393 102.423 82.6929C102.094 82.4464 101.649 82.308 101.184 82.308H98.856V86.022Z" fill="white"/>
<path opacity="0.2" d="M98.456 86.322H93.792V89.82H98.456V86.322Z" fill="white"/>
<path opacity="0.2" d="M73.1359 101.52H69.0559V105.018H73.1359V101.52Z" fill="white"/>
<path opacity="0.2" d="M98.456 90.12H93.792V93.618H98.456V90.12Z" fill="white"/>
<path opacity="0.2" d="M98.456 93.918H93.792V97.416H98.456V93.918Z" fill="white"/>
<path opacity="0.2" d="M98.456 97.716H93.792V101.214H98.456V97.716Z" fill="white"/>
<path opacity="0.2" d="M98.456 101.52H93.792V105.018H98.456V101.52Z" fill="white"/>
<path opacity="0.2" d="M102.936 101.52H98.856V105.018H102.936V101.52Z" fill="white"/>
<path opacity="0.2" d="M98.456 82.326H93.792V86.022H98.456V82.326Z" fill="white"/>
<path opacity="0.2" d="M88.3281 105.318H83.6641V109.014H88.3281V105.318Z" fill="white"/>
<path opacity="0.2" d="M93.392 105.318H88.728V109.014H93.392V105.318Z" fill="white"/>
<path opacity="0.2" d="M102.936 93.918H98.856V97.416H102.936V93.918Z" fill="white"/>
<path opacity="0.2" d="M98.456 105.318H93.792V109.014H98.456V105.318Z" fill="white"/>
<path opacity="0.2" d="M102.936 97.716H98.856V101.214H102.936V97.716Z" fill="white"/>
<path opacity="0.2" d="M73.1279 105.318H69.0559V107.718C69.058 108.064 69.2424 108.396 69.569 108.641C69.8956 108.886 70.338 109.024 70.7999 109.026H73.1279V105.318Z" fill="white"/>
<path opacity="0.2" d="M98.856 105.318V109.008H101.184C101.647 109.008 102.092 108.87 102.42 108.625C102.748 108.38 102.934 108.047 102.936 107.7V105.3L98.856 105.318Z" fill="white"/>
<path opacity="0.2" d="M73.1279 86.022V82.326H70.7999C70.3366 82.3276 69.8931 82.4667 69.5662 82.713C69.2394 82.9592 69.0559 83.2925 69.0559 83.64V86.04L73.1279 86.022Z" fill="white"/>
<path opacity="0.2" d="M102.936 90.12H98.856V93.618H102.936V90.12Z" fill="white"/>
<path opacity="0.2" d="M102.936 86.322H98.856V89.82H102.936V86.322Z" fill="white"/>
<path opacity="0.2" d="M78.1921 93.918H73.5281V97.416H78.1921V93.918Z" fill="white"/>
<path opacity="0.2" d="M78.1921 101.52H73.5281V105.018H78.1921V101.52Z" fill="white"/>
<path opacity="0.2" d="M83.256 82.326H78.592V86.022H83.256V82.326Z" fill="white"/>
<path opacity="0.2" d="M78.1921 97.716H73.5281V101.214H78.1921V97.716Z" fill="white"/>
<path opacity="0.2" d="M83.256 90.12H78.592V93.618H83.256V90.12Z" fill="white"/>
<path opacity="0.2" d="M83.256 86.322H78.592V89.82H83.256V86.322Z" fill="white"/>
<path opacity="0.2" d="M83.256 105.318H78.592V109.014H83.256V105.318Z" fill="white"/>
<path opacity="0.2" d="M78.1921 105.318H73.5281V109.014H78.1921V105.318Z" fill="white"/>
<path opacity="0.2" d="M78.1921 82.326H73.5281V86.022H78.1921V82.326Z" fill="white"/>
<path opacity="0.2" d="M83.256 93.918H78.592V97.416H83.256V93.918Z" fill="white"/>
<path opacity="0.2" d="M78.1921 90.12H73.5281V93.618H78.1921V90.12Z" fill="white"/>
<path opacity="0.2" d="M78.1921 86.322H73.5281V89.82H78.1921V86.322Z" fill="white"/>
<path d="M85.992 104.748C83.7471 104.746 81.5947 104.077 80.0066 102.887C78.4185 101.697 77.5243 100.084 77.52 98.4V92.94C77.52 91.2548 78.4126 89.6387 80.0014 88.447C81.5902 87.2554 83.7451 86.586 85.992 86.586C88.2389 86.586 90.3938 87.2554 91.9826 88.447C93.5714 89.6387 94.464 91.2548 94.464 92.94V98.4C94.4598 100.084 93.5656 101.697 91.9775 102.887C90.3893 104.077 88.2369 104.746 85.992 104.748ZM85.992 87.192C83.9593 87.1936 82.0103 87.7995 80.5723 88.8769C79.1342 89.9544 78.3243 91.4155 78.32 92.94V98.4C78.32 99.9261 79.1283 101.39 80.5671 102.469C82.0059 103.548 83.9573 104.154 85.992 104.154C88.0268 104.154 89.9782 103.548 91.4169 102.469C92.8557 101.39 93.664 99.9261 93.664 98.4V92.94C93.6598 91.4155 92.8499 89.9544 91.4118 88.8769C89.9737 87.7995 88.0247 87.1936 85.992 87.192Z" fill="white"/>
<path d="M89.8159 94.926C90.3108 94.926 90.7119 94.5177 90.7119 94.014C90.7119 93.5103 90.3108 93.102 89.8159 93.102C89.3211 93.102 88.9199 93.5103 88.9199 94.014C88.9199 94.5177 89.3211 94.926 89.8159 94.926Z" fill="white"/>
<path d="M83.064 94.014C83.064 94.512 82.664 94.92 82.168 94.92C81.672 94.92 81.272 94.512 81.272 94.014C81.272 93.516 81.672 93.102 82.168 93.102C82.664 93.102 83.064 93.51 83.064 94.014Z" fill="white"/>
<path d="M86.0401 94.92L84.3521 98.166H86.0401V94.92Z" fill="white"/>
<path d="M85.688 100.416C84.925 100.446 84.162 100.356 83.448 100.152L83.792 99.612C83.792 99.612 85.224 100.086 88.28 99.612L88.448 100.212C87.5402 100.353 86.615 100.421 85.688 100.416Z" fill="white"/>
<path d="M318.384 42.174H231.224C228.957 42.174 227.12 43.5521 227.12 45.252V110.622C227.12 112.322 228.957 113.7 231.224 113.7H318.384C320.65 113.7 322.488 112.322 322.488 110.622V45.252C322.488 43.5521 320.65 42.174 318.384 42.174Z" fill="#6750A4"/>
<path opacity="0.5" d="M308.52 86.262H241.088C239.042 86.262 237.384 87.5058 237.384 89.04V98.292C237.384 99.8263 239.042 101.07 241.088 101.07H308.52C310.566 101.07 312.224 99.8263 312.224 98.292V89.04C312.224 87.5058 310.566 86.262 308.52 86.262Z" fill="white"/>
<path d="M250.76 93.672L252.944 94.56L252 95.79L249.752 94.8L249.792 96.6H247.912V94.764L245.704 95.754L244.8 94.56L246.984 93.672L244.8 92.772L245.76 91.536L247.968 92.532V90.696H249.848L249.808 92.532L252.016 91.536L253 92.772L250.76 93.672Z" fill="white"/>
<path d="M263.728 93.672L265.912 94.56L264.936 95.79L262.728 94.8V96.6H260.848V94.764L258.648 95.754L257.68 94.524L259.864 93.636L257.68 92.736L258.648 91.5L260.848 92.496V90.66H262.728V92.496L264.936 91.5L265.912 92.736L263.728 93.672Z" fill="white"/>
<path d="M276.704 93.672L278.888 94.56L277.904 95.79L275.704 94.8L275.744 96.6H273.856V94.764L271.648 95.754L270.688 94.524L272.872 93.636L270.688 92.736L271.648 91.5L273.856 92.496V90.66H275.744L275.704 92.496L277.904 91.5L278.888 92.736L276.704 93.672Z" fill="white"/>
<path d="M289.68 93.672L291.864 94.56L290.88 95.79L288.672 94.8L288.712 96.6H286.832V94.764L284.632 95.754L283.672 94.524L285.856 93.636L283.672 92.736L284.632 91.5L286.832 92.496V90.66H288.712L288.672 92.496L290.88 91.5L291.864 92.736L289.68 93.672Z" fill="white"/>
<path d="M302.648 93.672L304.8 94.56L303.824 95.79L301.648 94.8L301.688 96.6H299.808V94.764L297.6 95.79L296.632 94.56L298.816 93.672L296.632 92.772L297.6 91.536L299.8 92.532V90.696H301.68L301.64 92.532L303.848 91.536L304.824 92.772L302.648 93.672Z" fill="white"/>
<path opacity="0.5" d="M289.92 75.6465C298.271 69.3833 298.271 59.2285 289.92 52.9653C281.569 46.7021 268.029 46.7021 259.678 52.9653C251.327 59.2286 251.327 69.3833 259.678 75.6465C268.029 81.9097 281.569 81.9097 289.92 75.6465Z" fill="white"/>
<path d="M283.2 63.408H266.48C266.178 63.4072 265.879 63.4512 265.6 63.5375C265.321 63.6238 265.067 63.7506 264.854 63.9106C264.641 64.0707 264.471 64.2608 264.356 64.4701C264.241 64.6794 264.183 64.9037 264.184 65.13V72.768C264.184 73.2247 264.426 73.6627 264.856 73.9857C265.287 74.3086 265.871 74.49 266.48 74.49H283.2C283.809 74.49 284.393 74.3086 284.823 73.9857C285.254 73.6627 285.496 73.2247 285.496 72.768V65.13C285.497 64.9037 285.438 64.6794 285.323 64.4701C285.208 64.2608 285.039 64.0707 284.826 63.9106C284.612 63.7506 284.359 63.6238 284.08 63.5375C283.801 63.4512 283.502 63.4072 283.2 63.408ZM276.376 71.91H273.304L273.944 68.784C273.532 68.6322 273.201 68.3803 273.004 68.0693C272.807 67.7583 272.757 67.4065 272.861 67.0712C272.964 66.7359 273.217 66.4369 273.576 66.2228C273.935 66.0087 274.381 65.8922 274.84 65.8922C275.299 65.8922 275.744 66.0087 276.104 66.2228C276.463 66.4369 276.715 66.7359 276.819 67.0712C276.923 67.4065 276.872 67.7583 276.676 68.0693C276.479 68.3803 276.148 68.6322 275.736 68.784L276.376 71.91Z" fill="#6750A4"/>
<path d="M269.984 62.184L269.672 60.984C269.404 59.9791 269.678 58.9354 270.436 58.0825C271.194 57.2296 272.372 56.6373 273.712 56.436C275.052 56.2347 276.443 56.4409 277.581 57.0091C278.718 57.5773 279.508 58.4611 279.776 59.466L280.088 60.636L283.04 60.192L282.72 58.992C282.528 58.1911 282.125 57.4268 281.535 56.7441C280.944 56.0613 280.178 55.4737 279.281 55.0157C278.384 54.5577 277.375 54.2384 276.311 54.0766C275.248 53.9147 274.152 53.9136 273.088 54.0732C272.024 54.2328 271.013 54.5499 270.115 55.0061C269.216 55.4622 268.448 56.0482 267.855 56.7297C267.262 57.4112 266.856 58.1745 266.661 58.9751C266.466 59.7756 266.486 60.5973 266.72 61.392L267.032 62.592L269.984 62.184Z" fill="#6750A4"/>
<path opacity="0.2" d="M286.72 106.404H262.88C262.6 106.404 262.331 106.321 262.133 106.172C261.935 106.023 261.824 105.822 261.824 105.612C261.826 105.403 261.938 105.203 262.136 105.056C262.334 104.909 262.601 104.826 262.88 104.826H286.72C286.999 104.826 287.266 104.909 287.464 105.056C287.662 105.203 287.774 105.403 287.776 105.612C287.776 105.822 287.665 106.023 287.467 106.172C287.269 106.321 287 106.404 286.72 106.404Z" fill="black"/>
<path d="M207.752 106.074L215.944 100.854C215.944 100.854 222.92 95.31 224.392 95.19C225.864 95.07 229.04 95.544 229.88 96.336C230.72 97.128 224.424 102.276 222.944 103.224C221.464 104.172 218.512 104.016 218.512 104.016L210.704 109.674L207.752 106.074Z" fill="#EBB376"/>
<path d="M144.552 245.466H136.632C136.504 245.469 136.38 245.503 136.28 245.564C136.18 245.624 136.11 245.708 136.08 245.802L134.792 250.158C134.74 250.346 134.789 250.541 134.928 250.702C135.068 250.863 135.286 250.976 135.536 251.016H135.744C138.304 250.986 140.176 250.866 143.392 250.866C145.376 250.866 151.352 251.022 154.088 251.022C156.824 251.022 157.184 248.994 156.064 248.808C151.04 247.986 147.264 246.852 145.664 245.766C145.358 245.563 144.96 245.456 144.552 245.466Z" fill="#263238"/>
<path d="M178.136 245.316H170.216C170.087 245.317 169.962 245.35 169.861 245.411C169.761 245.472 169.691 245.557 169.664 245.652L168.376 250.002C168.324 250.19 168.373 250.385 168.512 250.546C168.652 250.707 168.87 250.82 169.12 250.86H169.328C171.896 250.83 173.76 250.71 176.976 250.71C178.96 250.71 184.936 250.866 187.672 250.866C190.408 250.866 190.768 248.838 189.648 248.652C184.624 247.83 180.848 246.696 179.248 245.61C178.941 245.409 178.543 245.304 178.136 245.316Z" fill="#263238"/>
<path d="M140.352 135.372H174.952C178.24 148.842 187.648 203.37 180.264 245.85L168.712 246.798C168.712 246.798 170.52 181.518 160.184 160.668C158.992 171.828 157.576 183.696 156.352 190.014C153.344 205.566 146.56 246.084 146.56 246.084L134.848 246.324C134.848 246.324 137.416 207.018 138.536 191.724C139.776 175.146 140.304 138.774 140.352 135.372Z" fill="#263238"/>
<path opacity="0.2" d="M140.352 135.372H174.952C178.24 148.842 187.648 203.37 180.264 245.85L168.712 246.798C168.712 246.798 170.52 181.518 160.184 160.668C158.992 171.828 157.576 183.696 156.352 190.014C153.344 205.566 146.56 246.084 146.56 246.084L134.848 246.324C134.848 246.324 137.416 207.018 138.536 191.724C139.776 175.146 140.304 138.774 140.352 135.372Z" fill="white"/>
<path opacity="0.2" d="M160.184 160.668C161.886 164.323 163.179 168.078 164.048 171.894C165.016 161.964 161.144 151.434 161.144 151.434L160.184 160.668Z" fill="black"/>
<path d="M171.792 90.474C177.256 90.972 188.016 109.602 192.128 111.264C196.24 112.926 212.544 102.48 212.544 102.48L216.656 106.278C216.656 106.278 198.144 121.116 190.864 119.478C183.584 117.84 173.264 103.812 170.136 99.42C167.008 95.028 171.792 90.474 171.792 90.474Z" fill="#6750A4"/>
<path opacity="0.5" d="M216.656 106.278C216.656 106.278 198.144 121.11 190.864 119.478C187.664 118.752 183.936 115.674 180.464 112.074C176.68 108.022 173.233 103.798 170.144 99.426C169.469 98.4248 169.103 97.3227 169.073 96.2011C169.042 95.0795 169.348 93.9671 169.968 92.946C170.435 92.0742 171.051 91.2514 171.8 90.498C177.264 90.996 188.024 109.632 192.136 111.294C196.248 112.956 212.552 102.51 212.552 102.51L216.656 106.278Z" fill="white"/>
<path opacity="0.2" d="M180.456 112.044C176.672 107.992 173.225 103.768 170.136 99.396C169.461 98.3948 169.095 97.2926 169.065 96.171C169.034 95.0494 169.34 93.937 169.96 92.916C173.072 95.79 179.4 102.69 180.456 112.044Z" fill="black"/>
<path d="M171.792 90.474C171.792 90.474 149.784 89.694 133.392 92.796C133.392 92.796 139.536 128.502 139.264 144.054L178.464 142.47C178.464 142.47 177.512 106.518 171.792 90.474Z" fill="#6750A4"/>
<path opacity="0.6" d="M139.264 144.054C139.392 136.824 138.128 125.238 136.744 114.906C136.216 110.964 135.672 107.202 135.144 103.938C134.144 97.368 133.36 92.802 133.36 92.802C149.752 89.7 171.76 90.48 171.76 90.48C177.48 106.524 178.472 142.476 178.472 142.476L139.264 144.054Z" fill="white"/>
<path opacity="0.2" d="M136.744 114.9C136.216 110.958 135.672 107.196 135.144 103.932L137.664 102.48C137.664 102.48 139.888 108.984 136.744 114.9Z" fill="black"/>
<path opacity="0.2" d="M171.504 129L169.352 129.078L163.512 129.282L159.928 129.408L152.464 129.672C152.464 129.672 152.464 129.396 152.424 128.892C152.36 127.806 152.232 125.658 152.016 122.952C151.864 120.936 151.656 118.608 151.4 116.172C151.216 114.492 151.016 112.764 150.784 111.054C150.44 108.516 150.04 106.008 149.568 103.752C149.32 102.552 149.048 101.406 148.768 100.374L167.336 99.468C167.336 99.468 167.576 100.35 167.936 101.868C168.176 102.864 168.464 104.136 168.776 105.624C170.45 113.355 171.362 121.168 171.504 129Z" fill="black"/>
<path opacity="0.2" d="M163.512 129.294L159.928 129.42C162.48 124.554 163.48 117.696 161.768 115.56C159.448 112.668 156.6 118.212 154.568 124.86C154.187 126.295 153.454 127.664 152.408 128.898C152.344 127.812 152.216 125.664 152 122.958C153.145 121.533 154.01 119.991 154.568 118.38C157.424 110.862 159.96 109.518 163.224 111.492C166.232 113.298 167.112 122.058 163.512 129.294Z" fill="black"/>
<path opacity="0.2" d="M169.352 129.09C170.08 122.712 168.96 111.966 166.464 108.66C163.608 104.868 157.304 104.784 154.272 111.66C153.607 113.265 152.64 114.79 151.4 116.19C151.216 114.51 151.016 112.782 150.784 111.072C151.637 110.271 152.4 109.418 153.064 108.522C156.52 103.932 161.864 101.796 167.144 104.466C167.761 104.798 168.302 105.203 168.744 105.666C170.426 113.383 171.348 121.182 171.504 129L169.352 129.09Z" fill="black"/>
<path opacity="0.2" d="M167.928 101.892C163.776 99.54 158.168 100.176 154.584 102.402C153.215 103.331 151.412 103.816 149.568 103.752C149.32 102.552 149.048 101.406 148.768 100.374L167.336 99.468C167.336 99.468 167.568 100.35 167.928 101.892Z" fill="black"/>
<path d="M146.24 91.56C149.4 93.714 157.144 92.916 157.144 92.916C157.144 92.916 161.944 91.926 160.96 90.792C158.112 90.438 156.736 89.442 156.16 88.17C155.844 87.3792 155.746 86.5482 155.872 85.728C155.917 85.2709 155.997 84.8162 156.112 84.366L146.512 79.05C147.8 82.56 149.336 89.016 146.24 91.56Z" fill="#EBB376"/>
<path opacity="0.2" d="M148.752 82.428C149.136 86.736 153.856 87.924 156.168 88.17C155.852 87.3792 155.754 86.5483 155.88 85.728L148.752 82.428Z" fill="black"/>
<path d="M162.744 67.89C162.744 67.89 165.416 74.37 161.232 77.448C157.048 80.526 154.584 68.184 154.584 68.184L162.744 67.89Z" fill="#263238"/>
<path d="M148.664 84.246C149.865 85.228 151.463 85.8867 153.212 86.1209C154.961 86.3551 156.764 86.1517 158.344 85.542C160.41 84.7854 162.013 83.4654 162.824 81.852C162.938 81.6279 163.037 81.3996 163.12 81.168C164.616 76.86 163.92 69.69 157.688 67.674C156.312 67.2251 154.805 67.0477 153.311 67.1587C151.818 67.2697 150.386 67.6654 149.154 68.3082C147.922 68.951 146.929 69.8195 146.271 70.8311C145.612 71.8428 145.31 72.9639 145.392 74.088C145.64 78.9 145.48 81.744 148.664 84.246Z" fill="#EBB376"/>
<path d="M155.104 75.6C155.056 75.984 155.36 76.314 155.704 76.314C156.048 76.314 156.328 76.002 156.344 75.612C156.36 75.222 156.08 74.898 155.744 74.898C155.408 74.898 155.12 75.186 155.104 75.6Z" fill="#263238"/>
<path d="M161.016 75.672C160.968 76.056 161.28 76.386 161.616 76.386C161.952 76.386 162.24 76.074 162.256 75.684C162.272 75.294 161.992 74.97 161.656 74.97C161.32 74.97 161.032 75.3 161.016 75.672Z" fill="#263238"/>
<path d="M159.136 75.834C159.721 77.0445 160.529 78.1876 161.536 79.23C161.17 79.4165 160.754 79.5411 160.318 79.5949C159.881 79.6488 159.434 79.6308 159.008 79.5421L159.136 75.834Z" fill="#D58745"/>
<path d="M153.304 74.118C153.36 74.125 153.418 74.1209 153.471 74.1061C153.524 74.0914 153.571 74.0666 153.608 74.034C153.839 73.8027 154.138 73.6149 154.483 73.4858C154.827 73.3566 155.207 73.2896 155.592 73.29C155.674 73.2951 155.754 73.2759 155.817 73.2366C155.88 73.1973 155.92 73.1411 155.928 73.08C155.931 73.0501 155.927 73.0199 155.914 72.9913C155.902 72.9627 155.882 72.9362 155.856 72.9133C155.83 72.8905 155.798 72.8717 155.763 72.8581C155.727 72.8445 155.688 72.8363 155.648 72.834C155.161 72.8231 154.678 72.9002 154.239 73.059C153.801 73.2177 153.42 73.4534 153.128 73.746C153.078 73.7924 153.054 73.8517 153.061 73.9112C153.069 73.9706 153.107 74.0255 153.168 74.064C153.21 74.0861 153.256 74.1042 153.304 74.118Z" fill="#263238"/>
<path d="M163.6 74.178C163.657 74.1926 163.719 74.1926 163.776 74.178C163.813 74.1662 163.846 74.1491 163.874 74.1277C163.902 74.1062 163.924 74.0808 163.939 74.0529C163.954 74.0251 163.962 73.9953 163.961 73.9652C163.96 73.9352 163.952 73.9056 163.936 73.878C163.741 73.5418 163.44 73.2458 163.06 73.015C162.68 72.7842 162.231 72.6254 161.752 72.552C161.673 72.5434 161.592 72.5588 161.527 72.5948C161.463 72.6308 161.42 72.6844 161.408 72.744C161.399 72.8034 161.42 72.8632 161.468 72.9112C161.515 72.9592 161.586 72.9917 161.664 73.002C162.041 73.0682 162.391 73.1999 162.687 73.3865C162.983 73.5731 163.216 73.8093 163.368 74.076C163.395 74.1043 163.43 74.1281 163.47 74.1457C163.51 74.1632 163.554 74.1743 163.6 74.178Z" fill="#263238"/>
<path d="M150.264 68.148L150.688 70.26C150.217 70.442 149.854 70.7504 149.671 71.1239C149.489 71.4974 149.501 71.9087 149.704 72.276C150.68 74.076 149.432 76.842 147.648 77.982C147.648 77.982 147.56 77.214 146.696 77.412C145.832 77.61 146.216 81.612 147.992 83.526C145.736 81.7771 144.123 79.6186 143.312 77.262C141.832 73.38 141.984 70.5 143 68.964L150.264 68.148Z" fill="#263238"/>
<path d="M159.496 80.718C159.228 81.2753 159.017 81.8469 158.864 82.428C158.726 82.434 158.587 82.434 158.448 82.428C156.56 82.368 155.712 81.87 155.344 81.336C155.174 81.0726 155.089 80.7827 155.096 80.49C155.094 80.3237 155.124 80.158 155.184 79.998C156.323 80.4284 157.573 80.6679 158.848 80.7C159.248 80.718 159.496 80.718 159.496 80.718Z" fill="#263238"/>
<path d="M158.848 80.688L158.648 81.192C156.872 81.126 155.632 80.904 155.096 80.478C155.094 80.3117 155.124 80.1461 155.184 79.986C156.323 80.4164 157.573 80.6559 158.848 80.688Z" fill="white"/>
<path d="M158.448 82.416C156.56 82.356 155.712 81.858 155.344 81.324C156.062 81.359 156.766 81.489 157.424 81.708C157.857 81.8564 158.216 82.1044 158.448 82.416Z" fill="#DE5753"/>
<path d="M154.496 69.462C154.702 69.2519 154.999 69.1018 155.336 69.0372C155.673 68.9727 156.029 68.9977 156.344 69.108C157.696 69.402 158.888 70.422 160.28 71.718C161.672 73.014 164.424 73.02 165.08 72.252C165.736 71.484 164.448 70.41 164.448 70.41C164.448 70.41 165.632 65.484 158.472 64.356C151.312 63.228 147.544 65.604 147.544 65.604C147.544 65.604 141.6 65.754 141.144 69.876C140.989 71.55 141.124 73.2319 141.544 74.88C141.544 74.88 139.944 76.386 142.952 76.296C146.368 76.194 150.472 74.802 150.672 72.312C150.872 69.822 154.496 69.462 154.496 69.462Z" fill="#263238"/>
<path d="M142.48 78C143.165 79.0997 144.401 79.9516 145.92 80.37C147.936 80.91 149.12 79.584 148.672 78.096C148.272 76.77 146.76 74.856 144.672 74.97C142.584 75.084 141.664 76.632 142.48 78Z" fill="#EBB376"/>
<path d="M133.392 92.796C127.656 94.05 119.64 123.324 120.696 127.122C121.752 130.92 141.896 146.922 141.896 146.922L147.496 143.736C147.496 143.736 130.376 125.556 130.168 121.758C129.96 117.96 137.76 103.878 137.76 103.878C137.76 103.878 137.552 99.132 136.704 96.756C136.109 95.2319 134.963 93.8613 133.392 92.796Z" fill="#6750A4"/>
<path opacity="0.5" d="M133.392 92.796C127.656 94.05 119.64 123.324 120.696 127.122C121.752 130.92 141.896 146.922 141.896 146.922L147.496 143.736C147.496 143.736 130.376 125.556 130.168 121.758C129.96 117.96 137.76 103.878 137.76 103.878C137.76 103.878 137.552 99.132 136.704 96.756C136.109 95.2319 134.963 93.8613 133.392 92.796Z" fill="white"/>
</g>
<defs>
<clipPath id="clip0_2_1832">
<rect width="400" height="300" fill="white"/>
</clipPath>
</defs>
</svg>
