<svg width="41" height="56" viewBox="0 0 41 56" fill="none" xmlns="http://www.w3.org/2000/svg">
<path d="M27.2236 32.8071C29.2158 33.6486 31.0103 34.8213 32.6069 36.3252C34.2036 37.8291 35.5659 39.5837 36.6938 41.5889C37.8218 43.5941 38.686 45.7694 39.2866 48.1147C39.8872 50.4601 40.1875 52.9219 40.1875 55.5H37.375C37.375 52.5638 36.9502 49.8424 36.1006 47.3359C35.251 44.8294 34.0645 42.6452 32.541 40.7832C31.0176 38.9212 29.2378 37.48 27.2017 36.4595C25.1655 35.439 22.9316 34.9108 20.5 34.875C18.9326 34.875 17.4238 35.1167 15.9736 35.6001C14.5234 36.0835 13.1758 36.7638 11.9307 37.6411C10.6855 38.5184 9.55029 39.5837 8.5249 40.8369C7.49951 42.0902 6.62793 43.4777 5.91016 44.9995C5.19238 46.5213 4.62842 48.1774 4.21826 49.9678C3.80811 51.7581 3.61035 53.6022 3.625 55.5H0.8125C0.8125 52.9219 1.12012 50.4601 1.73535 48.1147C2.35059 45.7694 3.22217 43.603 4.3501 41.6157C5.47803 39.6284 6.84033 37.8918 8.43701 36.4058C10.0337 34.9198 11.8281 33.7292 13.8203 32.834C12.6777 32.082 11.6523 31.1689 10.7441 30.0947C9.83594 29.0205 9.06689 27.8299 8.43701 26.5229C7.80713 25.216 7.31641 23.8105 6.96484 22.3066C6.61328 20.8027 6.4375 19.263 6.4375 17.6875C6.4375 15.3063 6.80371 13.0773 7.53613 11.0005C8.26855 8.92367 9.27197 7.09749 10.5464 5.52197C11.8208 3.94645 13.3076 2.72005 15.0068 1.84277C16.7061 0.965495 18.5371 0.517904 20.5 0.5C22.4482 0.5 24.272 0.947591 25.9712 1.84277C27.6704 2.73796 29.1646 3.96436 30.4536 5.52197C31.7427 7.07959 32.7461 8.89681 33.4639 10.9736C34.1816 13.0505 34.5479 15.2884 34.5625 17.6875C34.5625 19.263 34.394 20.7938 34.0571 22.2798C33.7202 23.7658 33.2295 25.1623 32.585 26.4692C31.9404 27.7762 31.1714 28.9668 30.2778 30.041C29.3843 31.1152 28.3662 32.0373 27.2236 32.8071ZM9.25 17.6875C9.25 19.5853 9.54297 21.3667 10.1289 23.0317C10.7148 24.6968 11.5205 26.147 12.5459 27.3823C13.5713 28.6177 14.7651 29.6024 16.1274 30.3364C17.4897 31.0705 18.9473 31.4375 20.5 31.4375C22.0527 31.4375 23.5103 31.0794 24.8726 30.3633C26.2349 29.6471 27.4214 28.6624 28.4321 27.4092C29.4429 26.1559 30.2485 24.6968 30.8491 23.0317C31.4497 21.3667 31.75 19.5853 31.75 17.6875C31.75 15.7897 31.457 14.0083 30.8711 12.3433C30.2852 10.6782 29.4795 9.22803 28.4541 7.99268C27.4287 6.75732 26.2349 5.77262 24.8726 5.03857C23.5103 4.30452 22.0527 3.9375 20.5 3.9375C18.9473 3.9375 17.4897 4.29557 16.1274 5.01172C14.7651 5.72786 13.5786 6.71257 12.5679 7.96582C11.5571 9.21908 10.7515 10.6782 10.1509 12.3433C9.55029 14.0083 9.25 15.7897 9.25 17.6875Z" fill="black" stroke="black"/>
</svg>
