<svg width="30" height="30" viewBox="0 0 30 30" fill="none" xmlns="http://www.w3.org/2000/svg">
<path d="M13.2969 28.9227L1.01191 16.3242C0.825769 16.1333 0.693611 15.9266 0.615433 15.7038C0.537256 15.4811 0.498788 15.2425 0.500029 14.988C0.500029 14.7335 0.539118 14.4949 0.617296 14.2722C0.695473 14.0495 0.827009 13.8427 1.01191 13.6518L13.2969 1.05331C13.6382 0.703347 14.0651 0.520732 14.5775 0.505461C15.09 0.490191 15.5318 0.672805 15.9028 1.05331C16.2751 1.40326 16.4693 1.84103 16.4854 2.36661C16.5016 2.89218 16.3229 3.34522 15.9494 3.72572L6.82868 13.0792H27.6295C28.1568 13.0792 28.5992 13.2624 28.9566 13.6289C29.314 13.9954 29.4921 14.4485 29.4908 14.988C29.4908 15.5289 29.3127 15.9825 28.9566 16.349C28.6005 16.7155 28.1581 16.8982 27.6295 16.8969H6.82868L15.9494 26.2503C16.2906 26.6003 16.4693 27.0457 16.4854 27.5865C16.5016 28.1274 16.3229 28.5728 15.9494 28.9227C15.6081 29.3045 15.1738 29.4954 14.6464 29.4954C14.119 29.4954 13.6692 29.3045 13.2969 28.9227Z" fill="black"/>
</svg>
