<svg width="28" height="29" viewBox="0 0 28 29" fill="none" xmlns="http://www.w3.org/2000/svg">
<path d="M12.3596 27.9469L0.49441 15.779C0.314635 15.5946 0.186994 15.3949 0.111488 15.1798C0.0359827 14.9647 -0.00117041 14.7343 2.80901e-05 14.4884C2.80901e-05 14.2426 0.0377812 14.0122 0.113287 13.7971C0.188792 13.582 0.315833 13.3823 0.49441 13.1979L12.3596 1.02997C12.6892 0.691976 13.1014 0.515603 13.5964 0.500854C14.0914 0.486105 14.5181 0.662478 14.8764 1.02997C15.236 1.36797 15.4235 1.79078 15.4391 2.29839C15.4547 2.806 15.2821 3.24355 14.9214 3.61105L6.11238 12.6448H26.2022C26.7116 12.6448 27.1389 12.8218 27.484 13.1758C27.8292 13.5298 28.0012 13.9673 28 14.4884C28 15.0108 27.828 15.449 27.484 15.8029C27.1401 16.1569 26.7128 16.3333 26.2022 16.3321H6.11238L14.9214 25.3658C15.2509 25.7038 15.4235 26.134 15.4391 26.6564C15.4547 27.1787 15.2821 27.6089 14.9214 27.9469C14.5918 28.3156 14.1723 28.5 13.6629 28.5C13.1536 28.5 12.7191 28.3156 12.3596 27.9469Z" fill="black"/>
</svg>
