<svg width="28" height="26" viewBox="0 0 28 26" fill="none" xmlns="http://www.w3.org/2000/svg">
<path d="M5.09091 0H28V19.5H5.09091V0ZM16.5455 4.875C17.5581 4.875 18.5293 5.38861 19.2453 6.30285C19.9614 7.21709 20.3636 8.45707 20.3636 9.75C20.3636 11.0429 19.9614 12.2829 19.2453 13.1971C18.5293 14.1114 17.5581 14.625 16.5455 14.625C15.5328 14.625 14.5616 14.1114 13.8456 13.1971C13.1295 12.2829 12.7273 11.0429 12.7273 9.75C12.7273 8.45707 13.1295 7.21709 13.8456 6.30285C14.5616 5.38861 15.5328 4.875 16.5455 4.875ZM10.1818 3.25C10.1818 4.11195 9.91364 4.9386 9.43627 5.5481C8.95891 6.15759 8.31146 6.5 7.63636 6.5V13C8.31146 13 8.95891 13.3424 9.43627 13.9519C9.91364 14.5614 10.1818 15.388 10.1818 16.25H22.9091C22.9091 15.388 23.1773 14.5614 23.6546 13.9519C24.132 13.3424 24.7794 13 25.4545 13V6.5C24.7794 6.5 24.132 6.15759 23.6546 5.5481C23.1773 4.9386 22.9091 4.11195 22.9091 3.25H10.1818ZM0 6.5H2.54545V22.75H22.9091V26H0V6.5Z" fill="#381E72"/>
</svg>
