<svg width="70" height="71" viewBox="0 0 70 71" fill="none" xmlns="http://www.w3.org/2000/svg">
<rect y="0.44281" width="70" height="70" rx="35" fill="#6750A4"/>
<path d="M27.0111 55.4428C25.9101 55.4428 24.9672 55.0508 24.1825 54.2668C23.3978 53.4828 23.0061 52.5415 23.0074 51.4428C23.0074 50.3428 23.3998 49.4008 24.1845 48.6168C24.9692 47.8328 25.9114 47.4415 27.0111 47.4428C28.1121 47.4428 29.055 47.8348 29.8397 48.6188C30.6244 49.4028 31.0161 50.3441 31.0148 51.4428C31.0148 52.5428 30.6224 53.4848 29.8377 54.2688C29.053 55.0528 28.1108 55.4441 27.0111 55.4428ZM47.0296 55.4428C45.9286 55.4428 44.9857 55.0508 44.201 54.2668C43.4163 53.4828 43.0246 52.5415 43.0259 51.4428C43.0259 50.3428 43.4183 49.4008 44.203 48.6168C44.9877 47.8328 45.9299 47.4415 47.0296 47.4428C48.1306 47.4428 49.0735 47.8348 49.8582 48.6188C50.6429 49.4028 51.0346 50.3441 51.0333 51.4428C51.0333 52.5428 50.6409 53.4848 49.8562 54.2688C49.0715 55.0528 48.1293 55.4441 47.0296 55.4428ZM25.3095 23.4428L30.114 33.4428H44.1269L49.632 23.4428H25.3095ZM23.4078 19.4428H52.935C53.7024 19.4428 54.2863 19.7848 54.6867 20.4688C55.087 21.1528 55.1037 21.8441 54.7367 22.5428L47.6301 35.3428C47.2631 36.0095 46.7707 36.5261 46.1528 36.8928C45.5349 37.2595 44.8596 37.4428 44.1269 37.4428H29.2131L27.0111 41.4428H51.0333V45.4428H27.0111C25.5097 45.4428 24.3753 44.7841 23.608 43.4668C22.8406 42.1495 22.8072 40.8415 23.5079 39.5428L26.2104 34.6428L19.0037 19.4428H15V15.4428H21.506L23.4078 19.4428Z" fill="white"/>
</svg>
