<svg width="45" height="50" viewBox="0 0 45 50" fill="none" xmlns="http://www.w3.org/2000/svg">
<path d="M13.5125 50C12.2738 50 11.2131 49.51 10.3303 48.53C9.44748 47.55 9.00682 46.3733 9.00832 45C9.00832 43.625 9.44973 42.4475 10.3325 41.4675C11.2154 40.4875 12.2753 39.9983 13.5125 40C14.7511 40 15.8119 40.49 16.6947 41.47C17.5775 42.45 18.0181 43.6267 18.0166 45C18.0166 46.375 17.5752 47.5525 16.6924 48.5325C15.8096 49.5125 14.7496 50.0017 13.5125 50ZM36.0333 50C34.7946 50 33.7339 49.51 32.8511 48.53C31.9683 47.55 31.5276 46.3733 31.5291 45C31.5291 43.625 31.9705 42.4475 32.8534 41.4675C33.7362 40.4875 34.7961 39.9983 36.0333 40C37.2719 40 38.3327 40.49 39.2155 41.47C40.0983 42.45 40.539 43.6267 40.5375 45C40.5375 46.375 40.096 47.5525 39.2132 48.5325C38.3304 49.5125 37.2704 50.0017 36.0333 50ZM11.5982 10L17.0032 22.5H32.7678L38.961 10H11.5982ZM9.45874 5H42.6769C43.5402 5 44.1971 5.4275 44.6475 6.2825C45.0979 7.1375 45.1167 8.00167 44.7038 8.875L36.7089 24.875C36.296 25.7083 35.742 26.3542 35.0469 26.8125C34.3517 27.2708 33.592 27.5 32.7678 27.5H15.9898L13.5125 32.5H40.5375V37.5H13.5125C11.8234 37.5 10.5472 36.6767 9.68395 35.03C8.82065 33.3833 8.78311 31.7483 9.57134 30.125L12.6117 24L4.50416 5H0V0H7.31926L9.45874 5Z" fill="black"/>
</svg>
