<svg width="50" height="36" viewBox="0 0 50 36" fill="none" xmlns="http://www.w3.org/2000/svg">
<path d="M0 0.5H50V35.5H0V0.5ZM25 9.25C27.2101 9.25 29.3298 10.1719 30.8926 11.8128C32.4554 13.4538 33.3333 15.6794 33.3333 18C33.3333 20.3206 32.4554 22.5462 30.8926 24.1872C29.3298 25.8281 27.2101 26.75 25 26.75C22.7899 26.75 20.6702 25.8281 19.1074 24.1872C17.5446 22.5462 16.6667 20.3206 16.6667 18C16.6667 15.6794 17.5446 13.4538 19.1074 11.8128C20.6702 10.1719 22.7899 9.25 25 9.25ZM11.1111 6.33333C11.1111 7.88043 10.5258 9.36416 9.48393 10.4581C8.44206 11.5521 7.02898 12.1667 5.55556 12.1667V23.8333C7.02898 23.8333 8.44206 24.4479 9.48393 25.5419C10.5258 26.6358 11.1111 28.1196 11.1111 29.6667H38.8889C38.8889 28.1196 39.4742 26.6358 40.5161 25.5419C41.5579 24.4479 42.971 23.8333 44.4444 23.8333V12.1667C42.971 12.1667 41.5579 11.5521 40.5161 10.4581C39.4742 9.36416 38.8889 7.88043 38.8889 6.33333H11.1111Z" fill="black"/>
</svg>
