<svg width="51" height="50" viewBox="0 0 51 50" fill="none" xmlns="http://www.w3.org/2000/svg">
<path d="M33.5208 16.9586C34.3333 16.9586 35.125 17.0211 35.8958 17.1253C34.4792 10.9378 27.9792 6.25031 20.1667 6.25031C11.3125 6.25031 4.125 12.2503 4.125 19.6461C4.125 23.917 6.52083 27.6878 10.25 30.1461L8.14583 34.3753L13.8958 31.8961C15.125 32.3336 16.4167 32.6878 17.7917 32.8753C17.6042 32.0628 17.5 31.2295 17.5 30.3545C17.4792 22.9795 24.6667 16.9586 33.5208 16.9586ZM25.5 12.2711C25.7626 12.2711 26.0227 12.3229 26.2654 12.4234C26.508 12.5239 26.7285 12.6712 26.9142 12.8569C27.0999 13.0426 27.2472 13.2631 27.3478 13.5058C27.4483 13.7484 27.5 14.0085 27.5 14.2711C27.5 14.5338 27.4483 14.7939 27.3478 15.0365C27.2472 15.2792 27.0999 15.4996 26.9142 15.6854C26.7285 15.8711 26.508 16.0184 26.2654 16.1189C26.0227 16.2194 25.7626 16.2711 25.5 16.2711C24.9696 16.2711 24.4609 16.0604 24.0858 15.6854C23.7107 15.3103 23.5 14.8016 23.5 14.2711C23.5 13.7407 23.7107 13.232 24.0858 12.8569C24.4609 12.4819 24.9696 12.2711 25.5 12.2711ZM14.8125 16.292C14.2821 16.292 13.7734 16.0813 13.3983 15.7062C13.0232 15.3311 12.8125 14.8224 12.8125 14.292C12.8125 13.7615 13.0232 13.2528 13.3983 12.8778C13.7734 12.5027 14.2821 12.292 14.8125 12.292C15.3429 12.292 15.8516 12.5027 16.2267 12.8778C16.6018 13.2528 16.8125 13.7615 16.8125 14.292C16.8125 14.8224 16.6018 15.3311 16.2267 15.7062C15.8516 16.0813 15.3429 16.292 14.8125 16.292Z" fill="#381E72"/>
<path d="M46.8743 30.3543C46.8743 24.4376 40.8952 19.6459 33.5202 19.6459C26.1452 19.6459 20.166 24.4376 20.166 30.3543C20.166 36.2709 26.1452 41.0626 33.5202 41.0626C34.7285 41.0626 35.8952 40.8959 36.9993 40.6459L44.2077 43.7501L41.7077 38.7501C44.8327 36.7918 46.8743 33.7918 46.8743 30.3543ZM29.4993 29.6876C29.1038 29.6876 28.7171 29.5703 28.3882 29.3505C28.0593 29.1308 27.803 28.8184 27.6516 28.453C27.5002 28.0875 27.4606 27.6854 27.5378 27.2974C27.6149 26.9095 27.8054 26.5531 28.0851 26.2734C28.3648 25.9937 28.7212 25.8032 29.1092 25.726C29.4971 25.6489 29.8993 25.6885 30.2647 25.8398C30.6302 25.9912 30.9425 26.2476 31.1623 26.5765C31.3821 26.9054 31.4993 27.292 31.4993 27.6876C31.5202 28.7918 30.6035 29.6876 29.4993 29.6876ZM37.5202 29.6876C36.9897 29.6876 36.481 29.4769 36.106 29.1018C35.7309 28.7267 35.5202 28.218 35.5202 27.6876C35.5202 27.1572 35.7309 26.6485 36.106 26.2734C36.481 25.8983 36.9897 25.6876 37.5202 25.6876C38.0506 25.6876 38.5593 25.8983 38.9344 26.2734C39.3095 26.6485 39.5202 27.1572 39.5202 27.6876C39.5202 28.218 39.3095 28.7267 38.9344 29.1018C38.5593 29.4769 38.0506 29.6876 37.5202 29.6876Z" fill="#381E72"/>
</svg>
