<svg width="500" height="300" viewBox="0 0 500 300" fill="none" xmlns="http://www.w3.org/2000/svg">
<path d="M47.48 125.478L98.11 125.334L148.74 125.28L250 125.178L351.26 125.28L401.89 125.334L452.52 125.478L401.89 125.628L351.26 125.682L250 125.778L148.74 125.676L98.11 125.628L47.48 125.478Z" fill="#EBEBEB"/>
<path d="M47.48 146.232L98.11 146.082L148.74 146.034L250 145.932L351.26 146.028L401.89 146.082L452.52 146.232L401.89 146.376L351.26 146.43L250 146.532L148.74 146.43L98.11 146.376L47.48 146.232Z" fill="#EBEBEB"/>
<path d="M47.48 104.748L98.11 104.604L148.74 104.55L250 104.448L351.26 104.55L401.89 104.604L452.52 104.748L401.89 104.892L351.26 104.946L250 105.048L148.74 104.946L98.11 104.892L47.48 104.748Z" fill="#EBEBEB"/>
<path d="M47.48 166.98L98.11 166.836L148.74 166.782L250 166.68L351.26 166.782L401.89 166.836L452.52 166.98L401.89 167.13L351.26 167.178L250 167.28L148.74 167.178L98.11 167.13L47.48 166.98Z" fill="#EBEBEB"/>
<path d="M47.48 187.734L98.11 187.584L148.74 187.53L250 187.434L351.26 187.53L401.89 187.584L452.52 187.734L401.89 187.878L351.26 187.932L250 188.028L148.74 187.932L98.11 187.878L47.48 187.734Z" fill="#EBEBEB"/>
<path d="M47.48 208.482L98.11 208.338L148.74 208.284L250 208.182L351.26 208.284L401.89 208.338L452.52 208.482L401.89 208.626L351.26 208.68L250 208.782L148.74 208.68L98.11 208.626L47.48 208.482Z" fill="#EBEBEB"/>
<path d="M284.58 83.73L284.83 101.772L284.92 119.82L285.08 155.904L284.92 191.988L284.83 210.036L284.58 228.078L284.34 210.036L284.25 191.988L284.08 155.904L284.25 119.82L284.34 101.772L284.58 83.73Z" fill="#EBEBEB"/>
<path d="M250 83.73L250.24 101.772L250.33 119.82L250.5 155.904L250.33 191.988L250.25 210.036L250 228.078L249.75 210.036L249.67 191.988L249.5 155.904L249.67 119.82L249.76 101.772L250 83.73Z" fill="#EBEBEB"/>
<path d="M215.42 83.73L215.66 101.772L215.75 119.82L215.91 155.904L215.75 191.988L215.66 210.036L215.42 228.078L215.17 210.036L215.08 191.988L214.92 155.904L215.08 119.82L215.17 101.772L215.42 83.73Z" fill="#EBEBEB"/>
<path d="M180.83 83.73L181.07 101.772L181.16 119.82L181.33 155.904L181.16 191.988L181.08 210.036L180.83 228.078L180.59 210.036L180.5 191.988L180.33 155.904L180.5 119.82L180.59 101.772L180.83 83.73Z" fill="#EBEBEB"/>
<path d="M388.34 83.73L388.58 101.772L388.67 119.82L388.84 155.904L388.67 191.988L388.58 210.036L388.34 228.078L388.09 210.036L388 191.988L387.84 155.904L388.01 119.82L388.09 101.772L388.34 83.73Z" fill="#EBEBEB"/>
<path d="M353.75 83.73L354 101.772L354.08 119.82L354.25 155.904L354.08 191.988L354 210.036L353.75 228.078L353.51 210.036L353.42 191.988L353.25 155.904L353.42 119.82L353.51 101.772L353.75 83.73Z" fill="#EBEBEB"/>
<path d="M319.17 83.73L319.41 101.772L319.5 119.82L319.67 155.904L319.5 191.988L319.41 210.036L319.17 228.078L318.92 210.036L318.84 191.988L318.67 155.904L318.84 119.82L318.93 101.772L319.17 83.73Z" fill="#EBEBEB"/>
<path d="M422.92 83.73L423.16 101.772L423.25 119.82L423.42 155.904L423.25 191.988L423.17 210.036L422.92 228.078L422.68 210.036L422.59 191.988L422.42 155.904L422.59 119.82L422.68 101.772L422.92 83.73Z" fill="#EBEBEB"/>
<path d="M388.34 83.73L388.58 101.772L388.67 119.82L388.84 155.904L388.67 191.988L388.58 210.036L388.34 228.078L388.09 210.036L388 191.988L387.84 155.904L388.01 119.82L388.09 101.772L388.34 83.73Z" fill="#EBEBEB"/>
<path d="M146.25 83.73L146.49 101.772L146.58 119.82L146.75 155.904L146.58 191.988L146.49 210.036L146.25 228.078L146 210.036L145.91 191.988L145.75 155.904L145.92 119.82L146 101.772L146.25 83.73Z" fill="#EBEBEB"/>
<path d="M111.66 83.73L111.91 101.772L111.99 119.82L112.16 155.904L112 191.988L111.91 210.036L111.66 228.078L111.42 210.036L111.33 191.988L111.16 155.904L111.33 119.82L111.42 101.772L111.66 83.73Z" fill="#EBEBEB"/>
<path d="M77.0801 83.73L77.3201 101.772L77.4101 119.82L77.5801 155.904L77.4101 191.988L77.3201 210.036L77.0801 228.078L76.8301 210.036L76.7501 191.988L76.5801 155.904L76.7501 119.82L76.8301 101.772L77.0801 83.73Z" fill="#EBEBEB"/>
<path d="M206.74 34.626H46.74V42.012H206.74V34.626Z" fill="#EBEBEB"/>
<path d="M187.21 110.358C185.772 110.315 184.365 110.093 183.078 109.706C181.79 109.32 180.65 108.778 179.73 108.114C175.42 105.294 173.13 100.374 173.73 95.2679C174.15 91.8179 176.83 87.3839 179.42 83.0999C182.01 78.8159 184.53 74.6519 184.59 71.8079L185.3 38.2079H188.73V38.9939H186.61L185.92 71.8079C185.85 74.8079 183.34 78.9479 180.67 83.3579C178.11 87.5939 175.47 91.9679 175.06 95.3159C174.46 100.212 176.62 104.916 180.7 107.568C181.498 108.154 182.491 108.634 183.615 108.977C184.74 109.32 185.971 109.518 187.23 109.56L187.21 110.358Z" fill="#EBEBEB"/>
<path d="M190.26 110.052C189.298 110.259 188.282 110.363 187.26 110.358V109.572C188.52 109.548 189.757 109.367 190.895 109.042C192.032 108.717 193.045 108.254 193.87 107.682C198.06 105.078 200.42 100.422 200.03 95.52C199.77 92.166 197.31 87.75 194.93 83.478C192.45 79.026 190.12 74.826 190.18 71.85L190.88 39.042H188.76V38.256H192.18L191.47 71.856C191.41 74.7 193.71 78.84 196.15 83.22C198.59 87.6 201.05 92.016 201.32 95.478C201.73 100.584 199.23 105.468 194.8 108.222C193.542 109.034 191.988 109.66 190.26 110.052Z" fill="#EBEBEB"/>
<path d="M187.21 110.358C186.504 110.335 185.814 110.223 185.184 110.031C184.554 109.839 183.997 109.57 183.55 109.242C179.89 106.902 177.78 101.304 178.31 95.316C178.61 91.878 180.38 87.45 182.1 83.166C183.82 78.882 185.51 74.682 185.57 71.814L186.28 38.214H188.75V39H187.6L186.9 71.814C186.83 74.766 185.17 78.93 183.4 83.334C181.69 87.588 179.93 91.98 179.64 95.334C179.14 101.04 181.15 106.53 184.52 108.69C184.854 108.937 185.268 109.141 185.737 109.29C186.207 109.438 186.721 109.528 187.25 109.554L187.21 110.358Z" fill="#EBEBEB"/>
<path d="M188.66 110.214C188.196 110.315 187.704 110.364 187.21 110.358H186.56L188.09 38.232H191.21L190.5 71.832C190.44 74.694 191.91 78.84 193.5 83.232C195.09 87.624 196.62 91.998 196.77 95.436C197.04 101.436 194.7 106.998 190.94 109.284C190.311 109.696 189.53 110.014 188.66 110.214ZM187.89 109.53C188.698 109.393 189.426 109.123 189.99 108.75C193.45 106.644 195.7 101.184 195.44 95.478C195.29 92.106 193.72 87.678 192.19 83.412C190.62 78.984 189.12 74.796 189.19 71.844L189.89 39.03H189.39L187.89 109.53Z" fill="#EBEBEB"/>
<path d="M183.15 36.66L182.59 63.186L193.84 63.27L194.41 36.594L183.15 36.66Z" fill="#A6A6A6"/>
<path d="M129.12 55.59H124.37V91.614H129.12V55.59Z" fill="#EBEBEB"/>
<path d="M139.6 90.042H113.88L112.57 111.6H140.92L139.6 90.042ZM121.35 109.044H118.68V93.12H121.35V109.044ZM128.07 109.044H125.42V93.12H128.07V109.044ZM134.79 109.044H132.13V93.12H134.79V109.044Z" fill="#EBEBEB"/>
<path d="M121.92 36.66L121.35 63.186L132.61 63.27L133.18 36.594L121.92 36.66Z" fill="#A6A6A6"/>
<path d="M67.3899 72.528V55.272H59.9099V107.946H95.9999V72.546L67.3899 72.528ZM88.7399 78.732C88.3143 78.732 87.8982 78.6562 87.5444 78.5141C87.1906 78.3721 86.9151 78.1703 86.7526 77.9342C86.5902 77.6982 86.5482 77.4385 86.632 77.1881C86.7158 76.9377 86.9215 76.7078 87.2232 76.5277C87.5249 76.3475 87.9089 76.2251 88.3266 76.176C88.7443 76.1269 89.177 76.1533 89.5696 76.2519C89.9623 76.3504 90.2974 76.5167 90.5324 76.7297C90.7675 76.9426 90.8919 77.1926 90.8899 77.448C90.8899 77.6171 90.8342 77.7845 90.7261 77.9407C90.6179 78.0969 90.4594 78.2387 90.2596 78.358C90.0598 78.4773 89.8227 78.5718 89.5619 78.636C89.3011 78.7001 89.0218 78.7328 88.7399 78.732Z" fill="#EBEBEB"/>
<path d="M58.86 36.66L58.29 63.186L69.55 63.27L70.12 36.594L58.86 36.66Z" fill="#A6A6A6"/>
<path d="M295.35 107.832H458.02L463.26 34.626H290.11L295.35 107.832Z" fill="#EBEBEB"/>
<path d="M373.23 101.106H307.44L303.15 41.706H373.23V101.106ZM308.4 100.506H372.23V42.306H304.23L308.4 100.506Z" fill="#DBDBDB"/>
<path d="M367.29 81.444H360.46V60H367.29V81.444ZM361.46 80.844H366.29V60.6H361.46V80.844Z" fill="#DBDBDB"/>
<path d="M445.93 101.106H380.14V41.706H450.22L445.93 101.106ZM381.14 100.506H445L449.2 42.306H381.2L381.14 100.506Z" fill="#DBDBDB"/>
<path d="M392.91 81.444H386.08V60H392.91V81.444ZM387.08 80.844H391.91V60.6H387.08V80.844Z" fill="#DBDBDB"/>
<path d="M250 265.944C360.28 265.944 449.68 262.385 449.68 257.994C449.68 253.603 360.28 250.044 250 250.044C139.72 250.044 50.3201 253.603 50.3201 257.994C50.3201 262.385 139.72 265.944 250 265.944Z" fill="#EBEBEB"/>
<path d="M44.21 229.764L95.66 229.62L147.1 229.566L250 229.464L352.89 229.566L404.34 229.62L455.79 229.764L404.34 229.914L352.89 229.962L250 230.064L147.1 229.962L95.66 229.908L44.21 229.764Z" fill="#263238"/>
<path d="M215.13 126.528C209.13 124.848 191.76 125.4 184.43 129.756C177.1 134.112 174.51 142.398 177.03 143.556C179.55 144.714 191.86 145.716 201.17 144.072C210.48 142.428 218.1 127.362 215.13 126.528Z" fill="#263238"/>
<path d="M215.14 126.558C215.36 126.558 215.46 126.348 215.22 126.312C209.7 125.49 203.33 125.826 197.7 126.036C193.15 126.21 188.44 126.504 184.35 127.788C182.386 128.388 180.662 129.236 179.296 130.273C177.931 131.311 176.956 132.514 176.44 133.8C175.18 136.716 174.56 140.364 176.01 143.286C176.01 143.37 176.3 143.382 176.29 143.286C175.78 137.394 176.05 130.314 186.64 127.752C195.63 125.58 205.76 126.534 215.14 126.558Z" fill="#263238"/>
<path d="M178.48 142.248C172.77 141.936 156.01 146.358 151.25 152.376C146.49 158.394 151.61 168.888 154.08 169.926C156.55 170.964 171.08 166.524 176.7 162.594C180.47 159.972 179.64 156.216 179.7 152.598C179.8 147.264 179.37 142.296 178.48 142.248Z" fill="#263238"/>
<path d="M180.32 162.24C184.32 156.006 180.62 148.806 179.1 142.488C179.1 142.422 178.9 142.428 178.9 142.488C178.9 148.35 182.63 154.116 180.63 159.984C179.44 163.47 176.17 166.584 170.63 168.102C165.82 169.398 160.32 169.554 155.15 169.938C154.81 169.938 154.92 170.268 155.25 170.25C165.48 169.656 176.16 168.678 180.32 162.24Z" fill="#263238"/>
<path d="M177.06 142.686C177.37 142.638 177.28 142.35 176.97 142.392C168.25 143.592 157.54 145.596 151.54 149.832C145.05 154.422 147.63 160.47 149.97 165.702C149.97 165.768 150.17 165.75 150.14 165.702C147.89 160.404 145.82 153.936 152.89 149.562C159 145.8 168.81 143.886 177.06 142.686Z" fill="#263238"/>
<path d="M154.77 169.842C157.77 171.642 161.15 176.358 160.08 180.948C158.25 188.808 163.71 188.22 176.27 192.762C186.88 196.596 185.27 204.762 177.18 207.432C177.18 207.432 183.18 203.346 176.69 199.56C168.89 195.03 144.69 196.89 138.22 187.062C129.87 174.342 154.77 169.842 154.77 169.842Z" fill="#263238"/>
<path d="M157.86 174.21C157.76 174.084 158.13 173.976 158.24 174.108C159.301 175.34 159.979 176.678 160.24 178.056C160.58 179.856 159.74 181.578 159.87 183.372C160.21 187.932 168.53 189.342 174.37 190.716C182.2 192.564 187.12 196.716 184.97 201.87C184.963 201.886 184.946 201.9 184.923 201.908C184.9 201.916 184.872 201.919 184.845 201.915C184.818 201.911 184.796 201.901 184.782 201.887C184.768 201.873 184.763 201.856 184.77 201.84C185.409 200.247 185.308 198.578 184.478 197.017C183.647 195.456 182.119 194.061 180.06 192.984C176 190.914 170.39 190.548 165.89 188.934C162.82 187.824 159.95 186.354 159.42 184.134C159.305 182.897 159.406 181.656 159.72 180.432C159.991 178.297 159.351 176.155 157.86 174.21Z" fill="#263238"/>
<path d="M152.19 170.352C152.29 170.352 152.36 170.418 152.27 170.442C146.33 172.278 140.11 174.078 136.75 177.762C133.14 181.728 134.56 186.648 138.75 190.248C143.46 194.274 150.83 194.154 158.18 194.646C163.5 195.006 168.8 195.606 173.18 197.562C173.31 197.622 173.18 197.754 173.01 197.706C165.66 195.114 157.66 195.162 149.48 194.454C142.8 193.854 138.48 191.61 135.94 187.854C130.36 179.646 139.79 173.22 152.19 170.352Z" fill="#263238"/>
<path d="M211.55 122.4C210.29 120.822 206.23 122.034 207.5 123.6C208.77 125.166 212.82 123.972 211.55 122.4Z" fill="#6750A4"/>
<path d="M212.44 124.866C211.17 123.294 207.11 124.506 208.38 126.066C209.65 127.626 213.71 126.45 212.44 124.866Z" fill="#6750A4"/>
<path d="M214 127.236C212.73 125.658 208.67 126.87 209.94 128.436C211.21 130.002 215.31 128.82 214 127.236Z" fill="#6750A4"/>
<path d="M216.09 129.396C214.82 127.818 210.76 129.03 212.03 130.596C213.3 132.162 217.35 130.98 216.09 129.396Z" fill="#6750A4"/>
<path d="M218.78 131.358C217.51 129.78 213.46 130.992 214.72 132.558C215.98 134.124 220.05 132.936 218.78 131.358Z" fill="#6750A4"/>
<path d="M221.9 132.936C220.63 131.358 216.57 132.57 217.84 134.136C219.11 135.702 223.17 134.514 221.9 132.936Z" fill="#6750A4"/>
<path d="M232.49 154.5C250.18 167.1 264.89 183.186 272.72 187.068C276.82 189.102 336.09 192.03 342.82 192.804C353.08 194.004 337.82 223.296 330.88 222.156C326.38 221.418 259.35 218.238 246.74 209.778C237.04 203.262 221.54 175.11 217.36 162.72C212.72 148.956 225.43 149.472 232.49 154.5Z" fill="#C95F50"/>
<path d="M326.32 191.514C346.72 189.006 369.21 188.028 389.03 193.404C391.258 193.965 393.104 194.96 394.27 196.23C403.27 198.546 404.1 201.78 404.1 201.78C411.34 205.464 411.47 208.842 411.47 208.842C411.47 208.842 421.93 211.632 420.17 215.706C418.22 220.278 403.91 215.466 393.35 215.706C369.14 216.27 334.99 221.106 328.04 221.706L326.32 191.514Z" fill="#C95F50"/>
<path d="M367.29 205.602C374.42 205.524 381.42 205.332 388.53 205.836C396.33 206.382 403.69 207.696 411.23 208.92C411.277 208.928 411.327 208.924 411.37 208.911C411.413 208.897 411.445 208.874 411.461 208.846C411.476 208.818 411.473 208.788 411.453 208.762C411.432 208.735 411.395 208.715 411.35 208.704C398.29 205.194 381.35 204.084 367.28 205.41C366.94 205.44 366.93 205.608 367.29 205.602Z" fill="#263238"/>
<path d="M364.6 196.884C371.55 197.04 383.75 197.358 404.02 201.906C404.08 201.906 404.15 201.858 404.08 201.84C391.57 197.832 378.66 196.29 364.62 196.686C364.18 196.698 364.14 196.878 364.6 196.884Z" fill="#263238"/>
<path d="M363.31 192.186C375.1 192.714 382.42 193.944 394.21 196.254C394.28 196.254 394.34 196.2 394.26 196.182C381.32 192.714 375.97 192.336 363.26 191.94C362.84 191.928 362.85 192.162 363.31 192.186Z" fill="#263238"/>
<path d="M361.22 215.304C358.22 216.216 358.96 217.176 364.87 217.902C370.78 218.628 395.19 218.502 394.55 223.614C393.91 228.726 359.45 228.618 349.77 226.956C340.09 225.294 325.39 220.566 325.39 220.566C332.1 219.78 348.08 216.942 361.22 215.304Z" fill="#C95F50"/>
<path d="M320.4 189L312.28 223.344C312.28 223.344 251.4 217.344 241.39 210.534C231.38 203.724 221 176.502 216 162.804C211 149.106 223.66 144.75 237.8 156.102C251.94 167.454 268.1 184.776 271.8 185.784C275.5 186.792 320.4 189 320.4 189Z" fill="#EBEBEB"/>
<path d="M327.53 188.634C327.39 188.442 310.1 186.708 310.1 186.708C310.1 186.708 294.7 203.274 294.74 205.254C294.78 207.234 294.56 222.276 294.82 222.462C295.08 222.648 315.87 225.834 316.29 225.462C316.71 225.09 317.94 208.902 318 207.66C318.06 206.418 327.53 188.634 327.53 188.634Z" fill="#6750A4"/>
<path d="M296.29 221.532C277.52 219.252 248.08 215.058 241.39 210.51C231.39 203.718 221.01 176.502 216.02 162.804C213.48 155.82 215.52 151.266 220.02 149.988C230.66 159.744 274.16 199.656 296.29 221.532Z" fill="#C7C7C7"/>
<path d="M241 229.764L239.05 208.29C239.05 208.29 257.92 197.364 255.22 186.69C253.86 181.29 239.73 158.352 229.05 150.09C219.05 142.344 197.74 145.044 188.77 148.182C154.25 160.26 116.49 189.858 93.8601 229.782L241 229.764Z" fill="#EBEBEB"/>
<path d="M195.94 148.392C196.171 149.907 196.764 151.394 197.7 152.808C198.606 154.221 199.776 155.568 201.19 156.822C204.038 159.308 207.629 161.456 211.78 163.158C215.946 164.842 220.457 166.197 225.2 167.19L226.99 167.556L227.88 167.736H227.93C227.93 167.736 227.93 167.736 228.21 167.814C228.324 167.863 228.422 167.924 228.5 167.994C228.565 168.047 228.621 168.103 228.67 168.162L228.92 168.438C229.51 169.152 230 169.854 230.48 170.574C231.48 172.002 232.3 173.442 233.11 174.9C234.733 177.816 236.069 180.788 237.11 183.798C238.179 186.818 238.775 189.891 238.89 192.978C239.069 196.114 238.269 199.241 236.53 202.2C235.611 203.691 234.279 205.079 232.59 206.304C230.88 207.537 228.784 208.556 226.42 209.304L226.88 208.908C226.44 210.654 226 212.4 225.51 214.14L224.08 219.366C223.62 221.106 223.08 222.846 222.59 224.586C222.1 226.326 221.59 228.06 221 229.794C221.27 228.036 221.6 226.284 221.92 224.526C222.24 222.768 222.56 221.016 222.92 219.264L223.99 214.008C224.33 212.256 224.72 210.51 225.13 208.764L225.19 208.5L225.59 208.368C227.737 207.685 229.64 206.755 231.19 205.632C232.732 204.493 233.945 203.207 234.78 201.828C236.382 199.001 237.094 196.021 236.88 193.038C236.65 187.038 234.43 181.038 231.37 175.284C230.603 173.84 229.76 172.414 228.84 171.006C228.38 170.304 227.89 169.602 227.36 168.948L227.16 168.714L227.08 168.636C227.08 168.636 227.02 168.636 227.22 168.714C227.42 168.792 227.4 168.756 227.39 168.762H227.33L226.42 168.57L224.61 168.186C219.768 167.095 215.19 165.62 211 163.8C206.801 161.994 203.233 159.711 200.5 157.08C199.156 155.76 198.072 154.35 197.27 152.88C196.444 151.434 195.995 149.92 195.94 148.392Z" fill="#263238"/>
<path d="M195.28 168.642C193.1 173.766 190.81 178.872 188.51 183.972L181.51 199.26L174.26 214.512L170.56 222.12L166.75 229.716L170.08 222.042L173.52 214.386L180.52 199.098L187.77 183.852C190.23 178.8 192.7 173.7 195.28 168.642Z" fill="#263238"/>
<path d="M201.36 177C201.36 177.365 201.179 177.723 200.841 178.027C200.502 178.331 200.021 178.567 199.459 178.707C198.896 178.847 198.277 178.884 197.679 178.812C197.082 178.741 196.533 178.565 196.102 178.307C195.671 178.048 195.378 177.719 195.259 177.361C195.14 177.002 195.201 176.63 195.434 176.293C195.668 175.955 196.062 175.666 196.569 175.463C197.075 175.26 197.671 175.152 198.28 175.152C199.097 175.152 199.88 175.347 200.458 175.693C201.035 176.04 201.36 176.51 201.36 177Z" fill="#263238"/>
<path d="M230.78 177.948C230.78 178.313 230.599 178.671 230.261 178.975C229.923 179.279 229.442 179.515 228.879 179.655C228.316 179.795 227.697 179.832 227.099 179.76C226.502 179.689 225.953 179.513 225.522 179.255C225.091 178.996 224.798 178.667 224.679 178.309C224.56 177.95 224.621 177.578 224.855 177.241C225.088 176.903 225.482 176.614 225.989 176.411C226.495 176.208 227.091 176.1 227.7 176.1C228.517 176.1 229.3 176.295 229.878 176.641C230.456 176.988 230.78 177.458 230.78 177.948Z" fill="#263238"/>
<path d="M192.2 193.188C193.901 193.188 195.28 192.361 195.28 191.34C195.28 190.319 193.901 189.492 192.2 189.492C190.499 189.492 189.12 190.319 189.12 191.34C189.12 192.361 190.499 193.188 192.2 193.188Z" fill="#263238"/>
<path d="M188.71 205.956C188.71 206.322 188.529 206.679 188.191 206.983C187.853 207.287 187.372 207.524 186.809 207.663C186.246 207.803 185.627 207.84 185.029 207.769C184.432 207.697 183.883 207.521 183.452 207.263C183.021 207.004 182.728 206.675 182.609 206.317C182.49 205.958 182.551 205.587 182.785 205.249C183.018 204.911 183.412 204.623 183.919 204.419C184.425 204.216 185.021 204.108 185.63 204.108C186.447 204.108 187.23 204.303 187.808 204.649C188.386 204.996 188.71 205.466 188.71 205.956Z" fill="#263238"/>
<path d="M178.87 224.634C180.571 224.634 181.95 223.807 181.95 222.786C181.95 221.765 180.571 220.938 178.87 220.938C177.169 220.938 175.79 221.765 175.79 222.786C175.79 223.807 177.169 224.634 178.87 224.634Z" fill="#263238"/>
<path d="M225.88 194.166C227.581 194.166 228.96 193.339 228.96 192.318C228.96 191.297 227.581 190.47 225.88 190.47C224.179 190.47 222.8 191.297 222.8 192.318C222.8 193.339 224.179 194.166 225.88 194.166Z" fill="#263238"/>
<path d="M215.91 225.534C217.611 225.534 218.99 224.707 218.99 223.686C218.99 222.665 217.611 221.838 215.91 221.838C214.209 221.838 212.83 222.665 212.83 223.686C212.83 224.707 214.209 225.534 215.91 225.534Z" fill="#263238"/>
<path d="M219.72 209.652C221.421 209.652 222.8 208.825 222.8 207.804C222.8 206.783 221.421 205.956 219.72 205.956C218.019 205.956 216.64 206.783 216.64 207.804C216.64 208.825 218.019 209.652 219.72 209.652Z" fill="#263238"/>
<path d="M254.65 185.346C253.359 182.503 251.629 179.739 249.48 177.09C249.16 176.658 248.83 176.232 248.48 175.806C248.452 175.073 248.288 174.345 247.99 173.634C247.683 172.846 247.254 172.077 246.71 171.336C246.71 171.294 246.56 171.336 246.58 171.336C246.95 172.092 247.29 172.86 247.58 173.634C247.75 174.132 247.87 174.624 248 175.122C247.31 174.204 246.63 173.286 245.92 172.368C245.3 171.576 244.69 170.79 244.08 169.998C243.47 169.206 242.8 168.372 242.2 167.556C242.2 167.52 242.06 167.556 242.09 167.556C243.09 168.96 243.95 170.388 244.87 171.804C245.79 173.22 246.69 174.594 247.63 176.004C249.597 178.656 251.323 181.37 252.8 184.134C254.101 186.852 254.259 189.722 253.26 192.486C252.205 195.184 250.479 197.771 248.14 200.16C246.83 201.552 245.31 202.866 243.84 204.21C242.37 205.554 240.75 206.82 239.36 208.176C239.354 208.187 239.354 208.199 239.36 208.21C239.366 208.221 239.377 208.23 239.393 208.237C239.409 208.244 239.428 208.247 239.447 208.247C239.466 208.247 239.485 208.243 239.5 208.236C241.21 207.198 242.71 206.052 244.27 204.942C245.796 203.83 247.218 202.668 248.53 201.462C251.22 199.095 253.246 196.481 254.53 193.722C255.724 190.979 255.766 188.101 254.65 185.346Z" fill="#263238"/>
<path d="M181.6 148.2C157.22 153.6 77.84 179.208 74.21 192.318C71.51 202.062 86.74 208.344 103.53 207.546C118.14 206.85 171.25 172.53 185.95 162.846C200 153.6 205.55 142.938 181.6 148.2Z" fill="#C95F50"/>
<path d="M181.6 148.2C157.22 153.6 77.84 179.208 74.21 192.318C71.51 202.062 86.74 208.344 103.53 207.546C118.14 206.85 171.25 172.53 185.95 162.846C200 153.6 205.55 142.938 181.6 148.2Z" fill="#EBEBEB"/>
<path d="M182.48 165.696C182.57 165.624 182.42 165.528 182.31 165.6C178.56 168.036 174.77 170.454 170.91 172.83C167.05 175.206 163.25 177.63 159.37 180C151.65 184.728 143.703 189.314 135.53 193.758C133.24 195.006 130.92 196.224 128.61 197.454C126.3 198.684 123.86 199.89 121.61 201.168C121.54 201.204 121.61 201.27 121.71 201.24C123.98 200.292 126.15 199.236 128.32 198.198C130.49 197.16 132.59 196.128 134.69 195.06C138.89 192.924 143.05 190.764 147.1 188.526C151.15 186.288 155.23 183.948 159.18 181.584C162.39 179.67 165.55 177.72 168.6 175.71C169.16 175.464 169.72 175.224 170.27 174.972C171.38 174.456 172.48 173.928 173.59 173.4C175.75 172.374 177.78 171.252 179.9 170.196C180.03 170.13 179.84 169.992 179.71 170.052C177.54 171.078 175.3 172.044 173.17 173.094L170.51 174.426C174.64 171.6 178.63 168.66 182.48 165.696Z" fill="#263238"/>
<path d="M228.79 151.47C228.79 151.47 223.26 162.582 219.84 162.066C209.31 160.476 202.92 149.652 203.08 148.194C203.08 147.822 208.93 139.512 213.48 133.056C216.4 128.904 218.8 125.526 218.8 125.526L239.58 139.998L229.51 150.702L228.79 151.47Z" fill="#C95F50"/>
<path d="M239.58 139.998L229.51 150.702C224.928 148.6 221.135 145.942 218.378 142.901C215.621 139.861 213.963 136.506 213.51 133.056C216.43 128.904 218.83 125.526 218.83 125.526L221.5 127.266L239.58 139.998Z" fill="#263238"/>
<path d="M275.62 131.04C262 151.002 240.53 148.362 233.36 146.592C226.85 144.99 205.02 139.032 215.13 118.326C225.24 97.62 245.02 95.112 260.24 98.31C275.46 101.508 289.25 111.072 275.62 131.04Z" fill="#C95F50"/>
<path d="M271.56 126.492C270.865 126.209 270.198 125.902 269.56 125.574C268.8 125.305 268.207 124.894 267.87 124.404C267.816 124.237 267.855 124.064 267.981 123.912C268.108 123.76 268.315 123.638 268.57 123.564C269.109 123.463 269.683 123.45 270.233 123.525C270.783 123.601 271.289 123.764 271.7 123.996C272.651 124.391 273.324 124.983 273.59 125.658C273.631 125.811 273.599 125.967 273.497 126.11C273.396 126.252 273.229 126.374 273.016 126.461C272.803 126.549 272.553 126.598 272.296 126.603C272.038 126.609 271.783 126.57 271.56 126.492Z" fill="#263238"/>
<path d="M248.75 121.926C249.413 122.221 250.104 122.494 250.82 122.742C251.483 123.096 252.324 123.307 253.21 123.342C253.489 123.321 253.749 123.244 253.948 123.125C254.147 123.005 254.274 122.85 254.31 122.682C254.301 122.343 254.142 122.011 253.848 121.721C253.555 121.431 253.138 121.193 252.64 121.032C251.712 120.617 250.562 120.423 249.41 120.486C249.149 120.509 248.905 120.577 248.707 120.682C248.51 120.787 248.367 120.924 248.297 121.077C248.227 121.23 248.233 121.391 248.313 121.542C248.394 121.693 248.545 121.826 248.75 121.926Z" fill="#263238"/>
<path d="M250.93 126.648C250.93 126.594 250.71 126.648 250.67 126.72C249.67 128.07 248.23 129.522 245.88 129.402C245.81 129.402 245.76 129.468 245.88 129.486C248.45 129.96 250.38 128.022 250.93 126.648Z" fill="#263238"/>
<path d="M250 124.704C246.56 123.546 242.95 127.764 246.14 128.838C249.33 129.912 252.92 125.676 250 124.704Z" fill="#263238"/>
<path d="M248.46 124.506C247.64 124.554 246.68 124.788 245.9 124.608C245.12 124.428 244.73 123.75 244.54 123.156C244.54 123.09 244.42 123.108 244.37 123.156C243.66 123.954 243.47 124.956 244.81 125.508C246.15 126.06 247.59 125.604 248.63 124.908C248.82 124.8 248.79 124.482 248.46 124.506Z" fill="#263238"/>
<path d="M263.34 130.056C263.4 130.014 263.45 130.17 263.41 130.224C262.2 131.502 261.18 133.092 262.77 134.136C262.82 134.172 262.77 134.232 262.69 134.208C260.47 133.254 261.86 131.154 263.34 130.056Z" fill="#263238"/>
<path d="M266.46 129.306C270.09 130.242 266.7 134.526 263.34 133.656C259.98 132.786 263.42 128.52 266.46 129.306Z" fill="#263238"/>
<path d="M267.73 130.008C268.11 130.398 268.34 130.968 269 131.208C269.66 131.448 270.7 131.16 271.55 130.86C271.64 130.824 271.66 130.86 271.62 130.938C271.01 131.766 269.89 132.492 268.45 132.276C267.01 132.06 266.82 131.124 267.14 130.218C267.2 130.032 267.57 129.852 267.73 130.008Z" fill="#263238"/>
<path d="M241.68 136.8C241.9 137.274 242.02 137.856 242.75 138.162C243.552 138.42 244.433 138.577 245.34 138.624C245.361 138.624 245.381 138.629 245.396 138.638C245.412 138.647 245.42 138.659 245.42 138.672C245.42 138.685 245.412 138.697 245.396 138.706C245.381 138.715 245.361 138.72 245.34 138.72C244.799 138.867 244.201 138.923 243.611 138.882C243.021 138.841 242.46 138.704 241.99 138.486C241.62 138.271 241.365 137.994 241.258 137.692C241.151 137.389 241.197 137.075 241.39 136.788C241.46 136.704 241.65 136.734 241.68 136.8Z" fill="#263238"/>
<path d="M254.79 134.79C254.79 134.79 253.61 136.89 252.84 137.79C252.77 137.874 252.36 137.79 251.84 137.664C251.84 137.664 251.84 137.664 251.78 137.664C250.335 137.413 249.033 136.928 248.017 136.262C247.001 135.597 246.31 134.776 246.02 133.89C246.016 133.865 246.026 133.839 246.049 133.818C246.073 133.797 246.108 133.782 246.148 133.775C246.189 133.767 246.232 133.769 246.271 133.779C246.31 133.789 246.341 133.807 246.36 133.83C247.651 135.229 249.666 136.337 252.1 136.986C252.42 136.764 253.92 133.35 254.17 133.386C255.316 133.808 256.362 134.321 257.28 134.91C259.95 130.578 261.44 126.03 264.2 121.746C264.222 121.716 264.261 121.691 264.311 121.675C264.36 121.66 264.417 121.656 264.471 121.663C264.525 121.67 264.574 121.688 264.608 121.714C264.643 121.74 264.661 121.773 264.66 121.806C263.66 126.642 260.77 131.664 258.21 136.176C257.87 136.8 255.27 135.132 254.79 134.79Z" fill="#263238"/>
<path d="M251.4 137.034C250.045 137.509 248.509 137.767 246.94 137.784C246.086 137.775 245.258 137.608 244.57 137.304C243.07 136.632 243.65 135.702 244.49 134.988C244.945 134.611 245.472 134.266 246.06 133.962C247.247 135.302 249.118 136.379 251.4 137.034Z" fill="#263238"/>
<path d="M246.94 137.784C246.086 137.775 245.258 137.608 244.57 137.304C243.07 136.632 243.65 135.702 244.49 134.988C246.21 135.534 247.49 136.698 246.94 137.784Z" fill="#FF9CBD"/>
<path d="M270.2 105.87C270.2 105.87 269.09 109.188 265.66 110.82C258.66 114.168 250.78 110.436 246.37 111.282C242.23 112.08 240.48 115.722 236.61 116.598C231.25 117.798 227.16 115.524 225.35 116.868C223.54 118.212 217.94 122.526 214.23 122.19C210.52 121.854 221.89 85.5541 263.02 98.8801C263.02 98.8801 269.93 99.1621 276.66 104.478C284.09 110.352 280.44 121.338 280.44 121.338C280.44 121.338 280.34 121.14 279.52 119.964C278.37 118.296 278.4 117.072 277.52 115.944C276.08 114.144 274.46 114.21 272.9 112.434C270.49 109.734 270.2 105.87 270.2 105.87Z" fill="#263238"/>
<path d="M270.7 104.286C270.329 105.725 269.685 107.134 268.78 108.486C268.016 109.839 266.654 111.041 264.84 111.966C262.863 112.715 260.501 113.01 258.19 112.794C255.83 112.65 253.53 112.128 250.97 112.014C249.643 111.948 248.311 112.101 247.12 112.458C246.016 112.863 245.06 113.397 244.31 114.03C242.81 115.188 241.31 116.328 239.14 116.826C238.05 117.085 236.878 117.199 235.707 117.158C234.536 117.118 233.394 116.925 232.36 116.592C230.24 115.992 228.2 114.93 225.68 114.882C228.18 115.056 229.97 116.142 232.1 116.892C233.199 117.281 234.426 117.521 235.695 117.595C236.965 117.67 238.246 117.577 239.45 117.324C241.97 116.838 243.63 115.524 245.12 114.426C245.801 113.868 246.657 113.395 247.64 113.034C248.659 112.753 249.784 112.639 250.9 112.704C253.22 112.782 255.57 113.304 258.08 113.424C259.345 113.505 260.623 113.469 261.87 113.316C263.154 113.194 264.364 112.873 265.38 112.386C267.248 111.365 268.611 110.055 269.32 108.6C270.055 107.199 270.518 105.751 270.7 104.286Z" fill="#263238"/>
<path d="M270.57 105.672C269.998 106.998 269.729 108.365 269.77 109.734C269.741 111.158 270.416 112.555 271.71 113.748C272.411 114.3 273.198 114.81 274.06 115.272C274.804 115.703 275.333 116.249 275.59 116.85C275.677 117.535 275.882 118.212 276.2 118.872C276.607 119.522 277.257 120.107 278.1 120.582C277.458 120.04 276.996 119.429 276.74 118.782C276.546 118.123 276.455 117.454 276.47 116.784C276.284 116.05 275.717 115.37 274.85 114.84C274.05 114.387 273.317 113.894 272.66 113.364C271.483 112.269 270.794 111.011 270.66 109.71C270.479 108.367 270.449 107.018 270.57 105.672Z" fill="#263238"/>
<path d="M219.37 121.158C219.37 121.158 217.53 113.016 211.72 113.112C205.91 113.208 203.72 123.51 208.01 126.312C208.519 126.698 209.153 127.019 209.874 127.254C210.595 127.489 211.388 127.633 212.205 127.679C213.021 127.725 213.845 127.672 214.627 127.521C215.408 127.371 216.13 127.127 216.75 126.804L219.37 121.158Z" fill="#C95F50"/>
<path d="M211.21 116.076C211.13 116.046 211.05 116.112 211.11 116.154C214.06 118.206 214.25 120.888 213.78 123.462C213.38 122.262 212.26 121.374 209.73 121.596C209.6 121.596 209.61 121.728 209.73 121.746C210.486 121.822 211.185 122.035 211.732 122.357C212.28 122.679 212.649 123.094 212.79 123.546C213.007 124.313 213.084 125.091 213.02 125.868C213.02 126.12 213.72 126.198 213.79 125.928C213.79 125.928 213.79 125.886 213.79 125.868C216.34 123.066 216.07 117.936 211.21 116.076Z" fill="#263238"/>
<path d="M211.74 126.414C211.622 126.546 211.441 126.654 211.22 126.724C210.999 126.794 210.748 126.823 210.5 126.808C210.252 126.792 210.016 126.733 209.824 126.637C209.632 126.541 209.492 126.413 209.422 126.269C209.351 126.125 209.354 125.972 209.429 125.829C209.503 125.686 209.647 125.56 209.842 125.466C210.037 125.372 210.274 125.315 210.523 125.302C210.772 125.29 211.021 125.322 211.24 125.394C211.385 125.441 211.513 125.505 211.616 125.582C211.72 125.659 211.797 125.747 211.843 125.842C211.89 125.936 211.905 126.036 211.887 126.134C211.869 126.232 211.819 126.327 211.74 126.414Z" fill="white"/>
<path d="M209.7 124.254C209.597 124.364 209.426 124.445 209.224 124.48C209.022 124.515 208.805 124.5 208.62 124.44C208.484 124.394 208.374 124.325 208.303 124.242C208.232 124.159 208.204 124.065 208.222 123.972C208.24 123.879 208.304 123.791 208.404 123.72C208.505 123.649 208.639 123.597 208.789 123.571C208.939 123.545 209.098 123.547 209.246 123.575C209.395 123.603 209.526 123.657 209.624 123.73C209.721 123.804 209.78 123.892 209.794 123.985C209.807 124.078 209.775 124.172 209.7 124.254Z" fill="white"/>
<path d="M213.89 108.714C213.59 108.468 204.33 97.98 202.94 96.978C201.55 95.976 188.74 95.778 187.29 92.286C185.84 88.794 186.98 82.158 194.29 79.86C201.6 77.562 209.14 77.13 209.73 76.734C210.32 76.338 210.25 66.378 220.79 64.038C231.33 61.698 242.79 71.178 243.53 71.238C244.27 71.298 249.6 66.162 256.84 66.528C264.08 66.894 269.23 74.22 271.07 74.328C272.91 74.436 279.27 72.888 285.82 76.908C292.37 80.928 286.43 89.616 284.12 90.54C281.81 91.464 280.71 102.894 280.71 102.894L213.89 108.714Z" fill="#EBEBEB"/>
<path d="M221.4 104.862C220.759 104.416 220.251 103.906 219.9 103.356C219.47 102.81 219.03 102.27 218.56 101.736C217.603 100.669 216.51 99.6477 215.29 98.6821C214.35 97.9081 213.2 97.0501 211.59 96.7861C211.016 96.7155 210.424 96.7142 209.849 96.7821C209.274 96.8501 208.727 96.9861 208.24 97.1821C207.973 97.3729 207.726 97.5733 207.5 97.7821C207.42 97.8361 207.59 97.9141 207.65 97.8481C207.887 97.5721 208.286 97.3584 208.77 97.2481C209.165 97.1683 209.575 97.1179 209.99 97.0981C210.873 97.0769 211.739 97.2521 212.42 97.5901C213.674 98.2779 214.723 99.0897 215.52 99.9901C216.46 100.866 217.407 101.742 218.36 102.618C219.21 103.416 219.9 104.454 221.23 105.018C221.34 105 221.5 104.928 221.4 104.862Z" fill="#C7C7C7"/>
<path d="M225.41 105C223.57 102.78 221.72 100.554 219.85 98.34C217.817 96.135 216.21 93.7979 215.06 91.374C215.06 91.302 214.85 91.32 214.88 91.374C215.695 93.853 216.977 96.2685 218.7 98.574C220.582 100.844 222.762 103.021 225.22 105.084C225.239 105.099 225.266 105.109 225.297 105.112C225.328 105.115 225.36 105.11 225.385 105.099C225.41 105.088 225.427 105.071 225.432 105.053C225.436 105.034 225.429 105.015 225.41 105Z" fill="#C7C7C7"/>
<path d="M236.08 102C235.02 99.9721 233.61 97.9981 232.24 96.0361C231.045 94.3059 229.475 92.6779 227.57 91.1941C227.5 91.1401 227.36 91.1941 227.43 91.2661C229.2 92.8501 230.11 94.7041 231.3 96.4621C232.59 98.3821 233.88 100.326 235.47 102.168C235.515 102.208 235.582 102.238 235.66 102.251C235.738 102.264 235.821 102.26 235.894 102.24C235.967 102.22 236.026 102.184 236.06 102.14C236.095 102.096 236.101 102.047 236.08 102Z" fill="#C7C7C7"/>
<path d="M255.1 85.362C254.711 85.1422 254.246 84.9766 253.739 84.877C253.231 84.7774 252.693 84.7463 252.163 84.7858C251.633 84.8253 251.124 84.9346 250.672 85.1058C250.22 85.2769 249.837 85.5058 249.55 85.776C248.07 87.126 248.08 89.028 248.08 90.576C248.068 92.2664 248.403 93.9511 249.08 95.592C249.869 97.4442 251.062 99.2257 252.63 100.89C252.643 100.902 252.663 100.91 252.685 100.914C252.708 100.918 252.732 100.917 252.754 100.911C252.775 100.906 252.792 100.896 252.803 100.883C252.813 100.87 252.816 100.856 252.81 100.842C250.895 98.073 249.825 95.1201 249.65 92.124C249.53 90.6511 249.64 89.1746 249.98 87.714C250.26 86.514 251.83 84.588 254.4 85.392C256.81 86.142 257.02 88.17 258.4 89.418C258.4 89.418 258.51 89.418 258.47 89.382C257.14 88.086 257.08 86.448 255.1 85.362Z" fill="#C7C7C7"/>
<path d="M279.3 86.664C276.224 88.3421 274.172 90.5893 273.47 93.048C273.036 94.4061 272.835 95.7873 272.87 97.17C272.777 98.599 272.921 100.03 273.3 101.442C273.307 101.454 273.319 101.464 273.336 101.472C273.353 101.479 273.374 101.483 273.395 101.483C273.416 101.483 273.437 101.479 273.454 101.472C273.471 101.464 273.483 101.454 273.49 101.442C273.76 100.11 273.49 98.742 273.76 97.41C273.952 96.0632 274.317 94.7273 274.85 93.414C275.347 92.2612 275.985 91.1321 276.76 90.036C277.543 88.9239 278.519 87.8641 279.67 86.874C279.83 86.736 279.53 86.544 279.3 86.664Z" fill="#C7C7C7"/>
<path d="M267.27 94.8C267.074 92.6558 266.627 90.5225 265.93 88.416C265.918 88.3731 265.878 88.3347 265.819 88.3094C265.76 88.2841 265.687 88.2739 265.615 88.281C265.543 88.2882 265.479 88.3121 265.437 88.3476C265.395 88.383 265.378 88.4271 265.39 88.47C265.75 90.582 265.9 92.712 266.04 94.83C266.18 96.948 266.1 99.03 266.47 101.136C266.477 101.148 266.489 101.158 266.506 101.166C266.523 101.173 266.544 101.177 266.565 101.177C266.586 101.177 266.607 101.173 266.624 101.166C266.641 101.158 266.653 101.148 266.66 101.136C267.323 99.049 267.528 96.919 267.27 94.8Z" fill="#C7C7C7"/>
<path d="M215.66 113.868C216.4 112.458 242.49 100.992 280.07 108.84C281.19 109.074 283.51 99.654 281.69 98.688C279.87 97.722 229.28 90.888 209.92 106.086C208.61 107.118 215.66 113.868 215.66 113.868Z" fill="#6750A4"/>
<path d="M206.3 143.328C206.3 141.9 194.3 147.306 194.14 148.266C193.98 149.226 200 164.538 220.4 166.488C223.08 166.74 230.47 157.638 230.8 156.024C231.13 154.41 228.8 151.47 228.8 151.47C228.8 151.47 222.41 159.27 220.39 159.342C218.37 159.414 206 152.076 206.3 143.328Z" fill="#6750A4"/>
<path d="M78.7001 201.378C66.5801 192.258 84.9901 183.912 98.5601 184.254C130.4 185.064 185.3 191.85 210.09 200.67C218.09 203.508 216.19 234.84 206.33 234.24C188.82 233.178 103.29 219.888 78.7001 201.378Z" fill="#C95F50"/>
<path d="M189.23 200.31C193.23 199.674 216.89 192.732 224.66 192.222C232.43 191.712 259.47 195.918 265.38 197.838C271.29 199.758 287.38 211.038 288.71 214.554C289.71 217.374 280.39 219.474 269.71 214.458C259.71 209.772 257.71 208.356 254.3 207.45C250.89 206.544 237.01 207.384 234.89 210.39C233.64 212.19 236.89 217.308 242.17 218.676C247.45 220.044 253.44 218.364 261.17 219.036C268.9 219.708 274.94 223.152 273.94 224.808C272.28 227.55 268.85 226.518 257.94 228.06C250.94 229.056 241.87 231.72 228.94 233.946C215.22 236.316 194.74 232.824 194.74 232.824L189.23 200.31Z" fill="#C95F50"/>
<path d="M278.5 225.15C278.5 225.15 278.34 221.46 275.18 219.828C272.516 218.353 269.005 217.554 265.38 217.596C261.55 217.542 255.89 217.98 255.03 217.362C256.01 218.092 256.818 218.9 257.43 219.762C258.184 220.917 259.122 222.027 260.23 223.074C264.09 226.17 269.23 226.728 271.6 226.512C273.97 226.296 277.73 225.072 278.5 225.15Z" fill="#455A64"/>
<path d="M227 191.364C236.53 191.004 256 192.234 267.7 196.764C275.61 199.83 281.52 219.708 276.33 221.328C271.14 222.948 268.08 220.446 264.33 216.414C262.95 214.944 258.54 205.92 254.56 205.8C248.84 205.62 233.86 208.764 233.86 208.764L227 191.364Z" fill="#C95F50"/>
<path d="M277.66 220.2C280.46 216.198 278.29 211.05 275.59 206.166C275.59 206.088 275.35 206.118 275.39 206.196C276.07 207.444 278.97 216.066 277.53 220.194C277.51 220.2 277.64 220.2 277.66 220.2Z" fill="#263238"/>
<path d="M227 191.364C236.53 191.004 256 192.234 267.7 196.764C275.61 199.83 274.47 218.106 269.28 219.72C264.09 221.334 259.34 217.92 256.81 212.91C255.99 211.296 255.81 204.774 251.81 204.648C246.09 204.468 231.98 204.096 231.98 204.096L227 191.364Z" fill="#C95F50"/>
<path d="M259.55 216.816C257.88 215.154 257.35 212.772 257 210.87C256.7 209.208 256.65 207.324 255.18 205.848C254.573 205.183 253.621 204.655 252.47 204.342C251.206 204.105 249.883 204.002 248.56 204.036C247.05 204.006 245.56 204.036 244.03 204.036C242.5 204.036 242.03 204.09 240.47 204.138C239.84 204.138 239.93 204.414 240.62 204.402C243.131 204.367 245.642 204.473 248.12 204.72C249.446 204.762 250.754 204.924 252 205.2C252.595 205.385 253.122 205.639 253.549 205.948C253.977 206.258 254.297 206.615 254.49 207C255.42 208.584 255.38 210.342 256.07 211.968C256.76 213.594 257.59 215.61 259.4 216.9C259.46 216.966 259.62 216.882 259.55 216.816Z" fill="#263238"/>
<path d="M273.26 216.984C274.47 215.088 274.6 212.868 274.57 210.858C274.512 208.73 274.178 206.607 273.57 204.51C273.27 203.43 272.92 202.356 272.52 201.288C272.289 200.24 271.755 199.225 270.94 198.288C268.31 195.888 262.64 194.994 260.64 194.508C260.52 194.508 260.42 194.586 260.54 194.616C262.17 195.03 267.54 196.326 269.22 197.772C270.191 198.696 270.825 199.733 271.08 200.814C271.39 201.744 271.7 202.674 271.98 203.604C273.09 207.402 273.81 211.5 272.58 215.316C271.9 217.434 270.15 219.516 266.39 220.038C266.26 220.038 266.3 220.17 266.39 220.17C269.56 220.254 272.21 218.634 273.26 216.984Z" fill="#263238"/>
<path d="M216.91 193.386C221.01 192.666 234.8 187.662 240.43 187.05C246.06 186.438 267.83 185.796 271.69 188.97C276.54 192.954 259.93 195.156 252.57 195.726C245.21 196.296 238.09 200.79 238.09 200.79L216.91 193.386Z" fill="#C95F50"/>
<path d="M264 194.286C261.541 194.411 259.095 194.611 256.67 194.886C254.335 195.054 252.025 195.329 249.76 195.708C247.55 196.146 241.9 198.552 241.11 199.05C237.47 201.342 230.36 206.502 222.47 210.882C219.453 212.516 216.119 213.926 212.54 215.082C211.64 215.37 211.17 215.754 212.54 215.406C225.73 212.106 239.49 201.192 242.18 199.656C244.643 198.347 247.434 197.278 250.45 196.488C254.89 195.6 259.59 195.288 264.05 194.418C264.27 194.436 264.18 194.274 264 194.286Z" fill="#263238"/>
<path d="M185.59 191.694L173.49 211.764L169.67 231.066C169.67 231.066 70.05 211.308 74.67 194.55C76.22 188.898 86.2 181.716 107.43 182.22C128.66 182.724 185.59 191.694 185.59 191.694Z" fill="#EBEBEB"/>
<path d="M185.81 192.192C183.66 191.724 181.56 191.202 179.39 190.764C177.22 190.326 175.15 189.918 173.01 189.522C168.72 188.73 164.34 188.04 160.01 187.398C151.37 186.134 142.628 185.133 133.82 184.398C130.65 183.63 127.35 183.042 124.13 182.364C124.03 182.364 124 182.43 124.13 182.454C126.76 183.054 129.37 183.69 132.02 184.254C130.02 184.092 127.94 183.93 125.89 183.792C123.41 183.624 120.89 183.57 118.44 183.432C118.35 183.432 118.33 183.522 118.44 183.528C120.64 183.696 122.83 183.954 125.02 184.176C127.21 184.398 129.5 184.596 131.73 184.824C136.17 185.28 140.59 185.772 145 186.318C153.77 187.41 162.53 188.61 171.17 190.056C173.58 190.458 176.01 190.83 178.43 191.256C180.85 191.682 183.36 192.024 185.8 192.456C186 192.504 186.07 192.252 185.81 192.192Z" fill="#263238"/>
<path d="M167.18 230.442C163.04 229.512 158.95 228.486 154.83 227.532C150.71 226.578 146.52 225.576 142.42 224.532C134.18 222.426 126.08 220.134 117.96 217.878C113.25 216.57 108.45 215.376 103.75 214.068C103.63 214.068 103.52 214.146 103.65 214.182C105.71 214.782 107.75 215.472 109.79 216.126C111.83 216.78 113.85 217.362 115.86 217.998C119.86 219.27 124.01 220.464 128.11 221.664C136.154 224.028 144.395 226.143 152.8 228C157.5 229.032 162.28 229.866 167.1 230.664C167.31 230.67 167.37 230.484 167.18 230.442Z" fill="#263238"/>
<path d="M187.86 191.682C187.74 191.466 169.86 188.592 169.86 188.592C169.86 188.592 151.54 206.436 151.32 208.668C151.1 210.9 148.83 227.868 149.08 228.054C149.33 228.24 170.61 232.974 171.08 232.608C171.55 232.242 175.08 214.038 175.28 212.64C175.48 211.242 187.86 191.682 187.86 191.682Z" fill="#6750A4"/>
<path d="M324.18 254.454C323.81 254.604 317.11 257.19 313.23 258.054C307.58 259.308 283.32 260.07 276.3 260.07C269.28 260.07 245.01 259.308 239.36 258.054C235.48 257.184 228.78 254.598 228.36 254.454C228.9 254.52 246.36 256.674 276.25 256.674C306.14 256.674 323.64 254.52 324.18 254.454Z" fill="#C7C7C7"/>
<path d="M276.3 257.964C319.218 257.964 354.01 253.438 354.01 247.854C354.01 242.27 319.218 237.744 276.3 237.744C233.382 237.744 198.59 242.27 198.59 247.854C198.59 253.438 233.382 257.964 276.3 257.964Z" fill="#DBDBDB"/>
<path d="M276.3 252.414C304.682 252.414 327.69 249.897 327.69 246.792C327.69 243.687 304.682 241.17 276.3 241.17C247.918 241.17 224.91 243.687 224.91 246.792C224.91 249.897 247.918 252.414 276.3 252.414Z" fill="#C7C7C7"/>
<path d="M276.3 251.178C297.679 251.178 315.01 249.389 315.01 247.182C315.01 244.975 297.679 243.186 276.3 243.186C254.921 243.186 237.59 244.975 237.59 247.182C237.59 249.389 254.921 251.178 276.3 251.178Z" fill="#6750A4"/>
<path opacity="0.1" d="M276.3 251.178C297.679 251.178 315.01 249.389 315.01 247.182C315.01 244.975 297.679 243.186 276.3 243.186C254.921 243.186 237.59 244.975 237.59 247.182C237.59 249.389 254.921 251.178 276.3 251.178Z" fill="black"/>
<path d="M303.06 246.216C293.06 248.202 281.29 248.496 276.3 248.496C271.31 248.496 259.5 248.202 249.53 246.216L251.2 236.16H301.39L303.06 246.216Z" fill="#6750A4"/>
<path d="M276.3 238.47C290.163 238.47 301.4 237.436 301.4 236.16C301.4 234.884 290.163 233.85 276.3 233.85C262.438 233.85 251.2 234.884 251.2 236.16C251.2 237.436 262.438 238.47 276.3 238.47Z" fill="#6750A4"/>
<path opacity="0.1" d="M301.33 236.316H301.4C301.4 236.316 300.28 238.116 298.78 238.176C297.86 238.23 296.88 237.792 296.23 238.56C295.58 239.328 298.04 242.328 295.69 242.328C293.34 242.328 294.82 239.814 294.46 239.28C294.308 239.004 293.995 238.77 293.577 238.622C293.159 238.474 292.666 238.422 292.19 238.476C291.24 238.626 289.92 240.012 288.45 239.574C286.98 239.136 285.65 239.28 285.2 239.796C284.75 240.312 286.2 241.728 284.32 241.758C282.44 241.788 285.06 239.358 282.59 239.004C280.97 238.776 280.15 239.604 278.42 239.646C276.69 239.688 276.03 239.046 274.42 239.112C272.81 239.178 272.52 240.51 270.69 240.51C269.27 240.51 268.69 239.112 267.8 239.154C266.91 239.196 266.27 239.754 264.66 239.628C263.05 239.502 262.94 238.698 261.48 238.476C260.4 238.308 259.1 238.422 258.75 238.872C258.01 239.844 259.53 242.328 257.63 242.328C255.73 242.328 256.46 240.528 256.51 239.592C256.56 238.656 256 237.6 254.51 237.306L254.23 237.258C253.54 237.18 253.04 238.092 251.91 237.75C251.4 237.594 251.21 236.316 251.21 236.316H251.27C251.232 236.267 251.212 236.214 251.21 236.16C251.21 234.882 262.44 233.85 276.31 233.85C290.18 233.85 301.41 234.882 301.41 236.16C301.401 236.215 301.374 236.268 301.33 236.316Z" fill="black"/>
<path d="M252.07 236.04C256.061 236.51 260.09 236.852 264.14 237.066L267.14 237.216L270.14 237.336C272.14 237.378 274.2 237.426 276.23 237.408C278.26 237.39 280.28 237.378 282.31 237.348C284.34 237.318 286.36 237.204 288.38 237.078C289.38 237.012 290.38 236.976 291.38 236.892L294.38 236.64C296.38 236.502 298.38 236.22 300.38 236.04C299.38 236.202 298.38 236.358 297.38 236.508C296.38 236.658 295.38 236.82 294.38 236.928L291.38 237.27C290.38 237.378 289.38 237.444 288.38 237.534C284.326 237.854 280.24 238.012 276.15 238.008C272.058 237.998 267.97 237.838 263.91 237.528C261.91 237.36 259.86 237.168 257.86 236.928C255.86 236.688 254 236.4 252.07 236.04Z" fill="#6750A4"/>
<path d="M284.44 227.238C284.44 227.238 282.15 228.264 282 228.978C281.87 229.578 280.42 229.056 280.45 228.312C280.464 228.129 280.557 227.951 280.72 227.796C281.811 227.691 282.818 227.382 283.6 226.914C283.682 226.917 283.763 226.927 283.84 226.944C283.97 226.964 284.09 227.001 284.194 227.052C284.297 227.103 284.381 227.166 284.44 227.238Z" fill="#455A64"/>
<path d="M284.44 227.238C284.44 227.238 282.15 228.264 282 228.978C281.87 229.578 280.42 229.056 280.45 228.312C280.701 228.329 280.956 228.313 281.195 228.263C281.434 228.213 281.651 228.131 281.83 228.024C282.46 227.736 283.83 227.496 283.83 226.944C283.961 226.963 284.084 227 284.189 227.051C284.295 227.101 284.38 227.165 284.44 227.238Z" fill="#37474F"/>
<path d="M280.27 228.648C279.973 228.456 279.732 228.235 279.56 227.994L279.51 227.934C279.129 227.495 278.97 226.999 279.05 226.506C279.29 226.098 281.05 225.666 281.44 225.672C281.83 225.678 281.26 226.236 280.94 226.872C280.62 227.508 280.47 227.988 280.94 228.306C281.87 229.002 284.29 228.69 284.94 228.804C285.485 228.886 285.991 229.042 286.42 229.26C286.443 229.28 286.46 229.302 286.47 229.326C286.48 229.452 283.83 230.73 280.27 228.648Z" fill="#455A64"/>
<path d="M280.27 228.648C279.973 228.456 279.732 228.235 279.56 227.994C280.077 228.303 280.675 228.558 281.33 228.75C282.344 229.076 283.497 229.211 284.64 229.14C285.231 229.073 285.841 229.109 286.4 229.242C286.423 229.262 286.44 229.284 286.45 229.308C286.48 229.452 283.83 230.73 280.27 228.648Z" fill="#37474F"/>
<path d="M286.65 230.676C286.345 230.814 285.996 230.912 285.623 230.964C285.251 231.016 284.865 231.02 284.49 230.976C283.768 230.876 283.09 230.687 282.499 230.419C281.907 230.151 281.417 229.811 281.06 229.422C280.66 228.984 278.44 228.066 277.49 227.364L277.44 227.328C277.247 227.2 277.116 227.042 277.06 226.872C276.96 226.194 278.14 225.264 278.52 225.36C278.71 225.414 278.7 225.672 278.68 225.996C278.641 226.319 278.691 226.643 278.83 226.956C279.469 227.772 280.43 228.483 281.63 229.026C283.69 230.076 286.63 230.49 286.7 230.604C286.71 230.622 286.7 230.646 286.65 230.676Z" fill="#455A64"/>
<path d="M286.65 230.676C286.345 230.814 285.996 230.912 285.624 230.964C285.251 231.016 284.865 231.02 284.49 230.976C283.768 230.876 283.09 230.687 282.499 230.419C281.908 230.151 281.417 229.811 281.06 229.422C280.66 228.984 278.44 228.066 277.49 227.364C278.91 228.138 280.63 228.684 282.06 229.452C282.711 229.88 283.491 230.231 284.36 230.484C285.086 230.66 285.872 230.726 286.65 230.676Z" fill="#37474F"/>
<path d="M278.15 235.644C275.748 235.911 273.289 235.941 270.87 235.734C270.364 235.692 269.865 235.622 269.38 235.524C269.18 235.488 268.993 235.429 268.83 235.35C268.14 234.966 267.7 234.012 268.13 231.876C268.56 229.74 271.27 227.478 274.31 227.238C275.261 227.183 276.22 227.263 277.109 227.471C277.999 227.68 278.794 228.011 279.43 228.438L279.69 228.612C279.84 228.676 280.001 228.731 280.17 228.774C281.4 229.128 284.5 229.974 284.61 231.774C284.75 233.952 282 235.2 278.15 235.644Z" fill="#C95F50"/>
<path d="M277.35 228.702C277.28 228.642 277.09 228.672 277 228.702C276.91 228.732 276.73 228.786 276.73 228.87C276.728 228.892 276.736 228.914 276.753 228.933C276.771 228.952 276.798 228.968 276.83 228.978C276.863 228.991 276.901 228.998 276.94 228.998C276.979 228.998 277.017 228.991 277.05 228.978C277.167 228.937 277.267 228.879 277.34 228.81C277.349 228.782 277.349 228.754 277.34 228.726L277.35 228.702Z" fill="#6750A4"/>
<path d="M275.3 227.718C275.264 227.691 275.218 227.67 275.166 227.657C275.114 227.643 275.057 227.637 275 227.64C274.88 227.64 274.75 227.694 274.75 227.778C274.755 227.795 274.765 227.812 274.781 227.827C274.797 227.841 274.818 227.854 274.842 227.864C274.866 227.874 274.893 227.881 274.922 227.885C274.951 227.889 274.981 227.889 275.01 227.885C275.072 227.884 275.132 227.875 275.187 227.858C275.243 227.842 275.291 227.818 275.33 227.79C275.339 227.784 275.346 227.778 275.35 227.771C275.354 227.763 275.354 227.756 275.351 227.748C275.348 227.741 275.342 227.734 275.333 227.729C275.324 227.723 275.312 227.72 275.3 227.718Z" fill="#6750A4"/>
<path d="M274.74 228.756C274.744 228.746 274.744 228.736 274.74 228.726C274.634 228.702 274.516 228.702 274.41 228.726C274.32 228.756 274.22 228.81 274.24 228.876C274.244 228.893 274.254 228.909 274.27 228.923C274.287 228.938 274.308 228.95 274.333 228.959C274.358 228.967 274.386 228.972 274.415 228.973C274.444 228.975 274.473 228.972 274.5 228.965C274.618 228.941 274.722 228.898 274.8 228.84C274.806 228.824 274.803 228.807 274.793 228.792C274.782 228.777 274.763 228.764 274.74 228.756Z" fill="#6750A4"/>
<path d="M274.74 230.352C274.74 230.352 274.74 230.316 274.74 230.304C274.74 230.292 274.48 230.304 274.39 230.304C274.3 230.304 274.12 230.442 274.16 230.526C274.2 230.61 274.4 230.622 274.52 230.574C274.644 230.528 274.733 230.455 274.77 230.37C274.762 230.363 274.751 230.357 274.74 230.352Z" fill="#6750A4"/>
<path d="M271.87 228.996C271.848 228.991 271.823 228.991 271.8 228.996C271.731 228.997 271.662 229.007 271.6 229.026C271.538 229.044 271.483 229.071 271.44 229.104C271.36 229.164 271.29 229.26 271.44 229.326C271.59 229.392 271.66 229.326 271.73 229.29C271.827 229.203 271.876 229.1 271.87 228.996Z" fill="#6750A4"/>
<path d="M272.14 230.622C272.127 230.617 272.111 230.614 272.095 230.614C272.079 230.614 272.063 230.617 272.05 230.622C272 230.619 271.949 230.622 271.901 230.632C271.852 230.641 271.808 230.656 271.77 230.676C271.726 230.695 271.69 230.721 271.666 230.75C271.641 230.779 271.629 230.811 271.63 230.844C271.631 230.859 271.639 230.874 271.651 230.887C271.664 230.901 271.682 230.912 271.704 230.92C271.725 230.928 271.75 230.933 271.775 230.935C271.801 230.936 271.826 230.934 271.85 230.928C271.946 230.902 272.029 230.86 272.09 230.808C272.12 230.748 272.22 230.664 272.14 230.622Z" fill="#6750A4"/>
<path d="M272.94 232.362C272.938 232.35 272.928 232.34 272.913 232.332C272.899 232.324 272.88 232.32 272.86 232.32C272.856 232.313 272.85 232.307 272.841 232.302C272.832 232.296 272.822 232.292 272.81 232.29C272.57 232.29 272.29 232.512 272.43 232.638C272.57 232.764 272.69 232.638 272.78 232.638C272.837 232.601 272.88 232.558 272.908 232.51C272.936 232.463 272.946 232.412 272.94 232.362Z" fill="#6750A4"/>
<path d="M275.69 232.08C275.697 232.068 275.697 232.056 275.69 232.044C275.57 231.978 275.42 232.044 275.32 232.086C275.22 232.128 275.09 232.23 275.17 232.314C275.22 232.342 275.286 232.358 275.355 232.358C275.424 232.358 275.49 232.342 275.54 232.314C275.596 232.286 275.639 232.25 275.665 232.209C275.692 232.168 275.7 232.123 275.69 232.08Z" fill="#6750A4"/>
<path d="M269.49 230.934C269.49 230.904 269.49 230.868 269.43 230.862C269.355 230.854 269.278 230.864 269.213 230.888C269.149 230.912 269.101 230.95 269.08 230.994C269.03 231.072 268.92 231.192 269.08 231.258C269.24 231.324 269.35 231.258 269.42 231.174C269.491 231.102 269.516 231.016 269.49 230.934Z" fill="#6750A4"/>
<path d="M270.34 232.872C270.346 232.858 270.346 232.844 270.34 232.83C270.27 232.758 270.11 232.782 270.03 232.83C269.979 232.864 269.94 232.904 269.916 232.947C269.892 232.991 269.883 233.036 269.89 233.082C269.897 233.1 269.911 233.117 269.933 233.13C269.954 233.144 269.981 233.154 270.011 233.158C270.041 233.163 270.072 233.163 270.102 233.158C270.132 233.153 270.159 233.144 270.18 233.13C270.287 233.06 270.345 232.967 270.34 232.872Z" fill="#6750A4"/>
<path d="M277.35 230.226C277.14 230.226 276.82 230.358 276.95 230.484C276.986 230.512 277.038 230.53 277.095 230.536C277.153 230.541 277.212 230.534 277.26 230.514C277.308 230.49 277.349 230.462 277.38 230.43C277.423 230.395 277.464 230.359 277.5 230.322C277.509 230.309 277.512 230.295 277.508 230.281C277.504 230.268 277.493 230.255 277.477 230.245C277.461 230.235 277.441 230.227 277.418 230.224C277.396 230.221 277.372 230.221 277.35 230.226Z" fill="#6750A4"/>
<path d="M279.8 229.668C279.8 229.626 279.67 229.608 279.63 229.668C279.548 229.695 279.479 229.734 279.43 229.782C279.38 229.836 279.35 229.92 279.43 229.962C279.51 230.004 279.86 229.764 279.8 229.668Z" fill="#6750A4"/>
<path d="M282.68 230.532C282.686 230.446 282.636 230.362 282.54 230.298C282.54 230.268 282.42 230.298 282.38 230.298C282.369 230.295 282.357 230.293 282.345 230.293C282.333 230.293 282.321 230.295 282.31 230.298C282.275 230.327 282.252 230.361 282.243 230.396C282.234 230.432 282.24 230.468 282.26 230.502C282.26 230.568 282.37 230.646 282.49 230.652C282.61 230.658 282.68 230.604 282.68 230.532Z" fill="#6750A4"/>
<path d="M284.11 232.164C284.11 232.086 284.05 231.972 283.89 231.972C283.875 231.973 283.86 231.976 283.848 231.981C283.835 231.986 283.826 231.994 283.82 232.002C283.761 232.04 283.718 232.086 283.693 232.136C283.669 232.186 283.664 232.239 283.68 232.29C283.68 232.368 283.84 232.446 283.98 232.386C284.069 232.325 284.115 232.245 284.11 232.164Z" fill="#6750A4"/>
<path d="M281 231.432C280.992 231.425 280.981 231.418 280.967 231.414C280.954 231.41 280.94 231.408 280.925 231.408C280.91 231.408 280.895 231.41 280.882 231.414C280.869 231.418 280.858 231.425 280.85 231.432C280.731 231.483 280.641 231.554 280.59 231.636C280.573 231.653 280.561 231.672 280.557 231.692C280.553 231.712 280.556 231.732 280.565 231.751C280.574 231.77 280.59 231.788 280.612 231.803C280.633 231.819 280.66 231.831 280.69 231.84C281 231.918 281.09 231.54 281 231.432Z" fill="#6750A4"/>
<path d="M278.31 231.63C278.182 231.658 278.071 231.708 277.99 231.774C277.944 231.806 277.912 231.844 277.897 231.884C277.881 231.925 277.882 231.968 277.9 232.008C277.97 232.104 278.16 232.08 278.26 232.008C278.347 231.926 278.402 231.834 278.42 231.738C278.444 231.729 278.461 231.715 278.467 231.699C278.474 231.683 278.469 231.665 278.455 231.651C278.44 231.637 278.417 231.626 278.39 231.622C278.362 231.619 278.334 231.621 278.31 231.63Z" fill="#6750A4"/>
<path d="M282 232.728C281.998 232.716 281.989 232.704 281.975 232.694C281.962 232.685 281.944 232.678 281.924 232.674C281.904 232.67 281.883 232.67 281.863 232.673C281.843 232.676 281.824 232.683 281.81 232.692C281.691 232.721 281.59 232.771 281.52 232.836C281.477 232.864 281.454 232.9 281.454 232.938C281.454 232.976 281.477 233.012 281.52 233.04C281.83 233.172 282 232.836 282 232.728Z" fill="#6750A4"/>
<path d="M282.06 234.228C282.016 234.21 281.964 234.201 281.91 234.201C281.857 234.201 281.805 234.21 281.76 234.228C281.708 234.248 281.666 234.276 281.636 234.308C281.606 234.34 281.591 234.377 281.59 234.414C281.59 234.51 281.78 234.534 281.91 234.498C282.036 234.454 282.134 234.387 282.19 234.306C282.192 234.296 282.19 234.285 282.184 234.275C282.178 234.265 282.168 234.256 282.156 234.249C282.143 234.241 282.128 234.236 282.112 234.232C282.095 234.228 282.078 234.227 282.06 234.228Z" fill="#6750A4"/>
<path d="M279.29 234.828C279.29 234.768 279.11 234.768 279.02 234.78C278.93 234.792 278.77 234.846 278.75 234.924C278.73 235.001 278.91 235.049 279.04 235.043C279.11 235.039 279.178 235.025 279.237 235.002C279.296 234.979 279.345 234.948 279.38 234.912C279.387 234.903 279.389 234.893 279.388 234.883C279.387 234.873 279.381 234.864 279.373 234.855C279.364 234.847 279.351 234.84 279.337 234.835C279.323 234.831 279.307 234.828 279.29 234.828Z" fill="#6750A4"/>
<path d="M279.59 233.4C279.596 233.39 279.596 233.38 279.59 233.37C279.59 233.37 279.59 233.31 279.53 233.316C279.402 233.32 279.279 233.35 279.18 233.4C279.1 233.442 279 233.513 279.04 233.585C279.08 233.657 279.62 233.543 279.59 233.4Z" fill="#6750A4"/>
<path d="M276.72 233.652C276.58 233.649 276.443 233.679 276.34 233.736C276.25 233.784 276.13 233.874 276.25 233.94C276.37 234.006 276.88 233.85 276.91 233.718C276.94 233.586 276.79 233.616 276.72 233.652Z" fill="#6750A4"/>
<path d="M276.53 235.068V235.032C276.48 235.011 276.423 234.996 276.362 234.989C276.302 234.982 276.24 234.982 276.18 234.99C276.06 234.99 275.93 235.074 275.94 235.152C275.95 235.229 276.14 235.247 276.26 235.229C276.38 235.211 276.53 235.151 276.53 235.068Z" fill="#6750A4"/>
<path d="M274 233.79C273.987 233.785 273.971 233.782 273.955 233.782C273.939 233.782 273.923 233.785 273.91 233.79C273.903 233.787 273.894 233.786 273.885 233.786C273.876 233.786 273.868 233.787 273.86 233.79C273.796 233.793 273.734 233.803 273.678 233.821C273.621 233.838 273.571 233.863 273.53 233.892C273.487 233.921 273.462 233.958 273.462 233.997C273.462 234.036 273.487 234.073 273.53 234.102C273.71 234.192 274.07 233.922 274 233.79Z" fill="#6750A4"/>
<path d="M273.53 235.2C273.53 235.2 273.53 235.164 273.53 235.158C273.53 235.086 273.35 235.08 273.26 235.092C273.17 235.104 273 235.17 273.01 235.248C273.02 235.325 273.17 235.361 273.29 235.349C273.41 235.337 273.54 235.277 273.53 235.2Z" fill="#6750A4"/>
<path d="M271.21 235.23C271.21 235.23 270.99 235.23 270.9 235.23C270.81 235.23 270.67 235.29 270.74 235.362C270.81 235.433 270.92 235.415 271.01 235.403C271.1 235.391 271.24 235.374 271.27 235.308C271.279 235.301 271.285 235.292 271.287 235.284C271.289 235.275 271.287 235.266 271.28 235.258C271.274 235.25 271.264 235.243 271.252 235.238C271.239 235.233 271.225 235.23 271.21 235.23Z" fill="#6750A4"/>
<path d="M271.37 234.126C271.255 234.137 271.149 234.171 271.07 234.222C271.05 234.233 271.035 234.246 271.024 234.261C271.013 234.276 271.008 234.292 271.008 234.308C271.008 234.325 271.013 234.341 271.024 234.356C271.035 234.371 271.05 234.384 271.07 234.395C271.17 234.449 271.28 234.395 271.35 234.359C271.42 234.323 271.44 234.198 271.37 234.126Z" fill="#6750A4"/>
<path d="M268.84 234C268.831 233.994 268.819 233.989 268.806 233.985C268.793 233.982 268.779 233.98 268.765 233.98C268.751 233.98 268.737 233.982 268.724 233.985C268.711 233.989 268.699 233.994 268.69 234C268.69 234 268.61 234 268.6 234C268.544 234.065 268.51 234.137 268.5 234.21C268.5 234.27 268.58 234.336 268.69 234.324C268.8 234.312 269 234.102 268.84 234Z" fill="#6750A4"/>
<g opacity="0.2">
<path d="M275.85 232.338C275.7 232.398 275.58 232.476 275.43 232.524C275.345 232.548 275.254 232.565 275.16 232.572C275.08 232.572 275.02 232.572 274.95 232.572V232.602C275 232.716 275.32 232.68 275.46 232.65C275.678 232.603 275.862 232.512 275.98 232.392C276 232.356 275.9 232.314 275.85 232.338Z" fill="white"/>
<path d="M278.65 231.996C278.646 231.991 278.639 231.987 278.631 231.984C278.624 231.981 278.614 231.979 278.605 231.979C278.596 231.979 278.586 231.981 278.578 231.984C278.57 231.987 278.564 231.991 278.56 231.996C278.44 232.056 278.41 232.158 278.31 232.23C278.254 232.272 278.182 232.305 278.1 232.325C278.018 232.346 277.929 232.355 277.84 232.35C277.827 232.353 277.816 232.359 277.808 232.365C277.8 232.372 277.796 232.381 277.796 232.389C277.796 232.397 277.8 232.406 277.808 232.413C277.816 232.42 277.827 232.425 277.84 232.428C277.939 232.457 278.05 232.467 278.159 232.457C278.267 232.448 278.369 232.419 278.45 232.374C278.55 232.284 278.73 232.116 278.65 231.996Z" fill="white"/>
<path d="M278.789 231.774H278.71C278.71 231.774 278.71 231.866 278.779 231.841C278.792 231.832 278.799 231.821 278.801 231.809C278.802 231.797 278.798 231.785 278.789 231.774Z" fill="white"/>
<path d="M274.19 234.048C274.07 234.09 273.97 234.15 273.84 234.186C273.703 234.209 273.562 234.223 273.42 234.228C273.399 234.228 273.378 234.233 273.363 234.242C273.348 234.251 273.34 234.263 273.34 234.276C273.34 234.289 273.348 234.301 273.363 234.31C273.378 234.319 273.399 234.324 273.42 234.324C273.599 234.367 273.797 234.37 273.98 234.334C274.163 234.298 274.318 234.224 274.42 234.126C274.39 234.066 274.28 234 274.19 234.048Z" fill="white"/>
<path d="M272.39 230.904C272.39 230.896 272.386 230.889 272.379 230.882C272.373 230.876 272.364 230.87 272.353 230.866C272.343 230.862 272.33 230.859 272.318 230.859C272.305 230.858 272.292 230.859 272.28 230.862C272.18 230.898 272.12 230.964 272.03 231.006C271.983 231.037 271.923 231.06 271.856 231.072C271.79 231.085 271.719 231.087 271.65 231.078C271.636 231.071 271.617 231.068 271.598 231.069C271.579 231.07 271.562 231.075 271.55 231.084C271.538 231.093 271.533 231.104 271.535 231.115C271.536 231.127 271.546 231.137 271.56 231.144C271.75 231.342 272.43 231.09 272.39 230.904Z" fill="white"/>
<path d="M270.5 233.124C270.31 233.196 270.13 233.345 269.87 233.268C269.8 233.268 269.73 233.309 269.8 233.339C269.94 233.386 270.105 233.398 270.259 233.373C270.414 233.349 270.547 233.29 270.63 233.208C270.641 233.197 270.645 233.184 270.643 233.171C270.64 233.159 270.631 233.147 270.617 233.137C270.602 233.128 270.583 233.122 270.562 233.119C270.541 233.117 270.519 233.119 270.5 233.124Z" fill="white"/>
<path d="M272.76 232.842C272.721 232.836 272.679 232.836 272.64 232.842C272.64 232.842 272.56 232.842 272.52 232.842C272.511 232.845 272.504 232.848 272.499 232.853C272.494 232.858 272.492 232.864 272.492 232.869C272.492 232.875 272.494 232.88 272.499 232.885C272.504 232.89 272.511 232.894 272.52 232.896C272.542 232.911 272.57 232.922 272.602 232.929C272.633 232.935 272.667 232.936 272.7 232.932C272.733 232.935 272.766 232.93 272.793 232.919C272.821 232.908 272.841 232.891 272.85 232.872C272.85 232.866 272.847 232.86 272.841 232.855C272.836 232.849 272.828 232.845 272.819 232.842C272.81 232.839 272.8 232.837 272.789 232.837C272.779 232.837 272.769 232.839 272.76 232.842Z" fill="white"/>
<path d="M273.2 232.716C273.201 232.706 273.197 232.696 273.188 232.687C273.179 232.679 273.166 232.672 273.15 232.668C273.08 232.668 273.03 232.71 273.07 232.746C273.11 232.782 273.21 232.746 273.21 232.746L273.2 232.716Z" fill="white"/>
<path d="M275.06 230.496C274.94 230.544 274.89 230.634 274.81 230.7C274.753 230.747 274.674 230.782 274.583 230.801C274.492 230.821 274.393 230.823 274.3 230.808C274.25 230.808 274.21 230.838 274.3 230.856C274.384 230.876 274.476 230.884 274.566 230.879C274.657 230.874 274.744 230.856 274.82 230.826C275.009 230.765 275.155 230.665 275.23 230.544C275.2 230.502 275.11 230.466 275.06 230.496Z" fill="white"/>
<path d="M277.58 230.52C277.48 230.562 277.42 230.634 277.32 230.676C277.26 230.701 277.189 230.715 277.115 230.715C277.041 230.715 276.97 230.701 276.91 230.676C276.86 230.676 276.81 230.705 276.85 230.729C276.915 230.756 276.991 230.77 277.07 230.77C277.148 230.77 277.225 230.756 277.29 230.729C277.449 230.684 277.574 230.605 277.64 230.508C277.64 230.508 277.61 230.502 277.58 230.52Z" fill="white"/>
<path d="M279.9 230.022H279.82C279.74 230.052 279.69 230.094 279.6 230.112C279.512 230.127 279.418 230.127 279.33 230.112C279.33 230.112 279.26 230.142 279.33 230.154C279.381 230.178 279.442 230.195 279.507 230.201C279.572 230.207 279.638 230.203 279.7 230.19C279.77 230.16 279.91 230.1 279.9 230.022Z" fill="white"/>
<path d="M280 229.8C279.94 229.8 279.92 229.849 280 229.855C280.071 229.861 280.081 229.8 280 229.8Z" fill="white"/>
<path d="M277.29 229.044C277.166 229.087 277.019 229.1 276.88 229.08C276.872 229.083 276.865 229.088 276.86 229.093C276.855 229.098 276.853 229.104 276.853 229.11C276.853 229.116 276.855 229.122 276.86 229.127C276.865 229.133 276.872 229.137 276.88 229.14C276.964 229.174 277.065 229.189 277.166 229.183C277.266 229.176 277.36 229.148 277.43 229.104C277.45 229.068 277.36 229.02 277.29 229.044Z" fill="white"/>
<path d="M277.7 229.002C277.699 228.993 277.694 228.984 277.685 228.977C277.676 228.969 277.664 228.964 277.65 228.96C277.59 228.96 277.54 229.002 277.58 229.032C277.587 229.04 277.597 229.046 277.609 229.05C277.622 229.055 277.636 229.057 277.65 229.057C277.664 229.057 277.678 229.055 277.69 229.05C277.703 229.046 277.713 229.04 277.72 229.032L277.7 229.002Z" fill="white"/>
<path d="M281.08 231.858C281.025 231.91 280.95 231.952 280.861 231.982C280.772 232.013 280.672 232.029 280.57 232.031C280.56 232.034 280.55 232.039 280.544 232.045C280.538 232.051 280.534 232.057 280.534 232.064C280.534 232.071 280.538 232.078 280.544 232.084C280.55 232.09 280.56 232.094 280.57 232.097C280.634 232.109 280.7 232.112 280.766 232.107C280.831 232.101 280.894 232.087 280.95 232.065C281.005 232.044 281.052 232.015 281.086 231.981C281.121 231.947 281.143 231.909 281.15 231.87C281.15 231.87 281.1 231.84 281.08 231.858Z" fill="white"/>
<path d="M281.239 231.642C281.226 231.642 281.214 231.645 281.204 231.651C281.195 231.657 281.19 231.665 281.19 231.673C281.19 231.681 281.195 231.689 281.204 231.694C281.214 231.7 281.226 231.703 281.239 231.703C281.279 231.709 281.299 231.648 281.239 231.642Z" fill="white"/>
<path d="M279.61 233.64C279.522 233.698 279.409 233.739 279.284 233.76C279.158 233.781 279.025 233.781 278.9 233.76C278.84 233.76 278.79 233.802 278.9 233.819C279.046 233.865 279.216 233.876 279.375 233.85C279.534 233.825 279.671 233.765 279.76 233.682C279.76 233.64 279.66 233.61 279.61 233.64Z" fill="white"/>
<path d="M281.81 233.1C281.71 233.142 281.6 233.214 281.47 233.184C281.34 233.154 281.37 233.214 281.47 233.232C281.552 233.251 281.642 233.255 281.727 233.241C281.812 233.226 281.887 233.196 281.94 233.154C282 233.124 281.87 233.082 281.81 233.1Z" fill="white"/>
<path d="M276.7 234C276.61 234.025 276.516 234.046 276.42 234.06C276.311 234.071 276.198 234.061 276.1 234.03C276.05 234.03 276.01 234.06 276.05 234.084C276.09 234.108 276.65 234.211 276.78 234.054C276.784 234.047 276.784 234.04 276.782 234.033C276.779 234.025 276.774 234.019 276.766 234.013C276.758 234.008 276.747 234.004 276.736 234.001C276.724 233.999 276.712 233.999 276.7 234Z" fill="white"/>
<path d="M271.33 234.48C271.265 234.513 271.185 234.532 271.1 234.534C271.015 234.53 270.933 234.514 270.86 234.486C270.86 234.486 270.79 234.486 270.81 234.522C270.848 234.548 270.894 234.568 270.946 234.582C270.997 234.596 271.053 234.604 271.11 234.604C271.167 234.604 271.223 234.596 271.275 234.582C271.327 234.568 271.373 234.548 271.41 234.522C271.45 234.504 271.39 234.456 271.33 234.48Z" fill="white"/>
<path d="M271.17 235.458L270.94 235.524C270.857 235.53 270.773 235.53 270.69 235.524C270.69 235.524 270.63 235.56 270.69 235.572C270.786 235.589 270.888 235.589 270.984 235.572C271.08 235.555 271.165 235.522 271.23 235.476C271.23 235.476 271.21 235.446 271.17 235.458Z" fill="white"/>
<path d="M282.48 230.856C282.42 230.856 282.38 230.856 282.32 230.856C282.26 230.856 282.26 230.856 282.32 230.892C282.342 230.907 282.37 230.919 282.401 230.926C282.433 230.934 282.466 230.936 282.5 230.934C282.5 230.934 282.53 230.862 282.48 230.856Z" fill="white"/>
</g>
<path d="M445.81 227.658V253.29C445.81 255.126 444.67 256.62 443.28 256.62H426.84H410.38C408.99 256.62 407.86 255.144 407.86 253.308V227.658C407.86 225.822 408.99 224.346 410.38 224.346H411.9V221.946H426.84H441.76V224.346H443.28C444.67 224.346 445.81 225.822 445.81 227.658Z" fill="#6750A4"/>
<path d="M442.8 217.998H410.83V222.312H442.8V217.998Z" fill="#37474F"/>
<path d="M445.8 233.094H407.86V249.288H445.8V233.094Z" fill="#EBEBEB"/>
<path d="M403.65 252.102C403.65 255.462 401.55 256.62 400.48 256.626H382.24C381.17 256.626 379.06 255.474 379.05 252.114C379.05 248.13 383.8 245.736 383.79 243.558C383.79 242.136 381.51 237.732 382.49 237.732H400.14C401.14 237.732 398.86 242.142 398.86 243.564C398.87 245.736 403.64 248.118 403.65 252.102Z" fill="#C7C7C7"/>
<path d="M383.826 234.788L398.716 234.776C399.286 234.775 399.833 234.911 400.237 235.152C400.641 235.394 400.868 235.722 400.869 236.064L400.875 238.686C400.875 238.71 400.859 238.733 400.831 238.75C400.803 238.767 400.765 238.776 400.725 238.776L381.845 238.792C381.806 238.792 381.767 238.782 381.739 238.766C381.711 238.749 381.695 238.726 381.695 238.702L381.689 236.08C381.688 235.739 381.913 235.412 382.313 235.169C382.714 234.927 383.258 234.79 383.826 234.788Z" fill="#37474F"/>
<path d="M176.71 254.046C176.518 254.967 176.011 255.854 175.219 256.651C174.427 257.449 173.369 258.139 172.11 258.678C166.73 261.234 157.75 262.32 148.68 261.516C142.54 260.976 134.83 258.906 127.37 256.902C119.91 254.898 112.67 252.948 107.6 252.702L47.5999 249.6L47.9199 247.392L49.3199 247.464L49.1199 248.826L107.72 251.856C113.03 252.132 120.28 254.082 127.95 256.14C135.32 258.12 142.95 260.166 148.88 260.694C157.58 261.462 166.15 260.442 171.23 258.03C172.338 257.56 173.273 256.958 173.975 256.261C174.677 255.564 175.132 254.787 175.31 253.98L176.71 254.046Z" fill="#A6A6A6"/>
<path d="M176.4 252.06C176.696 252.706 176.801 253.378 176.71 254.046L175.31 253.968C175.364 253.155 175.137 252.344 174.643 251.586C174.149 250.828 173.399 250.14 172.44 249.564C168.12 246.666 159.98 244.764 151.19 244.644C145.19 244.554 137.09 245.79 129.26 246.984C121.12 248.226 113.42 249.384 108.11 249.126L49.5199 246.126L49.3199 247.482L47.9199 247.41L48.2299 245.208L108.23 248.31C113.3 248.574 120.89 247.416 128.92 246.192C136.95 244.968 145.02 243.738 151.23 243.834C160.39 243.972 168.92 245.964 173.5 249.03C174.839 249.894 175.83 250.931 176.4 252.06Z" fill="#A6A6A6"/>
<path d="M176.71 254.046C176.609 254.498 176.355 254.932 175.963 255.322C175.571 255.712 175.049 256.05 174.43 256.314C169.96 258.48 159.78 259.398 149.11 258.588C143 258.126 135.22 256.638 127.7 255.192C120.18 253.746 112.8 252.336 107.7 252.072L47.7 248.964L47.93 247.38L49.33 247.452L49.22 248.196L107.82 251.196C113.09 251.472 120.4 252.87 128.14 254.358C135.6 255.786 143.31 257.268 149.3 257.724C159.45 258.492 169.42 257.628 173.55 255.624C174.022 255.431 174.422 255.181 174.727 254.891C175.031 254.601 175.233 254.277 175.32 253.938L176.71 254.046Z" fill="#A6A6A6"/>
<path d="M176.56 253.098C176.704 253.406 176.755 253.727 176.71 254.046L176.65 254.466L47.8499 247.8L48.1399 245.79L108.14 248.892C113.26 249.162 120.78 248.532 128.74 247.872C136.7 247.212 144.66 246.552 150.82 246.726C161.56 247.026 171.32 248.97 175.11 251.568C175.78 252.006 176.276 252.529 176.56 253.098ZM175.28 253.542C175.099 253.012 174.673 252.523 174.05 252.132C170.55 249.732 160.97 247.86 150.75 247.578C144.75 247.404 136.7 248.07 128.94 248.718C120.94 249.384 113.29 250.014 108.02 249.744L49.4299 246.714V247.032L175.28 253.542Z" fill="#A6A6A6"/>
<path d="M44.6599 250.86L92.0199 253.308L93.0599 246.072L45.4299 243.606L44.6599 250.86Z" fill="#37474F"/>
<path d="M371.17 98.7C370.496 102.586 368.034 106.283 364.061 109.379C360.088 112.474 354.758 114.846 348.669 116.229C342.579 117.613 335.968 117.954 329.574 117.214C323.18 116.473 317.255 114.682 312.46 112.038L294.88 113.586L303.68 104.466C301.663 101.498 300.801 98.293 301.159 95.095C301.517 91.897 303.086 88.79 305.745 86.0103C308.405 83.2306 312.086 80.8513 316.508 79.0533C320.931 77.2553 325.978 76.086 331.267 75.6341C336.555 75.1823 341.946 75.4599 347.029 76.4458C352.112 77.4317 356.754 79.0999 360.601 81.3238C364.448 83.5476 367.399 86.2684 369.231 89.2793C371.062 92.2903 371.725 95.5122 371.17 98.7Z" fill="white"/>
<path d="M371.17 98.7C370.493 102.586 368.039 106.284 364.08 109.386C362.148 110.953 359.824 112.331 357.19 113.472C354.598 114.65 351.744 115.603 348.71 116.304C345.676 117.016 342.492 117.472 339.25 117.66C337.627 117.744 335.997 117.762 334.37 117.714C332.739 117.69 331.114 117.588 329.51 117.408C323.028 116.696 317.005 114.913 312.12 112.26L312.54 112.338L295 113.952L293.73 114.072L294.37 113.4L303.12 104.262V104.622C301.058 101.6 300.18 98.3333 300.554 95.0751C300.929 91.817 302.546 88.6539 305.28 85.83C308.016 83.0185 311.777 80.6146 316.28 78.798C320.783 76.9982 325.915 75.8426 331.28 75.42C336.61 74.9792 342.038 75.2791 347.144 76.2965C352.25 77.314 356.898 79.0217 360.73 81.288C364.551 83.5276 367.476 86.2582 369.285 89.2742C371.093 92.2902 371.738 95.513 371.17 98.7ZM371.17 98.7C371.728 95.526 371.064 92.3176 369.229 89.3218C367.395 86.326 364.439 83.6228 360.59 81.4202C356.74 79.2177 352.099 77.5747 347.025 76.6176C341.95 75.6606 336.577 75.4151 331.32 75.9C326.11 76.3689 321.148 77.5447 316.81 79.338C312.516 81.147 308.929 83.4954 306.3 86.22C303.702 88.9519 302.177 92.0033 301.84 95.142C301.512 98.2762 302.356 101.415 304.31 104.328L304.44 104.514L304.27 104.688L295.42 113.79L294.79 113.232L312.39 111.756H312.63L312.81 111.858C317.514 114.475 323.337 116.255 329.63 117C331.202 117.194 332.797 117.31 334.4 117.348C336.001 117.414 337.609 117.414 339.21 117.348C342.417 117.197 345.574 116.779 348.59 116.106C351.627 115.449 354.485 114.525 357.07 113.364C359.702 112.237 362.032 110.875 363.98 109.326C367.962 106.249 370.451 102.572 371.17 98.7Z" fill="#263238"/>
<path d="M351.12 100.482C347.176 103.65 342.142 106.271 336.36 108.168C330.58 106.269 325.547 103.648 321.6 100.482C316.41 96.354 316.66 89.898 324.1 88.482C332.32 86.934 336.36 94.362 336.36 94.362C336.36 94.362 340.46 86.886 348.63 88.482C356 89.946 356.32 96.354 351.12 100.482Z" fill="#6750A4"/>
</svg>
