<svg width="30" height="30" viewBox="0 0 30 30" fill="none" xmlns="http://www.w3.org/2000/svg">
<path d="M18.208 18.1232C17.7686 17.6246 17.2852 17.1848 16.7578 16.8035C16.2305 16.4223 15.6641 16.0948 15.0586 15.8211C14.4531 15.5474 13.8379 15.347 13.2129 15.2199C12.5879 15.0929 11.9336 15.0244 11.25 15.0147C10.3906 15.0147 9.56055 15.1271 8.75977 15.3519C7.95898 15.5767 7.21191 15.8895 6.51855 16.2903C5.8252 16.6911 5.19531 17.1799 4.62891 17.7566C4.0625 18.3333 3.57422 18.9687 3.16406 19.6628C2.75391 20.3568 2.43652 21.1046 2.21191 21.9062C1.9873 22.7077 1.875 23.5386 1.875 24.3988H0C0 23.2258 0.170898 22.0968 0.512695 21.0117C0.854492 19.9267 1.34766 18.9247 1.99219 18.0059C2.63672 17.087 3.39844 16.2708 4.27734 15.5572C5.15625 14.8436 6.15234 14.2815 7.26562 13.871C6.16211 13.1476 5.30273 12.2385 4.6875 11.1437C4.07227 10.0489 3.75977 8.83675 3.75 7.50733C3.75 6.47116 3.94531 5.49853 4.33594 4.58944C4.72656 3.68035 5.25879 2.88368 5.93262 2.19941C6.60645 1.51515 7.40234 0.977517 8.32031 0.58651C9.23828 0.195503 10.2148 0 11.25 0C12.2852 0 13.2568 0.195503 14.165 0.58651C15.0732 0.977517 15.8691 1.51026 16.5527 2.18475C17.2363 2.85924 17.7734 3.65591 18.1641 4.57478C18.5547 5.49365 18.75 6.47116 18.75 7.50733C18.75 8.15249 18.6719 8.78299 18.5156 9.39883C18.3594 10.0147 18.125 10.5963 17.8125 11.1437C17.5 11.6911 17.1338 12.1945 16.7139 12.654C16.2939 13.1134 15.8008 13.5191 15.2344 13.871C16.0547 14.1838 16.8262 14.5846 17.5488 15.0733C18.2715 15.5621 18.9307 16.1339 19.5264 16.7889L18.208 18.1232ZM5.625 7.50733C5.625 8.28935 5.77148 9.0176 6.06445 9.69208C6.35742 10.3666 6.75781 10.9629 7.26562 11.4809C7.77344 11.999 8.36914 12.4047 9.05273 12.6979C9.73633 12.9912 10.4688 13.1378 11.25 13.1378C12.0215 13.1378 12.749 12.9912 13.4326 12.6979C14.1162 12.4047 14.7119 12.0039 15.2197 11.4956C15.7275 10.9873 16.1328 10.391 16.4355 9.70674C16.7383 9.02248 16.8848 8.28935 16.875 7.50733C16.875 6.73509 16.7285 6.00684 16.4355 5.32258C16.1426 4.63832 15.7422 4.04203 15.2344 3.53372C14.7266 3.02542 14.126 2.61975 13.4326 2.31672C12.7393 2.01369 12.0117 1.86706 11.25 1.87683C10.4688 1.87683 9.74121 2.02346 9.06738 2.31672C8.39355 2.60997 7.79785 3.01075 7.28027 3.51906C6.7627 4.02737 6.35742 4.62854 6.06445 5.32258C5.77148 6.01662 5.625 6.74487 5.625 7.50733ZM27.0703 13.1378C27.4805 13.1378 27.8613 13.2111 28.2129 13.3578C28.5645 13.5044 28.877 13.7048 29.1504 13.9589C29.4238 14.2131 29.6289 14.521 29.7656 14.8827C29.9023 15.2444 29.9805 15.6305 30 16.0411C30 16.4223 29.9268 16.7937 29.7803 17.1554C29.6338 17.5171 29.4238 17.8348 29.1504 18.1085L18.6475 28.6217L13.125 30L14.502 24.4721L25.0049 13.9736C25.2881 13.6901 25.6055 13.48 25.957 13.3431C26.3086 13.2063 26.6797 13.1378 27.0703 13.1378ZM27.8174 16.7889C28.0225 16.5836 28.125 16.3343 28.125 16.0411C28.125 15.738 28.0273 15.4936 27.832 15.3079C27.6367 15.1222 27.3828 15.0244 27.0703 15.0147C26.9336 15.0147 26.8018 15.0342 26.6748 15.0733C26.5479 15.1124 26.4355 15.1857 26.3379 15.2933L16.2012 25.4399L15.7031 27.4194L17.6807 26.9208L27.8174 16.7889Z" fill="black"/>
</svg>
