<svg width="45" height="50" viewBox="0 0 45 50" fill="none" xmlns="http://www.w3.org/2000/svg">
<path d="M9 0C4.0275 0 0 4.97222 0 11.1111C0 17.25 4.0275 22.2222 9 22.2222C13.9725 22.2222 18 17.25 18 11.1111C18 4.97222 13.9725 0 9 0ZM9 16.6667C6.525 16.6667 4.5 14.1667 4.5 11.1111C4.5 8.05556 6.525 5.55556 9 5.55556C11.475 5.55556 13.5 8.05556 13.5 11.1111C13.5 14.1667 11.475 16.6667 9 16.6667ZM9 27.7778C4.0275 27.7778 0 32.75 0 38.8889C0 45.0278 4.0275 50 9 50C13.9725 50 18 45.0278 18 38.8889C18 32.75 13.9725 27.7778 9 27.7778ZM22.5 5.55556H45V11.1111H22.5V5.55556ZM22.5 44.4444V38.8889H45V44.4444H22.5ZM22.5 22.2222H45V27.7778H22.5V22.2222Z" fill="black"/>
</svg>
