<svg width="30" height="30" viewBox="0 0 30 30" fill="none" xmlns="http://www.w3.org/2000/svg">
<rect width="30" height="30" rx="15" fill="#6750A4" fill-opacity="0.25"/>
<g clip-path="url(#clip0_193_140)">
<path d="M22.4091 6.67163L22.4974 6.66663L22.6057 6.67329L22.6807 6.68663L22.7832 6.71579L22.8724 6.75413L22.9557 6.80163L23.0307 6.85746L23.0991 6.91996L23.1424 6.96913L23.2107 7.06579L23.2541 7.14579C23.2932 7.22913 23.3182 7.31746 23.3291 7.40913L23.3332 7.49746C23.3332 7.55996 23.3266 7.62163 23.3132 7.68079L23.2841 7.78329L17.8407 22.8475C17.7375 23.0721 17.5721 23.2624 17.3639 23.3958C17.1558 23.5292 16.9138 23.6 16.6666 23.6C16.4439 23.6007 16.2249 23.5437 16.0308 23.4346C15.8367 23.3255 15.6742 23.168 15.5591 22.9775L15.5049 22.8716L12.7116 17.2866L7.15324 14.5066C6.94757 14.4126 6.7702 14.2662 6.63888 14.082C6.50755 13.8979 6.42687 13.6825 6.4049 13.4575L6.3999 13.3333C6.3999 12.8666 6.65074 12.44 7.10074 12.1916L7.2174 12.1333L22.2316 6.71163L22.3199 6.68663L22.4091 6.67163Z" fill="#381E72"/>
</g>
<defs>
<clipPath id="clip0_193_140">
<rect width="20" height="20" fill="white" transform="translate(5 5)"/>
</clipPath>
</defs>
</svg>
