<svg width="20" height="20" viewBox="0 0 20 20" fill="none" xmlns="http://www.w3.org/2000/svg">
<g clip-path="url(#clip0_2_2566)">
<path d="M19.9905 10.1731C19.9905 9.41512 19.9224 8.86202 19.7752 8.28845H10.1992V11.7094H15.8201C15.7068 12.5596 15.0948 13.8399 13.7349 14.7002L13.7159 14.8147L16.7436 16.9347L16.9534 16.9536C18.8798 15.3455 19.9905 12.9795 19.9905 10.1731Z" fill="#4285F4"/>
<path d="M10.1992 19.1864C12.953 19.1864 15.2648 18.367 16.9534 16.9536L13.7349 14.7002C12.8737 15.243 11.7177 15.622 10.1992 15.622C7.50211 15.622 5.21297 14.014 4.39695 11.7914L4.27734 11.8006L1.12906 14.0027L1.08789 14.1061C2.76508 17.1174 6.21016 19.1864 10.1992 19.1864Z" fill="#34A853"/>
<path d="M4.39695 11.7914C4.18164 11.2178 4.05703 10.6032 4.05703 9.96824C4.05703 9.33316 4.18164 8.71864 4.38562 8.14507L4.37992 8.02291L1.19219 5.7854L1.08789 5.83024C0.396641 7.07984 0 8.48308 0 9.96824C0 11.4534 0.396641 12.8566 1.08789 14.1062L4.39695 11.7914Z" fill="#FBBC05"/>
<path d="M10.1992 4.31436C12.1144 4.31436 13.4063 5.06205 14.1429 5.68689L17.0213 3.14674C15.2535 1.66158 12.953 0.75 10.1992 0.75C6.21016 0.75 2.76508 2.81896 1.08789 5.83023L4.38563 8.14506C5.21297 5.92244 7.50211 4.31436 10.1992 4.31436Z" fill="#EB4335"/>
</g>
<defs>
<clipPath id="clip0_2_2566">
<rect width="20" height="18.5" fill="white" transform="translate(0 0.75)"/>
</clipPath>
</defs>
</svg>
