<svg width="199" height="168" viewBox="0 0 199 168" fill="none" xmlns="http://www.w3.org/2000/svg">
<path fill-rule="evenodd" clip-rule="evenodd" d="M31.5 0.666687C23.212 0.666687 15.2634 3.30061 9.40291 7.98902C3.5424 12.6774 0.25 19.0363 0.25 25.6667V142.333C0.25 148.964 3.5424 155.323 9.40291 160.011C15.2634 164.699 23.212 167.333 31.5 167.333H94C102.288 167.333 110.237 164.699 116.097 160.011C121.958 155.323 125.25 148.964 125.25 142.333V25.6667C125.25 19.0363 121.958 12.6774 116.097 7.98902C110.237 3.30061 102.288 0.666687 94 0.666687H31.5ZM138.719 44.775C140.672 43.2128 143.321 42.3351 146.083 42.3351C148.845 42.3351 151.495 43.2128 153.448 44.775L195.115 78.1084C197.067 79.6711 198.164 81.7903 198.164 84C198.164 86.2097 197.067 88.329 195.115 89.8917L153.448 123.225C151.483 124.743 148.852 125.583 146.121 125.564C143.39 125.545 140.777 124.669 138.846 123.124C136.914 121.578 135.819 119.488 135.795 117.303C135.771 115.118 136.821 113.013 138.719 111.442L162.604 92.3334H73.1667C70.404 92.3334 67.7545 91.4554 65.801 89.8926C63.8475 88.3298 62.75 86.2102 62.75 84C62.75 81.7899 63.8475 79.6703 65.801 78.1075C67.7545 76.5447 70.404 75.6667 73.1667 75.6667H162.604L138.719 56.5584C136.766 54.9956 135.669 52.8764 135.669 50.6667C135.669 48.457 136.766 46.3378 138.719 44.775Z" fill="#6750A4"/>
</svg>
