<svg width="148" height="37" viewBox="0 0 148 37" fill="none" xmlns="http://www.w3.org/2000/svg">
<path d="M17.665 25.716H17.977L22.241 9.648C23.1423 6.18133 24.529 3.80666 26.401 2.524C28.273 1.24133 31.0983 0.599998 34.877 0.599998V37H29.989V6.112C29.0877 6.49333 28.3943 7.03067 27.909 7.724C27.4583 8.41733 27.025 9.45733 26.609 10.844L20.109 33.152H15.533L8.981 10.844C8.565 9.42267 8.13167 8.38267 7.681 7.724C7.23033 7.03067 6.55433 6.49333 5.653 6.112V37H0.765V0.599998C4.54367 0.599998 7.35167 1.25866 9.189 2.576C11.061 3.85867 12.465 6.216 13.401 9.648L17.665 25.716ZM62.5877 37H41.8917V9.284C41.8917 6.71866 42.7064 4.656 44.3357 3.096C45.4451 2.056 46.6931 1.38 48.0797 1.068C49.4664 0.755998 51.1651 0.599998 53.1757 0.599998H62.5877V5.176H52.4997C48.6864 5.176 46.7797 6.77066 46.7797 9.96V15.888H58.7917V20.464H46.7797V32.424H62.5877V37ZM72.666 37H68.038V14.12C68.038 10.376 69.234 7.18667 71.626 4.552C74.0526 1.91733 77.1726 0.599998 80.986 0.599998H92.894V37H88.006V5.176H80.986C78.4553 5.176 76.4273 5.92133 74.902 7.412C73.4113 8.90267 72.666 11.2773 72.666 14.536V18.956C74.6073 16.9107 77.3806 15.888 80.986 15.888H85.718V20.464H80.986C78.9753 20.464 77.3286 20.7067 76.046 21.192C74.798 21.6773 73.6713 22.5093 72.666 23.688V37ZM120.319 32.424V37H112.727C111.305 37 110.179 36.9827 109.347 36.948C108.549 36.8787 107.544 36.6707 106.331 36.324C105.117 35.9427 104.095 35.388 103.263 34.66C101.98 33.4813 101.148 32.0773 100.767 30.448C100.385 28.784 100.195 26.8427 100.195 24.624V0.599998H105.083V24.52C105.083 26.5307 105.308 28.108 105.759 29.252C106.66 31.3667 108.549 32.424 111.427 32.424H120.319ZM147.537 0.599998V3.2C147.537 7.42933 146.739 11.312 145.145 14.848C143.585 18.3493 141.297 21.0187 138.281 22.856V37H133.393V22.96C130.377 21.1573 128.054 18.54 126.425 15.108C124.795 11.6413 123.981 7.828 123.981 3.668V0.599998H128.973V3.2C128.973 6.77066 129.475 9.83866 130.481 12.404C131.521 14.9347 133.306 17.0147 135.837 18.644C140.378 15.628 142.649 10.48 142.649 3.2V0.599998H147.537Z" fill="#381E72"/>
</svg>
