<svg width="20" height="20" viewBox="0 0 20 20" fill="none" xmlns="http://www.w3.org/2000/svg">
<path d="M8.91667 11.0833V0.25H11.0833V11.0833H8.91667ZM10 19.75C8.66389 19.75 7.40434 19.4925 6.22134 18.9776C5.03834 18.4626 4.00484 17.7632 3.12084 16.8792C2.23611 15.9944 1.53628 14.9606 1.02133 13.7776C0.50639 12.5946 0.249279 11.3354 0.250002 10C0.250002 8.55556 0.547918 7.19236 1.14375 5.91042C1.73958 4.62847 2.57917 3.51806 3.6625 2.57917L5.17917 4.09583C4.3125 4.81806 3.63542 5.69375 3.14792 6.72292C2.66042 7.75208 2.41667 8.84444 2.41667 10C2.41667 12.0944 3.15695 13.8819 4.6375 15.3625C6.11806 16.8431 7.90556 17.5833 10 17.5833C12.1125 17.5833 13.9047 16.8431 15.3766 15.3625C16.8485 13.8819 17.5841 12.0944 17.5833 10C17.5833 8.84444 17.3439 7.75208 16.8651 6.72292C16.3863 5.69375 15.7048 4.81806 14.8208 4.09583L16.3375 2.57917C17.4208 3.51806 18.2604 4.62847 18.8563 5.91042C19.4521 7.19236 19.75 8.55556 19.75 10C19.75 11.3361 19.4925 12.5957 18.9776 13.7787C18.4626 14.9617 17.7675 15.9952 16.8922 16.8792C16.0168 17.7639 14.9877 18.4637 13.8047 18.9787C12.6217 19.4936 11.3534 19.7507 10 19.75Z" fill="#CB1B1B"/>
</svg>
