<svg width="199" height="49" viewBox="0 0 199 49" fill="none" xmlns="http://www.w3.org/2000/svg">
<path d="M23.65 33.81H24.07L29.81 12.18C31.0233 7.51333 32.89 4.31666 35.41 2.59C37.93 0.86333 41.7333 -3.33786e-06 46.82 -3.33786e-06V49H40.24V7.42C39.0267 7.93333 38.0933 8.65667 37.44 9.59C36.8333 10.5233 36.25 11.9233 35.69 13.79L26.94 43.82H20.78L11.96 13.79C11.4 11.8767 10.8167 10.4767 10.21 9.59C9.60333 8.65667 8.69333 7.93333 7.48 7.42V49H0.9V-3.33786e-06C5.98667 -3.33786e-06 9.76667 0.886663 12.24 2.66C14.76 4.38667 16.65 7.56 17.91 12.18L23.65 33.81ZM84.1229 49H56.2629V11.69C56.2629 8.23666 57.3596 5.46 59.5529 3.36C61.0462 1.96 62.7262 1.05 64.5929 0.629997C66.4596 0.209997 68.7462 -3.33786e-06 71.4529 -3.33786e-06H84.1229V6.16H70.5429C65.4096 6.16 62.8429 8.30666 62.8429 12.6V20.58H79.0129V26.74H62.8429V42.84H84.1229V49ZM97.6898 49H91.4598V18.2C91.4598 13.16 93.0698 8.86666 96.2898 5.32C99.5564 1.77333 103.756 -3.33786e-06 108.89 -3.33786e-06H124.92V49H118.34V6.16H108.89C105.483 6.16 102.753 7.16333 100.7 9.17C98.6931 11.1767 97.6898 14.3733 97.6898 18.76V24.71C100.303 21.9567 104.036 20.58 108.89 20.58H115.26V26.74H108.89C106.183 26.74 103.966 27.0667 102.24 27.72C100.56 28.3733 99.0431 29.4933 97.6898 31.08V49ZM161.838 42.84V49H151.618C149.704 49 148.188 48.9767 147.068 48.93C145.994 48.8367 144.641 48.5567 143.008 48.09C141.374 47.5767 139.998 46.83 138.878 45.85C137.151 44.2633 136.031 42.3733 135.518 40.18C135.004 37.94 134.748 35.3267 134.748 32.34V-3.33786e-06H141.328V32.2C141.328 34.9067 141.631 37.03 142.238 38.57C143.451 41.4167 145.994 42.84 149.868 42.84H161.838ZM198.477 -3.33786e-06V3.5C198.477 9.19333 197.404 14.42 195.257 19.18C193.157 23.8933 190.077 27.4867 186.017 29.96V49H179.437V30.1C175.377 27.6733 172.251 24.15 170.057 19.53C167.864 14.8633 166.767 9.73 166.767 4.13V-3.33786e-06H173.487V3.5C173.487 8.30666 174.164 12.4367 175.517 15.89C176.917 19.2967 179.321 22.0967 182.727 24.29C188.841 20.23 191.897 13.3 191.897 3.5V-3.33786e-06H198.477Z" fill="white"/>
</svg>
