<svg width="159" height="40" viewBox="0 0 159 40" fill="none" xmlns="http://www.w3.org/2000/svg">
<path d="M19.12 27.848H19.456L24.048 10.544C25.0187 6.81066 26.512 4.25333 28.528 2.872C30.544 1.49066 33.5867 0.799997 37.656 0.799997V40H32.392V6.736C31.4213 7.14667 30.6747 7.72533 30.152 8.472C29.6667 9.21866 29.2 10.3387 28.752 11.832L21.752 35.856H16.824L9.768 11.832C9.32 10.3013 8.85333 9.18133 8.368 8.472C7.88267 7.72533 7.15467 7.14667 6.184 6.736V40H0.92V0.799997C4.98933 0.799997 8.01333 1.50933 9.992 2.928C12.008 4.30933 13.52 6.848 14.528 10.544L19.12 27.848ZM67.4983 40H45.2103V10.152C45.2103 7.38933 46.0876 5.168 47.8423 3.488C49.037 2.368 50.381 1.64 51.8743 1.304C53.3676 0.967997 55.197 0.799997 57.3623 0.799997H67.4983V5.728H56.6343C52.5276 5.728 50.4743 7.44533 50.4743 10.88V17.264H63.4103V22.192H50.4743V35.072H67.4983V40ZM78.3518 40H73.3678V15.36C73.3678 11.328 74.6558 7.89333 77.2318 5.056C79.8451 2.21866 83.2051 0.799997 87.3118 0.799997H100.136V40H94.8718V5.728H87.3118C84.5865 5.728 82.4025 6.53066 80.7598 8.136C79.1545 9.74133 78.3518 12.2987 78.3518 15.808V20.568C80.4425 18.3653 83.4291 17.264 87.3118 17.264H92.4078V22.192H87.3118C85.1465 22.192 83.3731 22.4533 81.9918 22.976C80.6478 23.4987 79.4345 24.3947 78.3518 25.664V40ZM129.67 35.072V40H121.494C119.963 40 118.75 39.9813 117.854 39.944C116.995 39.8693 115.913 39.6453 114.606 39.272C113.299 38.8613 112.198 38.264 111.302 37.48C109.921 36.2107 109.025 34.6987 108.614 32.944C108.203 31.152 107.998 29.0613 107.998 26.672V0.799997H113.262V26.56C113.262 28.7253 113.505 30.424 113.99 31.656C114.961 33.9333 116.995 35.072 120.094 35.072H129.67ZM158.982 0.799997V3.6C158.982 8.15467 158.123 12.336 156.406 16.144C154.726 19.9147 152.262 22.7893 149.014 24.768V40H143.75V24.88C140.502 22.9387 138 20.12 136.246 16.424C134.491 12.6907 133.614 8.584 133.614 4.104V0.799997H138.99V3.6C138.99 7.44533 139.531 10.7493 140.614 13.512C141.734 16.2373 143.656 18.4773 146.382 20.232C151.272 16.984 153.718 11.44 153.718 3.6V0.799997H158.982Z" fill="#381E72"/>
</svg>
