<svg width="23" height="25" viewBox="0 0 23 25" fill="none" xmlns="http://www.w3.org/2000/svg">
<path d="M16.3359 15.7233H15.3034L14.9375 15.3373C16.2625 13.6564 16.9907 11.5104 16.9893 9.29103C16.9893 7.45343 16.4911 5.65711 15.5577 4.12921C14.6243 2.60131 13.2976 1.41046 11.7454 0.707241C10.1932 0.00402564 8.48523 -0.179968 6.83743 0.178529C5.18963 0.537025 3.67603 1.42191 2.48803 2.72128C1.30003 4.02065 0.490994 5.67615 0.163226 7.47844C-0.164542 9.28072 0.00368059 11.1488 0.64662 12.8465C1.28956 14.5443 2.37834 15.9953 3.77528 17.0162C5.17222 18.0371 6.81457 18.582 8.49465 18.582C10.5987 18.582 12.5329 17.7387 14.0227 16.3379L14.3756 16.7381V17.8674L20.9099 25L22.8571 22.8702L16.3359 15.7233ZM8.49465 15.7233C5.24055 15.7233 2.61374 12.8502 2.61374 9.29103C2.61374 5.73185 5.24055 2.85878 8.49465 2.85878C11.7488 2.85878 14.3756 5.73185 14.3756 9.29103C14.3756 12.8502 11.7488 15.7233 8.49465 15.7233Z" fill="#423F3F"/>
</svg>
