<svg width="50" height="40" viewBox="0 0 50 40" fill="none" xmlns="http://www.w3.org/2000/svg">
<path d="M4.54546 35.5556C3.29546 35.5556 2.225 35.12 1.33409 34.2489C0.443185 33.3778 -0.00151129 32.3319 3.85862e-06 31.1111V4.44445C3.85862e-06 3.22223 0.445458 2.17556 1.33637 1.30445C2.22728 0.433337 3.29697 -0.00147771 4.54546 3.77288e-06H40.9091C42.1591 3.77288e-06 43.2295 0.435559 44.1205 1.30667C45.0114 2.17778 45.4561 3.22371 45.4545 4.44445V17.7778H4.54546V31.1111H27.2727V35.5556H4.54546ZM4.54546 8.88889H40.9091V4.44445H4.54546V8.88889ZM38.6364 40V33.3333H31.8182V28.8889H38.6364V22.2222H43.1818V28.8889H50V33.3333H43.1818V40H38.6364Z" fill="black"/>
</svg>
