<svg width="40" height="51" viewBox="0 0 40 51" fill="none" xmlns="http://www.w3.org/2000/svg">
<path d="M20 25.8384C21.375 25.8384 22.5525 25.3484 23.5325 24.3684C24.5125 23.3884 25.0017 22.2117 25 20.8384C25 19.4634 24.51 18.2859 23.53 17.3059C22.55 16.3259 21.3733 15.8367 20 15.8384C18.625 15.8384 17.4475 16.3284 16.4675 17.3084C15.4875 18.2884 14.9983 19.465 15 20.8384C15 22.2134 15.49 23.3909 16.47 24.3709C17.45 25.3509 18.6267 25.84 20 25.8384ZM20 44.2134C25.0833 39.5467 28.8542 35.3067 31.3125 31.4934C33.7708 27.68 35 24.295 35 21.3384C35 16.7967 33.5517 13.0784 30.655 10.1834C27.7583 7.28838 24.2067 5.84005 20 5.83838C15.7917 5.83838 12.2392 7.28671 9.3425 10.1834C6.44583 13.08 4.99833 16.7984 5 21.3384C5 24.2967 6.22917 27.6825 8.6875 31.4959C11.1458 35.3092 14.9167 39.5484 20 44.2134ZM20 50.8384C13.2917 45.13 8.28167 39.8284 4.97 34.9334C1.65833 30.0384 0.00166667 25.5067 0 21.3384C0 15.0884 2.01083 10.1092 6.0325 6.40088C10.0542 2.69255 14.71 0.838379 20 0.838379C25.2917 0.838379 29.9483 2.69255 33.97 6.40088C37.9917 10.1092 40.0017 15.0884 40 21.3384C40 25.505 38.3433 30.0367 35.03 34.9334C31.7167 39.83 26.7067 45.1317 20 50.8384Z" fill="black"/>
</svg>
