<svg width="30" height="30" viewBox="0 0 30 30" fill="none" xmlns="http://www.w3.org/2000/svg">
<path d="M15 22.8571C14.0054 22.8571 13.0516 22.5561 12.3484 22.0203C11.6451 21.4845 11.25 20.7578 11.25 20C11.25 18.4143 12.9187 17.1429 15 17.1429C15.9946 17.1429 16.9484 17.4439 17.6516 17.9797C18.3549 18.5155 18.75 19.2422 18.75 20C18.75 20.7578 18.3549 21.4845 17.6516 22.0203C16.9484 22.5561 15.9946 22.8571 15 22.8571ZM26.25 27.1429V12.8571H3.75V27.1429H26.25ZM26.25 10C27.2446 10 28.1984 10.301 28.9016 10.8368C29.6049 11.3727 30 12.0994 30 12.8571V27.1429C30 27.9006 29.6049 28.6273 28.9016 29.1632C28.1984 29.699 27.2446 30 26.25 30H3.75C2.75544 30 1.80161 29.699 1.09835 29.1632C0.395088 28.6273 0 27.9006 0 27.1429V12.8571C0 11.2714 1.66875 10 3.75 10H5.625V7.14286C5.625 5.24845 6.61272 3.43164 8.37087 2.09209C10.129 0.752549 12.5136 0 15 0C16.2311 0 17.4502 0.184756 18.5877 0.543718C19.7251 0.90268 20.7586 1.42882 21.6291 2.09209C22.4997 2.75537 23.1902 3.54279 23.6614 4.4094C24.1325 5.27602 24.375 6.20484 24.375 7.14286V10H26.25ZM15 2.85714C13.5082 2.85714 12.0774 3.30867 11.0225 4.1124C9.96763 4.91613 9.375 6.00622 9.375 7.14286V10H20.625V7.14286C20.625 6.00622 20.0324 4.91613 18.9775 4.1124C17.9226 3.30867 16.4918 2.85714 15 2.85714Z" fill="black"/>
</svg>
