<svg width="16" height="22" viewBox="0 0 16 22" fill="none" xmlns="http://www.w3.org/2000/svg">
<path d="M8 16.5402C7.46957 16.5402 6.96086 16.3294 6.58579 15.9544C6.21071 15.5793 6 15.0706 6 14.5402C6 13.4302 6.89 12.5402 8 12.5402C8.53043 12.5402 9.03914 12.7509 9.41421 13.1259C9.78929 13.501 10 14.0097 10 14.5402C10 15.0706 9.78929 15.5793 9.41421 15.9544C9.03914 16.3294 8.53043 16.5402 8 16.5402ZM14 19.5402V9.54016H2V19.5402H14ZM14 7.54016C14.5304 7.54016 15.0391 7.75087 15.4142 8.12595C15.7893 8.50102 16 9.00973 16 9.54016V19.5402C16 20.0706 15.7893 20.5793 15.4142 20.9544C15.0391 21.3294 14.5304 21.5402 14 21.5402H2C1.46957 21.5402 0.960859 21.3294 0.585786 20.9544C0.210714 20.5793 0 20.0706 0 19.5402V9.54016C0 8.43016 0.89 7.54016 2 7.54016H3V5.54016C3 4.21408 3.52678 2.94231 4.46447 2.00463C5.40215 1.06695 6.67392 0.540161 8 0.540161C8.65661 0.540161 9.30679 0.66949 9.91342 0.920763C10.52 1.17204 11.0712 1.54033 11.5355 2.00463C11.9998 2.46892 12.3681 3.02012 12.6194 3.62674C12.8707 4.23337 13 4.88355 13 5.54016V7.54016H14ZM8 2.54016C7.20435 2.54016 6.44129 2.85623 5.87868 3.41884C5.31607 3.98145 5 4.74451 5 5.54016V7.54016H11V5.54016C11 4.74451 10.6839 3.98145 10.1213 3.41884C9.55871 2.85623 8.79565 2.54016 8 2.54016Z" fill="black"/>
</svg>
