<svg width="50" height="51" viewBox="0 0 50 51" fill="none" xmlns="http://www.w3.org/2000/svg">
<path d="M13.625 11.255C13.75 13.1092 14.0625 14.9217 14.5625 16.6509L12.0625 19.1509C11.2083 16.6509 10.6667 14.005 10.4792 11.255H13.625ZM34.1667 36.2967C35.9375 36.7967 37.75 37.1092 39.5833 37.2342V40.3384C36.8333 40.1509 34.1875 39.6092 31.6667 38.7759L34.1667 36.2967ZM15.625 7.08838H8.33333C7.1875 7.08838 6.25 8.02588 6.25 9.17171C6.25 28.7342 22.1042 44.5884 41.6667 44.5884C42.8125 44.5884 43.75 43.6509 43.75 42.505V35.2342C43.75 34.0884 42.8125 33.1509 41.6667 33.1509C39.0833 33.1509 36.5625 32.7342 34.2292 31.9634C34.0224 31.8884 33.8032 31.853 33.5833 31.8592C33.0417 31.8592 32.5208 32.0675 32.1042 32.4634L27.5208 37.0467C21.6155 34.0267 16.8117 29.2229 13.7917 23.3175L18.375 18.7342C18.9583 18.1509 19.125 17.3384 18.8958 16.6092C18.1055 14.2093 17.7046 11.6984 17.7083 9.17171C17.7083 8.02588 16.7708 7.08838 15.625 7.08838Z" fill="black"/>
</svg>
