<svg width="350" height="300" viewBox="0 0 350 300" fill="none" xmlns="http://www.w3.org/2000/svg">
<path d="M268.948 7.59499L247.229 16.8998C246.434 17.1886 245.756 17.671 245.279 18.2868C244.802 18.9026 244.549 19.6246 244.549 20.3629V29.0397C244.529 36.9278 247.222 44.647 252.293 51.2393C256.206 56.3134 261.397 62.8401 270.032 66.5633H273.923C283.538 64.0262 290.711 57.3853 295.092 51.6769C300.162 45.0844 302.855 37.3653 302.836 29.4774V20.3629C302.836 19.6255 302.583 18.9044 302.108 18.2888C301.633 17.6732 300.957 17.1902 300.163 16.8998L275.423 7.8931C274.316 7.49351 270.047 7.1954 268.948 7.59499Z" fill="#E0E0E0"/>
<path d="M268.072 7.89493L243.332 16.9016C242.537 17.1904 241.858 17.6728 241.382 18.2886C240.905 18.9044 240.651 19.6265 240.651 20.3647V29.0416C240.652 37.0802 243.444 44.938 248.674 51.6208C253.904 58.3036 261.337 63.511 270.033 66.5841C279.641 64.047 286.813 57.4062 291.202 51.6978C296.273 45.0985 298.966 37.3732 298.946 29.4792V20.3647C298.946 19.6265 298.693 18.9044 298.216 18.2886C297.739 17.6728 297.061 17.1904 296.266 16.9016L271.525 7.89493C270.979 7.69868 270.392 7.5976 269.799 7.5976C269.206 7.5976 268.619 7.69868 268.072 7.89493Z" fill="#F5F5F5"/>
<path d="M298.864 27.1251C298.897 27.2563 298.912 27.3904 298.908 27.5247C298.908 27.8228 298.946 28.2033 298.968 28.6727C298.99 29.142 299.027 29.7827 298.968 30.493C298.908 31.2034 298.968 32.0153 298.834 32.9033C298.701 33.7913 298.663 34.8061 298.448 35.8146C298.352 36.3347 298.277 36.8738 298.151 37.4256C298.025 37.9775 297.869 38.5356 297.728 39.1128C297.043 41.617 296.086 44.0612 294.869 46.4133C293.619 48.7539 292.128 50.9952 290.414 53.1112C289.59 54.0626 288.825 55.014 288.008 55.7688C287.607 56.1684 287.266 56.5743 286.857 56.9295L285.729 57.9507C285.023 58.585 284.303 59.1431 283.702 59.6379C283.1 60.1326 282.551 60.5195 282.098 60.8303L281.125 61.5534C281.01 61.6436 280.883 61.7223 280.747 61.788C280.845 61.6827 280.957 61.587 281.081 61.5026L282.083 60.7351C282.521 60.4117 283.056 60.0057 283.635 59.4666C284.214 58.9275 284.927 58.4327 285.61 57.7604L286.716 56.7265C287.095 56.3714 287.459 55.9654 287.845 55.5658C288.647 54.773 289.389 53.8533 290.199 52.9019C291.88 50.7956 293.346 48.5695 294.58 46.2484C295.783 43.9135 296.739 41.4915 297.438 39.0113L297.876 37.3368C298.01 36.7914 298.092 36.2522 298.196 35.7385C298.418 34.711 298.508 33.7405 298.619 32.8525C298.73 31.9646 298.745 31.1654 298.805 30.455C298.864 29.7446 298.856 29.142 298.856 28.641C298.856 28.1399 298.856 27.791 298.856 27.4929C298.844 27.3704 298.847 27.2471 298.864 27.1251Z" fill="#E0E0E0"/>
<path d="M267.953 45.9896L253.764 36.355L257.699 32.1244L267.218 38.5877L281.118 25.2997L285.833 28.9023L267.953 45.9896Z" fill="white"/>
<path d="M334.987 55.0762H332.299V42.5873C332.299 41.1743 331.642 39.8191 330.473 38.82C329.303 37.8208 327.716 37.2595 326.062 37.2595C324.408 37.2595 322.822 37.8208 321.652 38.82C320.482 39.8191 319.825 41.1743 319.825 42.5873V55.0762H317.137V42.5873C317.137 40.5687 318.076 38.6327 319.747 37.2054C321.418 35.778 323.684 34.9761 326.047 34.9761C328.41 34.9761 330.677 35.778 332.348 37.2054C334.019 38.6327 334.958 40.5687 334.958 42.5873L334.987 55.0762Z" fill="#EBEBEB"/>
<path d="M335.796 46.6047H316.32C315.057 46.6047 314.033 47.4794 314.033 48.5583V60.7553C314.033 61.8343 315.057 62.7089 316.32 62.7089H335.796C337.059 62.7089 338.083 61.8343 338.083 60.7553V48.5583C338.083 47.4794 337.059 46.6047 335.796 46.6047Z" fill="#EBEBEB"/>
<path d="M327.903 55.0698C328.142 54.8624 328.331 54.6166 328.458 54.3467C328.586 54.0767 328.649 53.7879 328.646 53.4968C328.649 53.0748 328.515 52.6603 328.257 52.3002C328 51.94 327.629 51.6485 327.188 51.4585C326.747 51.2686 326.252 51.1877 325.76 51.2251C325.268 51.2624 324.798 51.4166 324.403 51.67C324.008 51.9235 323.704 52.2662 323.525 52.6595C323.345 53.0528 323.299 53.4811 323.389 53.896C323.48 54.3108 323.704 54.6958 324.038 55.0075C324.371 55.3191 324.799 55.545 325.275 55.6597L324.71 57.8035H327.228L326.723 55.6597C327.162 55.5525 327.561 55.3491 327.881 55.0698" fill="#FAFAFA"/>
<path d="M29.7329 237.353C26.8491 235.812 23.5903 234.855 20.2065 234.556C18.6472 234.417 16.9468 234.455 15.6994 235.26C15.5546 235.331 15.4347 235.434 15.3524 235.557C15.2701 235.681 15.2284 235.822 15.2316 235.964C15.3077 236.165 15.4658 236.336 15.6771 236.446C17.6999 237.679 20.0791 238.415 22.5569 238.575C25.0346 238.735 27.5163 238.313 29.7329 237.353Z" fill="#E0E0E0"/>
<path d="M29.4874 237.125C27.2817 235.74 25.2221 234.193 23.332 232.502C21.4379 230.797 20.108 228.694 19.4783 226.406C19.3529 226.067 19.3152 225.709 19.3677 225.356C19.4203 225.004 19.5619 224.665 19.7827 224.364C24.6833 227.637 28.537 231.874 29.4874 237.125Z" fill="#E0E0E0"/>
<path d="M29.6805 237.323C29.2286 235.034 29.2689 232.693 29.7993 230.416C30.3446 228.12 31.8789 226.083 34.0985 224.707C34.945 226.401 34.5811 228.354 33.9871 230.118C33.0639 232.858 31.6217 235.45 29.7177 237.792" fill="#E0E0E0"/>
<path d="M34.4919 244.686C31.6058 245.084 28.9359 246.239 26.8514 247.99C24.659 249.692 23.1322 251.928 22.478 254.396C25.3441 254.244 27.7721 252.494 29.5319 250.591C31.2917 248.688 32.502 246.538 34.4548 244.73" fill="#E0E0E0"/>
<path d="M35.539 245.86C34.3895 243.368 33.9864 240.671 34.3663 238.013C34.7462 235.354 35.8971 232.819 37.7145 230.637C39.3777 235.711 38.7615 241.42 35.539 245.86Z" fill="#E0E0E0"/>
<path d="M41.8876 252.324C39.2192 252.186 36.562 252.72 34.2455 253.86C31.9291 255 30.0553 256.696 28.8565 258.737C28.7006 259.009 28.5521 259.371 28.7748 259.606C28.8865 259.699 29.0236 259.768 29.1738 259.806C29.3241 259.843 29.4829 259.849 29.6362 259.821C32.2053 259.682 34.4774 258.362 36.3559 256.859C38.2345 255.356 39.8754 253.618 41.947 252.318" fill="#E0E0E0"/>
<path d="M41.6868 251.981C40.3187 248.219 40.2337 244.201 41.4417 240.399C41.9244 238.909 42.7263 237.342 44.3375 236.644C44.4021 236.607 44.4751 236.581 44.5517 236.569C44.6284 236.557 44.7072 236.559 44.7831 236.574C44.9134 236.634 45.0118 236.734 45.0578 236.853C45.6024 237.894 45.8371 239.034 45.7409 240.171C45.6457 241.306 45.442 242.432 45.132 243.539C44.6271 245.594 44.3895 247.801 43.0307 249.577C42.7205 250.004 42.4404 250.447 42.1917 250.903C41.9467 251.353 41.9467 251.537 41.7165 251.867" fill="#E0E0E0"/>
<path d="M58.5051 254.111C57.9397 251.997 57.9212 249.803 58.4509 247.682C58.9805 245.561 60.0455 243.564 61.5716 241.831C61.787 241.584 62.0765 241.324 62.4404 241.349C62.9898 241.394 63.1309 242.021 63.1086 242.491C62.8809 246.654 61.2855 250.679 58.5051 254.104" fill="#E0E0E0"/>
<path d="M60.0195 255C62.9619 255.593 66.0199 255.634 68.9825 255.119C71.945 254.604 74.7416 253.547 77.179 252.019C74.308 250.785 71.0245 250.442 67.8902 251.048C64.7865 251.683 61.9501 252.837 60.0195 255Z" fill="#E0E0E0"/>
<path d="M61.2969 252.303C64.5268 247.813 70.7119 244.882 76.8897 244.61C76.1471 246.753 74.1201 248.415 71.796 249.424C69.4136 250.337 66.8949 250.964 64.3115 251.289C63.3165 251.453 61.9503 251.637 61.3414 252.303" fill="#E0E0E0"/>
<path d="M58.8242 239.219C59.8036 236.689 60.4706 234.078 60.8142 231.43C61.1593 228.765 60.5262 226.074 59.0024 223.73C55.9878 228.709 55.6834 234.512 58.7351 239.492" fill="#E0E0E0"/>
<path d="M68.9668 234.856C72.4937 229.389 79.6813 225.019 86.9505 224.403C84.1438 230.372 76.4959 234.983 68.9668 234.856Z" fill="#E0E0E0"/>
<path d="M66.7544 235.916C72.004 236.601 76.4813 239.467 81.3893 241.205C82.4201 241.627 83.5611 241.812 84.7009 241.744C85.2305 241.739 85.7453 241.594 86.1759 241.331C86.6065 241.068 86.9323 240.698 87.1095 240.272C87.2866 239.845 87.3066 239.383 87.1667 238.946C87.0268 238.51 86.7338 238.121 86.3271 237.831C85.6323 237.275 84.8143 236.844 83.9213 236.563C78.5752 234.66 72.8356 234.615 67.2073 235.77" fill="#E0E0E0"/>
<path d="M63.71 239.06C64.898 239.352 65.3064 239.878 66.2494 240.563C69.4707 242.901 73.2833 244.569 77.3871 245.434C77.8103 245.523 78.3672 245.561 78.5825 245.238C78.7978 244.914 78.5305 244.604 78.2929 244.35C76.5157 242.564 74.2069 241.22 71.6103 240.462C69.0486 239.644 66.8285 238.66 63.7694 238.876" fill="#E0E0E0"/>
<path d="M60.2793 220.05C62.4343 221.747 64.9811 223.041 67.756 223.847C70.5309 224.653 73.4725 224.954 76.3918 224.731C76.663 224.739 76.9278 224.66 77.1344 224.509C77.5427 224.129 77.0527 223.545 76.5849 223.241C71.8477 220.069 66.108 218.801 60.2941 220.069" fill="#E0E0E0"/>
<path d="M64.3486 218.777C67.2007 216.985 70.5082 215.795 74.0014 215.303C77.4946 214.811 81.0743 215.032 84.4485 215.948C81.8176 218.028 78.4439 219.293 74.87 219.538C71.3378 219.815 67.776 219.557 64.3486 218.777Z" fill="#E0E0E0"/>
<path d="M62.7296 210.042C62.2692 206.002 62.5662 202.817 62.2395 198.758C62.2395 198.435 62.1355 198.048 61.7791 197.927C61.2817 197.769 60.8733 198.282 60.7099 198.714C60.0208 200.594 59.8438 202.585 60.1926 204.532C60.5413 206.48 61.4065 208.334 62.7221 209.953" fill="#E0E0E0"/>
<path d="M62.3882 210.485C65.4892 208.787 68.1624 206.576 70.2514 203.984C71.7958 202.177 73.1027 200.014 72.7537 197.794C71.6644 197.818 70.5945 198.046 69.6186 198.46C68.6426 198.874 67.7842 199.465 67.1031 200.191C65.7546 201.653 64.7738 203.338 64.2222 205.139C63.5985 206.915 63.1604 208.741 62.4179 210.485" fill="#E0E0E0"/>
<path d="M70.0883 208.661C77.1493 206.435 83.6874 203.148 89.3937 198.956C87.0919 198.163 84.4559 198.639 82.1542 199.432C76.9286 201.123 72.6114 204.393 70.0215 208.622" fill="#E0E0E0"/>
<path d="M64.5562 212.7C68.1038 213.13 71.7034 213.145 75.2558 212.745C78.7233 212.25 82.0052 211.07 85.2426 209.91C85.5258 209.837 85.7686 209.679 85.9257 209.466C85.9746 209.337 85.9773 209.199 85.9337 209.069C85.89 208.939 85.8019 208.823 85.6807 208.736C85.43 208.568 85.138 208.451 84.8268 208.394C81.2998 207.556 77.4982 207.95 74.0306 208.945C70.728 209.912 67.5526 211.17 64.5562 212.7Z" fill="#E0E0E0"/>
<path d="M44.2638 220.191C41.8358 216.005 42.0362 211.121 44.093 206.808C45.578 208.711 45.7488 211.172 45.4815 213.462C45.2142 215.751 44.3974 218.098 44.338 220.394" fill="#E0E0E0"/>
<path d="M34.5438 216.01C31.5056 215.975 28.4924 216.483 25.6973 217.501C22.9022 218.519 20.3869 220.025 18.3125 221.921C21.381 222.236 24.489 221.745 27.2227 220.513C29.929 219.286 32.4816 217.826 34.8409 216.156" fill="#E0E0E0"/>
<path d="M28.0244 214.148C25.0543 213.945 22.2105 213.634 19.3592 214.376C17.9207 214.722 16.5863 215.329 15.4472 216.156C14.3081 216.982 13.3909 218.008 12.7583 219.165C15.5548 219.357 18.3601 218.903 20.8814 217.852C23.3877 216.803 25.7784 215.563 28.0244 214.148Z" fill="#E0E0E0"/>
<path d="M37.6776 214.235C35.0119 212.745 32.2721 211.223 29.1683 210.601C26.0646 209.979 22.4857 210.442 20.3027 212.44C22.8124 213.709 25.8642 213.848 28.7822 213.848C31.7003 213.848 35.2644 213.817 38.0117 214.648" fill="#E0E0E0"/>
<path d="M37.6923 214.356C33.1333 210.551 31.4106 203.662 33.2372 198.436C36.8347 203.142 38.4092 208.769 37.6923 214.356Z" fill="#E0E0E0"/>
<path d="M50.2036 203.523C51.0649 201.81 51.6886 200.022 52.4312 198.284C53.1341 196.52 54.2142 194.884 55.6165 193.457C57.0372 192.011 59.0667 191.099 61.2671 190.92C60.5642 193.555 59.2268 196.035 57.3399 198.204C55.453 200.373 53.0581 202.182 50.3076 203.517" fill="#E0E0E0"/>
<path d="M47.9762 205.779C46.558 204.105 44.9096 201.834 42.9791 200.584C41.0485 199.335 38.524 198.58 36.1851 199.056C37.4048 200.881 39.1052 202.439 41.1518 203.606C43.1983 204.773 45.5348 205.517 47.9762 205.779Z" fill="#E0E0E0"/>
<path d="M48.4142 203.663C47.4035 201.666 46.6564 199.579 46.1866 197.44C45.72 195.276 46.123 193.041 47.3301 191.098C49.8324 195.138 50.6417 199.476 48.5701 203.694" fill="#E0E0E0"/>
<path d="M50.2554 191.089C51.6736 187.087 55.9653 184.112 60.606 182.78C61.1791 182.579 61.8011 182.501 62.4177 182.552C62.726 182.579 63.0177 182.684 63.2558 182.854C63.4938 183.023 63.6674 183.249 63.7543 183.503C63.925 184.182 63.2642 184.772 62.6405 185.248C59.0183 187.892 54.8046 189.879 50.2554 191.089Z" fill="#E0E0E0"/>
<path d="M50.3076 187.836C50.4859 185.248 50.6715 182.628 51.659 180.18C52.6466 177.732 54.54 175.442 57.2947 174.37C57.7625 176.977 56.4185 179.571 54.7924 181.817C53.1663 184.062 51.2061 186.18 50.2334 188.686" fill="#E0E0E0"/>
<path d="M50.2034 189.613C49.0302 186.695 48.9114 182.985 46.8621 180.442C45.429 178.666 43.1495 177.454 41.9095 175.57C41.1649 177.377 41.2687 179.359 42.1991 181.101C43.13 182.824 44.4122 184.392 45.9859 185.731C47.4709 187.114 48.7926 188.154 50.2034 189.613Z" fill="#E0E0E0"/>
<path d="M50.2554 275.589C50.1663 275.589 50.0846 256.117 50.0772 232.097C50.0697 208.077 50.144 188.599 50.2331 188.599C50.3222 188.599 50.4039 208.065 50.4113 232.097C50.4187 256.13 50.3445 275.589 50.2554 275.589Z" fill="#E0E0E0"/>
<path d="M70.1776 217.248C69.9052 217.366 69.619 217.46 69.3237 217.527L66.9625 218.206C64.9726 218.783 62.2402 219.62 59.2775 220.66C56.3149 221.701 53.5676 222.608 51.9935 223.775C51.3556 224.221 50.8473 224.788 50.5084 225.43C50.2783 225.887 50.2411 226.166 50.2114 226.166C50.1817 226.166 50.2114 226.09 50.2114 225.956C50.2492 225.764 50.3063 225.576 50.3822 225.392C50.6796 224.713 51.1694 224.107 51.8078 223.629C52.7602 222.941 53.826 222.377 54.971 221.954C56.2332 221.447 57.6366 220.92 59.1216 220.4C62.0917 219.36 64.8464 218.548 66.8586 218.015C67.8684 217.749 68.6852 217.552 69.2569 217.419C69.5568 217.337 69.8651 217.28 70.1776 217.248Z" fill="#E0E0E0"/>
<path d="M76.7114 203.546C76.6417 203.627 76.5593 203.7 76.4664 203.762L75.7239 204.352L72.9914 206.47L63.9031 213.384C60.3539 216.086 57.2873 218.661 55.1637 220.602C54.0945 221.572 53.2554 222.378 52.6837 222.936L52.0229 223.57C51.9538 223.65 51.8713 223.72 51.7778 223.779C51.8332 223.69 51.9005 223.607 51.9783 223.532C52.112 223.373 52.3124 223.139 52.5872 222.853C53.1292 222.27 53.946 221.445 54.9929 220.456C57.7355 217.895 60.6354 215.46 63.6803 213.162C67.2444 210.472 70.4818 208.049 72.8355 206.311C73.9938 205.462 74.9443 204.77 75.6348 204.256L76.3773 203.711C76.4793 203.643 76.5917 203.588 76.7114 203.546Z" fill="#E0E0E0"/>
<path d="M60.0866 216.131C59.9901 216.093 60.7326 214.634 61.4751 212.782C62.2176 210.93 62.5666 209.376 62.6631 209.389C62.5861 210.581 62.2905 211.756 61.787 212.871C61.4681 213.661 61.0987 214.436 60.6806 215.192C60.5315 215.526 60.3318 215.842 60.0866 216.131Z" fill="#E0E0E0"/>
<path d="M50.278 227.916C50.0698 227.756 49.8853 227.575 49.7285 227.377L48.3252 225.842C47.152 224.542 45.5259 222.747 43.6993 220.768C41.8727 218.789 40.2021 217.045 38.9843 215.77L37.581 214.273C37.3931 214.095 37.2265 213.902 37.0835 213.696C37.3003 213.848 37.4992 214.018 37.6775 214.203C38.0413 214.539 38.5611 215.04 39.1625 215.662C40.4248 216.93 42.1326 218.643 43.9592 220.609C45.7858 222.575 47.3822 224.415 48.5108 225.721C49.0825 226.356 49.528 226.933 49.8325 227.313C50.0046 227.501 50.1538 227.703 50.278 227.916Z" fill="#E0E0E0"/>
<path d="M45.904 223.127C45.0236 222.295 44.3963 221.291 44.0774 220.203C43.73 219.247 43.5891 218.246 43.6616 217.247H43.8101C43.7898 217.368 43.7418 217.485 43.669 217.59C43.669 217.59 43.669 217.457 43.669 217.228H43.8175C43.8869 218.201 44.0811 219.165 44.3967 220.102C44.8131 221.14 45.3168 222.151 45.904 223.127Z" fill="#E0E0E0"/>
<path d="M40.2691 217.097C39.8741 216.843 39.4454 216.631 38.992 216.463C37.8427 216.167 36.6324 216.084 35.4427 216.222C34.238 216.297 33.0431 216.46 31.8713 216.71C31.3843 216.838 30.8883 216.94 30.3862 217.015C30.8198 216.786 31.2937 216.619 31.7896 216.52C32.9652 216.209 34.1783 216.013 35.4056 215.936C36.6373 215.797 37.8902 215.912 39.0588 216.273C39.5619 216.419 39.9897 216.711 40.2691 217.097Z" fill="#E0E0E0"/>
<path d="M38.9327 215.6C38.9327 215.645 38.1901 215.347 36.9724 214.966C33.7992 214.044 30.4035 213.825 27.1044 214.332C25.8421 214.522 25.0848 214.725 25.0625 214.681C25.2222 214.593 25.3978 214.529 25.5823 214.49C26.0679 214.345 26.5639 214.226 27.0673 214.135C28.7265 213.824 30.4299 213.722 32.1238 213.831C33.8147 213.944 35.4777 214.264 37.0615 214.782C37.5398 214.939 38.006 215.121 38.4574 215.328C38.6313 215.397 38.7916 215.489 38.9327 215.6Z" fill="#E0E0E0"/>
<path d="M50.2039 209.388C49.6226 208.003 49.1464 206.588 48.7783 205.151C48.2987 203.738 47.9266 202.299 47.6646 200.844C48.2465 202.229 48.7251 203.645 49.0976 205.081C49.5729 206.495 49.9424 207.934 50.2039 209.388Z" fill="#E0E0E0"/>
<path d="M50.3222 209.389C49.8658 208.512 49.3373 207.664 48.7407 206.852C48.0721 206.083 47.2882 205.392 46.4092 204.797C46.7406 204.869 47.048 205.006 47.3076 205.196C47.9694 205.607 48.5444 206.111 49.008 206.687C49.7174 207.473 50.1708 208.405 50.3222 209.389Z" fill="#E0E0E0"/>
<path d="M50.2555 265.206C50.2555 265.206 50.1516 264.736 49.8917 263.937C49.5277 262.773 49.0303 261.643 48.4067 260.563C46.2113 257.04 43.4963 253.772 40.3281 250.839C38.5238 249.076 36.7715 247.414 35.2865 245.822C33.9497 244.425 32.7431 242.941 31.6779 241.382C30.9614 240.33 30.3527 239.226 29.8587 238.084C29.6879 237.678 29.5691 237.361 29.5023 237.145C29.4589 237.036 29.4266 236.924 29.4058 236.809C29.4058 236.809 29.5988 237.253 29.9775 238.046C30.517 239.163 31.1523 240.244 31.8783 241.281C32.9663 242.815 34.1822 244.279 35.5166 245.664C37.0017 247.237 38.7689 248.886 40.5732 250.649C43.7644 253.6 46.4721 256.907 48.622 260.48C49.2426 261.577 49.7231 262.727 50.0551 263.912C50.143 264.234 50.2099 264.56 50.2555 264.889C50.2669 264.994 50.2669 265.1 50.2555 265.206Z" fill="#E0E0E0"/>
<path d="M68.2616 247.839C67.9565 248.003 67.6418 248.153 67.3186 248.289C66.463 248.698 65.644 249.16 64.8683 249.672C63.7192 250.431 62.6439 251.269 61.6533 252.177C60.5246 253.192 59.3663 254.372 58.1783 255.64C55.8097 258.178 53.5896 260.436 52.2382 262.231C51.5625 263.119 51.0724 263.867 50.7532 264.393C50.6006 264.673 50.4269 264.944 50.2334 265.205C50.2334 265.205 50.2334 265.123 50.3225 264.977C50.4116 264.831 50.4859 264.615 50.6344 264.343C51.0557 263.58 51.5319 262.841 52.06 262.129C53.8636 259.816 55.8195 257.593 57.9184 255.469C59.1064 254.201 60.287 253.021 61.4379 252C62.4506 251.095 63.5509 250.266 64.7273 249.52C65.5296 249.007 66.3845 248.557 67.2815 248.175C67.5223 248.07 67.7703 247.976 68.024 247.896C68.1775 247.845 68.2567 247.826 68.2616 247.839Z" fill="#E0E0E0"/>
<path d="M68.6105 253.471C67.9525 253.595 67.285 253.677 66.6131 253.719C65.0109 253.859 63.4274 254.126 61.8833 254.518C60.356 254.942 58.9247 255.585 57.651 256.421C56.6783 257.055 56.2179 257.594 56.166 257.569C56.114 257.543 56.2402 257.41 56.4555 257.176C56.7657 256.844 57.1139 256.54 57.4951 256.269C58.7583 255.367 60.2129 254.683 61.7794 254.252C63.3427 253.853 64.9548 253.61 66.5834 253.528C67.2556 253.456 67.9342 253.437 68.6105 253.471Z" fill="#E0E0E0"/>
<path d="M56.7524 256.94C56.6485 256.889 57.5469 255.716 58.2374 254.136C58.928 252.557 59.0468 251.149 59.1581 251.168C59.2215 251.47 59.2215 251.779 59.1581 252.081C59.0569 252.816 58.8627 253.539 58.579 254.238C58.2736 254.928 57.8854 255.589 57.4207 256.21C57.248 256.484 57.022 256.731 56.7524 256.94Z" fill="#E0E0E0"/>
<path d="M74.0904 232.705C73.9936 232.767 73.8859 232.817 73.7711 232.851L72.8356 233.212C72.4198 233.364 71.9223 233.555 71.3506 233.808C70.7788 234.062 70.1254 234.316 69.4423 234.665L68.3582 235.191C67.9795 235.381 67.6157 235.597 67.2073 235.825C66.4054 236.238 65.6035 236.751 64.7422 237.272C62.9223 238.451 61.205 239.742 59.604 241.134C58.0328 242.542 56.5859 244.047 55.2751 245.638C54.6886 246.392 54.1168 247.096 53.6565 247.794C53.4263 248.137 53.1813 248.467 52.9733 248.796L52.4313 249.748C52.0452 250.344 51.7705 250.915 51.4957 251.403C51.221 251.892 51.0131 252.323 50.8498 252.672C50.6864 253.021 50.5602 253.268 50.4562 253.484C50.4155 253.581 50.3632 253.674 50.3003 253.763C50.3144 253.66 50.347 253.559 50.3968 253.465L50.731 252.634C50.8795 252.272 51.0651 251.828 51.325 251.333C51.5848 250.839 51.8447 250.255 52.2234 249.653C52.4016 249.342 52.5947 249.018 52.7877 248.688C52.9808 248.359 53.2258 248.054 53.4634 247.674C53.9163 246.963 54.4806 246.253 55.0598 245.492C57.6661 242.236 60.8968 239.38 64.616 237.043C65.4847 236.523 66.3015 236.016 67.1108 235.61C67.5192 235.401 67.8979 235.179 68.2765 234.976L69.3829 234.455C70.0809 234.119 70.7491 233.872 71.3209 233.637C71.8042 233.431 72.2999 233.247 72.8059 233.085L73.7711 232.768C73.8749 232.738 73.9818 232.717 74.0904 232.705Z" fill="#E0E0E0"/>
<path d="M59.8564 240.862C59.9741 240.471 60.2341 240.122 60.599 239.866C61.4773 239.213 62.5979 238.847 63.7621 238.832C64.9002 238.828 66.0281 239.015 67.0811 239.384C67.5258 239.506 67.9482 239.681 68.3359 239.904C67.8815 239.831 67.4363 239.721 67.0068 239.574C65.9655 239.267 64.8713 239.11 63.7695 239.111C62.6771 239.131 61.6208 239.449 60.7549 240.018C60.4297 240.279 60.1293 240.561 59.8564 240.862Z" fill="#E0E0E0"/>
<path d="M57.7109 242.739C58.1336 241.944 58.4355 241.107 58.6094 240.246C58.6695 239.376 58.6022 238.502 58.4089 237.646C58.5999 237.86 58.7274 238.11 58.7802 238.375C59.1642 239.629 58.9813 240.961 58.2678 242.105C57.9857 242.536 57.7406 242.758 57.7109 242.739Z" fill="#E0E0E0"/>
<path d="M34.5068 267.996C34.9969 275.443 37.6254 283.01 41.6647 290.665H59.2251C63.0788 283.086 65.5216 275.531 65.9523 267.996H34.5068Z" fill="#E0E0E0"/>
<path d="M63.1088 280.041C63.1088 280.117 57.3246 280.18 50.1965 280.18C43.0684 280.18 37.2842 280.117 37.2842 280.041C37.2842 279.966 43.0609 279.89 50.2039 279.89C57.3469 279.89 63.1088 279.966 63.1088 280.041Z" fill="#FAFAFA"/>
<path d="M62.7153 282.736C62.7153 282.811 57.295 282.875 50.6123 282.875C43.9297 282.875 38.502 282.811 38.502 282.736C38.502 282.66 43.9223 282.597 50.6123 282.597C57.3024 282.597 62.7153 282.66 62.7153 282.736Z" fill="#FAFAFA"/>
<path d="M41.947 272.912C42.1649 275.211 42.1649 277.521 41.947 279.819C41.7292 277.521 41.7292 275.211 41.947 272.912Z" fill="#FAFAFA"/>
<path d="M51.3548 272.912C51.5726 275.293 51.5726 277.685 51.3548 280.067C51.137 277.685 51.137 275.293 51.3548 272.912Z" fill="#FAFAFA"/>
<path d="M60.1907 272.822C60.4085 275.252 60.4085 277.693 60.1907 280.122C59.9729 277.693 59.9729 275.252 60.1907 272.822Z" fill="#FAFAFA"/>
<path d="M65.3956 272.91C65.3956 272.986 58.6165 273.049 50.2558 273.049C41.8951 273.049 35.1011 272.986 35.1011 272.91C35.1011 272.834 41.8876 272.771 50.2558 272.771C58.6239 272.771 65.3956 272.803 65.3956 272.91Z" fill="#FAFAFA"/>
<path d="M337.846 203.478C339.453 202.872 340.816 201.876 341.768 200.615C342.719 199.353 343.217 197.881 343.199 196.381C343.199 192.144 339.487 188.693 334.816 188.681C330.146 188.668 326.374 192.08 326.359 196.292C326.325 197.804 326.816 199.291 327.771 200.566C328.725 201.84 330.099 202.845 331.72 203.453C318.763 205.121 319.35 217.147 319.35 217.147L349.993 217.267C349.993 217.267 350.691 205.134 337.846 203.478Z" fill="#EBEBEB"/>
<path d="M200.094 28.5952C201.223 28.4058 202.263 27.9406 203.088 27.2561C203.913 26.5715 204.488 25.697 204.743 24.7388C204.954 24.1239 205.016 23.4787 204.926 22.8425C204.836 22.2063 204.595 21.5925 204.218 21.0384C203.841 20.4844 203.336 20.0018 202.733 19.62C202.131 19.2381 201.443 18.9652 200.713 18.8177C199.983 18.6702 199.226 18.6512 198.487 18.762C197.748 18.8728 197.043 19.111 196.415 19.4621C195.788 19.8132 195.251 20.2697 194.836 20.804C194.422 21.3383 194.139 21.939 194.006 22.5696C193.72 23.5313 193.775 24.5437 194.164 25.4787C194.552 26.4136 195.257 27.229 196.189 27.8214C187.628 27.2442 185.927 34.995 185.927 34.995L205.455 38.9465C205.455 38.9465 208.01 31.2528 200.094 28.5952Z" fill="#EBEBEB"/>
<path d="M338.685 93.165C339.621 92.6647 340.365 91.9407 340.824 91.0827C341.284 90.2247 341.438 89.2705 341.269 88.3382C341.213 87.721 341.009 87.1202 340.671 86.5728C340.333 86.0254 339.867 85.543 339.302 85.1555C338.737 84.768 338.085 84.4836 337.386 84.3198C336.687 84.156 335.956 84.1163 335.239 84.2031C334.521 84.29 333.832 84.5016 333.214 84.8249C332.596 85.1481 332.062 85.5761 331.646 86.0825C331.229 86.5889 330.938 87.1629 330.791 87.769C330.644 88.3752 330.645 89.0006 330.792 89.6067C330.929 90.5506 331.39 91.4385 332.119 92.1578C332.847 92.8771 333.809 93.3954 334.883 93.647C327.005 95.6831 328.631 103.117 328.631 103.117L347.699 100.84C347.699 100.84 346.845 93.2094 338.685 93.165Z" fill="#F5F5F5"/>
<path d="M32.7396 95.4672L22.4409 88.4712L25.2922 85.4013L32.205 90.0886L42.2883 80.454L45.7113 83.0672L32.7396 95.4672Z" fill="#F5F5F5"/>
<path d="M344.729 290.886C344.729 290.981 270.366 291.051 178.666 291.051C86.9655 291.051 12.5879 290.981 12.5879 290.886C12.5879 290.791 86.9283 290.721 178.666 290.721C270.403 290.721 344.729 290.797 344.729 290.886Z" fill="#263238"/>
<path d="M46.7878 105.598L24.0149 115.36C23.1887 115.667 22.4861 116.174 21.9939 116.819C21.5017 117.464 21.2414 118.218 21.2453 118.988V128.089C21.2192 136.369 24.0412 144.472 29.361 151.393C33.4671 156.733 38.9097 163.558 47.9609 167.459H52.0448C62.1281 164.833 69.6498 157.837 74.2459 151.849C79.5679 144.929 82.3925 136.826 82.369 128.546V118.988C82.3678 118.215 82.1013 117.459 81.6025 116.814C81.1036 116.169 80.3943 115.664 79.5623 115.36L53.5818 105.915C52.4309 105.497 47.9758 105.179 46.7878 105.598Z" fill="#742871"/>
<path opacity="0.3" d="M46.7878 105.598L24.0149 115.36C23.1887 115.667 22.4861 116.174 21.9939 116.819C21.5017 117.464 21.2414 118.218 21.2453 118.988V128.089C21.2192 136.369 24.0412 144.472 29.361 151.393C33.4671 156.733 38.9097 163.558 47.9609 167.459H52.0448C62.1281 164.833 69.6498 157.837 74.2459 151.849C79.5679 144.929 82.3925 136.826 82.369 128.546V118.988C82.3678 118.215 82.1013 117.459 81.6025 116.814C81.1036 116.169 80.3943 115.664 79.5623 115.36L53.5818 105.915C52.4309 105.497 47.9758 105.179 46.7878 105.598Z" fill="black"/>
<path d="M45.8747 105.912L19.9239 115.357C19.0919 115.661 18.3826 116.166 17.8837 116.811C17.3849 117.456 17.1184 118.212 17.1172 118.985V128.086C17.1178 136.516 20.0451 144.756 25.5288 151.763C31.0125 158.771 38.8063 164.232 47.9241 167.456C58 164.83 65.5216 157.834 70.1252 151.846C75.4472 144.926 78.2718 136.823 78.2483 128.543V118.985C78.2478 118.212 77.9824 117.457 77.4849 116.812C76.9874 116.168 76.2796 115.662 75.4491 115.357L49.4611 105.912C48.8933 105.709 48.2837 105.604 47.6679 105.604C47.0521 105.604 46.4425 105.709 45.8747 105.912Z" fill="#742871"/>
<path opacity="0.3" d="M53.8407 147.197C62.5998 144.295 66.9463 135.877 63.5488 128.395C60.1514 120.913 50.2966 117.2 41.5375 120.102C32.7784 123.004 28.4319 131.422 31.8293 138.904C35.2268 146.387 45.0816 150.1 53.8407 147.197Z" fill="black"/>
<path d="M47.679 134.457C51.5788 134.457 54.7403 131.756 54.7403 128.425C54.7403 125.094 51.5788 122.393 47.679 122.393C43.7791 122.393 40.6177 125.094 40.6177 128.425C40.6177 131.756 43.7791 134.457 47.679 134.457Z" fill="white"/>
<path d="M34.7891 143.121C35.9247 141.091 37.7169 139.382 39.9538 138.195C42.1907 137.008 44.7787 136.393 47.4118 136.423C50.1118 136.423 52.7617 137.046 55.0825 138.224C57.4032 139.403 59.3089 141.095 60.5988 143.121C60.5988 143.121 56.4333 148.385 47.2336 148.195C44.8493 148.187 42.4968 147.728 40.3451 146.85C38.1934 145.973 36.2959 144.699 34.7891 143.121Z" fill="white"/>
<path d="M64.69 133.651C64.6815 133.573 64.6815 133.495 64.69 133.417C64.69 133.246 64.69 133.017 64.6232 132.732C64.6232 132.58 64.6232 132.408 64.6232 132.224C64.6232 132.04 64.5489 131.837 64.5118 131.59C64.4344 131.087 64.3153 130.589 64.1554 130.1C63.7517 128.745 63.1135 127.449 62.262 126.256C61.1451 124.672 59.6832 123.285 57.9554 122.171C55.8681 120.815 53.4363 119.898 50.857 119.495C47.8957 119.029 44.8426 119.248 42.0136 120.129C41.2481 120.356 40.5035 120.631 39.7861 120.953C39.0688 121.289 38.3791 121.666 37.7219 122.082C37.0535 122.512 36.4162 122.976 35.8137 123.471C35.223 123.995 34.6724 124.55 34.1653 125.133C33.1258 126.336 32.3163 127.672 31.767 129.091C30.6085 132.033 30.6085 135.219 31.767 138.161C32.313 139.582 33.1228 140.918 34.1653 142.119C34.6724 142.705 35.2229 143.262 35.8137 143.787C36.4144 144.283 37.0518 144.744 37.7219 145.17C39.011 146.01 40.4468 146.671 41.9765 147.13C44.8054 148.011 47.8586 148.23 50.8198 147.764C53.1717 147.386 55.4034 146.587 57.3688 145.421C59.3343 144.255 60.9891 142.747 62.2249 140.996C63.0669 139.811 63.6952 138.524 64.0886 137.178C64.2478 136.687 64.3669 136.187 64.445 135.681C64.445 135.466 64.5341 135.263 64.5564 135.047C64.5786 134.831 64.5564 134.692 64.5564 134.539L64.6232 133.848C64.6156 133.77 64.6156 133.692 64.6232 133.613C64.6312 133.692 64.6312 133.77 64.6232 133.848C64.6232 134.026 64.6232 134.254 64.6232 134.546C64.6232 134.698 64.6232 134.869 64.6232 135.053C64.6232 135.237 64.5638 135.446 64.5266 135.687C64.4673 136.2 64.358 136.707 64.1999 137.203C63.8232 138.577 63.1995 139.893 62.3511 141.104C60.3333 144.047 57.1725 146.293 53.4178 147.451C49.6631 148.61 45.5518 148.608 41.7983 147.447C41.034 147.212 40.2897 146.932 39.5708 146.61C38.8399 146.258 38.14 145.862 37.4769 145.424C36.7862 144.991 36.1313 144.518 35.5166 144.009C34.9256 143.482 34.375 142.923 33.8683 142.335C32.7994 141.107 31.9672 139.74 31.4031 138.288C30.8392 136.789 30.5414 135.226 30.5195 133.651C30.5402 132.076 30.8406 130.513 31.4105 129.015C31.969 127.562 32.7989 126.195 33.8683 124.968C34.3903 124.372 34.9557 123.804 35.5612 123.268C36.1736 122.759 36.8261 122.287 37.514 121.854C38.1724 121.425 38.8646 121.035 39.5856 120.687C40.3044 120.362 41.0487 120.08 41.8132 119.843C44.7006 118.95 47.815 118.731 50.8347 119.209C53.23 119.602 55.4992 120.428 57.4904 121.632C59.4817 122.835 61.149 124.388 62.3808 126.186C63.2294 127.399 63.8531 128.717 64.2296 130.093C64.3876 130.588 64.4969 131.093 64.5564 131.603C64.5564 131.825 64.638 132.028 64.6529 132.237V132.751C64.6529 133.043 64.6529 133.271 64.6529 133.442C64.6721 133.511 64.6845 133.581 64.69 133.651Z" fill="#263238"/>
<path d="M78.1594 126.078C78.194 126.218 78.2114 126.36 78.2114 126.503C78.2114 126.807 78.2114 127.207 78.2708 127.708C78.3302 128.209 78.3302 128.869 78.2708 129.611C78.2708 129.985 78.2708 130.378 78.2708 130.803C78.2708 131.228 78.2708 131.672 78.1743 132.135C78.0703 133.068 77.9961 134.095 77.7659 135.186C77.6694 135.732 77.5877 136.296 77.454 136.873C77.3204 137.451 77.157 138.04 77.0085 138.649C76.2945 141.271 75.3003 143.832 74.0385 146.299C72.7345 148.753 71.1764 151.103 69.3829 153.32C68.5216 154.316 67.7271 155.28 66.8658 156.111C66.45 156.529 66.0639 156.954 65.6555 157.329L64.4749 158.394C63.7324 159.098 62.9899 159.663 62.3513 160.164C61.817 160.613 61.2543 161.036 60.6658 161.432L59.5669 162.193C59.4463 162.286 59.3144 162.367 59.1733 162.434C59.2789 162.328 59.3957 162.231 59.5223 162.143L60.5693 161.337C61.037 160.995 61.5939 160.57 62.2028 160.069C62.8117 159.568 63.5542 158.978 64.2744 158.274L65.4327 157.195C65.8337 156.821 66.1752 156.396 66.6207 155.978C67.4598 155.147 68.2394 154.183 69.0933 153.18C70.8558 150.972 72.3911 148.638 73.6821 146.203C74.9368 143.747 75.9308 141.2 76.6521 138.592L77.1125 136.829C77.2461 136.258 77.3352 135.694 77.4466 135.154C77.6842 134.076 77.7733 133.055 77.8921 132.129C77.9589 131.666 78.0035 131.222 78.0183 130.803L78.0852 129.617C78.152 128.875 78.1371 128.235 78.1371 127.714C78.1371 127.194 78.1371 126.82 78.1371 126.509C78.1319 126.365 78.1393 126.221 78.1594 126.078Z" fill="#263238"/>
<path d="M258.709 290.885H83.134C81.9837 290.869 80.8485 290.659 79.7933 290.267C78.738 289.876 77.7835 289.31 76.9843 288.603C76.185 287.897 75.5567 287.062 75.1353 286.148C74.7139 285.233 74.5076 284.257 74.5283 283.274V54.0355C74.5076 53.0529 74.7139 52.0764 75.1353 51.162C75.5567 50.2475 76.185 49.413 76.9843 48.7061C77.7835 47.9992 78.738 47.4338 79.7933 47.0423C80.8485 46.6507 81.9837 46.4407 83.134 46.4242H258.709C259.859 46.4407 260.994 46.6508 262.048 47.0424C263.103 47.434 264.057 47.9995 264.856 48.7065C265.655 49.4135 266.282 50.248 266.703 51.1625C267.123 52.0769 267.329 53.0532 267.307 54.0355V283.287C267.327 284.268 267.12 285.243 266.698 286.156C266.277 287.069 265.649 287.902 264.851 288.608C264.052 289.313 263.099 289.878 262.045 290.268C260.991 290.659 259.857 290.869 258.709 290.885Z" fill="#263238"/>
<path d="M174.285 279.769C174.313 281.153 173.858 282.514 172.978 283.677C172.098 284.84 170.832 285.753 169.342 286.3C167.852 286.846 166.206 287.002 164.612 286.746C163.019 286.491 161.55 285.836 160.394 284.865C159.238 283.895 158.446 282.652 158.119 281.295C157.792 279.939 157.945 278.53 158.559 277.248C159.173 275.966 160.22 274.869 161.566 274.097C162.912 273.325 164.496 272.912 166.118 272.912C168.265 272.897 170.331 273.611 171.863 274.896C173.394 276.182 174.266 277.934 174.285 279.769Z" fill="#455A64"/>
<path d="M190.672 59.3528H151.319C150.952 59.3478 150.59 59.2812 150.254 59.1568C149.917 59.0323 149.613 58.8525 149.358 58.6275C149.103 58.4025 148.902 58.1367 148.767 57.8455C148.632 57.5542 148.566 57.2431 148.572 56.9299C148.56 56.2967 148.842 55.6854 149.357 55.23C149.872 54.7746 150.578 54.5123 151.319 54.5006H190.672C191.413 54.5123 192.119 54.7746 192.634 55.23C193.149 55.6854 193.431 56.2967 193.419 56.9299C193.425 57.2431 193.359 57.5542 193.224 57.8455C193.089 58.1367 192.888 58.4025 192.633 58.6275C192.378 58.8525 192.074 59.0323 191.737 59.1568C191.401 59.2812 191.039 59.3478 190.672 59.3528Z" fill="#455A64"/>
<path d="M261.07 63.8756H80.4463V268.022H261.07V63.8756Z" fill="white"/>
<path d="M261.07 63.8756H253.363V268.022H261.07V63.8756Z" fill="#F5F5F5"/>
<path d="M257.209 137.222C256.572 137.221 255.962 137.003 255.513 136.618C255.063 136.233 254.811 135.711 254.811 135.167V90.0134C254.811 89.4695 255.063 88.9477 255.513 88.5625C255.962 88.1773 256.572 87.9601 257.209 87.9584C257.847 87.9584 258.459 88.1749 258.91 88.5603C259.361 88.9457 259.615 89.4684 259.615 90.0134V135.167C259.615 135.712 259.361 136.235 258.91 136.62C258.459 137.006 257.847 137.222 257.209 137.222Z" fill="#E0E0E0"/>
<path d="M237.51 110.336H104.332C103.316 110.336 102.342 109.991 101.623 109.377C100.905 108.763 100.501 107.931 100.501 107.063C100.501 106.195 100.905 105.362 101.623 104.749C102.342 104.135 103.316 103.79 104.332 103.79H237.51C238.526 103.79 239.5 104.135 240.219 104.749C240.937 105.362 241.341 106.195 241.341 107.063C241.341 107.931 240.937 108.763 240.219 109.377C239.5 109.991 238.526 110.336 237.51 110.336Z" fill="#E0E0E0"/>
<path d="M217.024 86.4361H133.246C132.23 86.4361 131.256 86.0913 130.537 85.4775C129.819 84.8637 129.415 84.0312 129.415 83.1632C129.415 82.2952 129.819 81.4628 130.537 80.849C131.256 80.2352 132.23 79.8904 133.246 79.8904H217.024C218.04 79.8904 219.015 80.2352 219.733 80.849C220.452 81.4628 220.856 82.2952 220.856 83.1632C220.856 84.0312 220.452 84.8637 219.733 85.4775C219.015 86.0913 218.04 86.4361 217.024 86.4361Z" fill="#742871"/>
<path d="M218.598 123.508H123.244C122.228 123.508 121.254 123.163 120.535 122.549C119.817 121.936 119.413 121.103 119.413 120.235C119.413 119.367 119.817 118.535 120.535 117.921C121.254 117.307 122.228 116.962 123.244 116.962H218.598C219.101 116.962 219.599 117.047 220.064 117.211C220.529 117.376 220.951 117.617 221.307 117.921C221.663 118.225 221.945 118.586 222.138 118.983C222.33 119.38 222.429 119.805 222.429 120.235C222.429 120.665 222.33 121.091 222.138 121.488C221.945 121.885 221.663 122.245 221.307 122.549C220.951 122.853 220.529 123.094 220.064 123.259C219.599 123.423 219.101 123.508 218.598 123.508Z" fill="#E0E0E0"/>
<path d="M175.547 180.941H102.179C101.163 180.941 100.188 180.596 99.4698 179.983C98.7513 179.369 98.3477 178.536 98.3477 177.668C98.3477 177.239 98.4468 176.813 98.6393 176.416C98.8319 176.019 99.1141 175.658 99.4698 175.354C99.8256 175.05 100.248 174.809 100.713 174.645C101.178 174.48 101.676 174.396 102.179 174.396H175.547C176.05 174.396 176.548 174.48 177.013 174.645C177.478 174.809 177.9 175.05 178.256 175.354C178.612 175.658 178.894 176.019 179.087 176.416C179.279 176.813 179.378 177.239 179.378 177.668C179.378 178.536 178.974 179.369 178.256 179.983C177.537 180.596 176.563 180.941 175.547 180.941Z" fill="#E0E0E0"/>
<path d="M235.356 167.221H102.179C101.163 167.221 100.188 166.877 99.4698 166.263C98.7513 165.649 98.3477 164.817 98.3477 163.949C98.3477 163.519 98.4468 163.094 98.6394 162.697C98.8321 162.3 99.1144 161.94 99.4703 161.637C99.8262 161.333 100.249 161.093 100.713 160.929C101.178 160.765 101.676 160.681 102.179 160.682H235.356C235.859 160.681 236.357 160.765 236.822 160.929C237.287 161.093 237.709 161.333 238.065 161.637C238.421 161.94 238.703 162.3 238.896 162.697C239.088 163.094 239.188 163.519 239.188 163.949C239.188 164.378 239.089 164.804 238.896 165.201C238.703 165.598 238.421 165.959 238.065 166.263C237.71 166.567 237.287 166.808 236.822 166.972C236.358 167.137 235.859 167.221 235.356 167.221Z" fill="#E0E0E0"/>
<path d="M235.357 204.822H118.79C116.674 204.822 114.958 206.287 114.958 208.095C114.958 209.903 116.674 211.368 118.79 211.368H235.357C237.473 211.368 239.188 209.903 239.188 208.095C239.188 206.287 237.473 204.822 235.357 204.822Z" fill="#E0E0E0"/>
<path d="M235.356 225.341H102.179C101.163 225.341 100.188 224.997 99.4698 224.383C98.7513 223.769 98.3477 222.937 98.3477 222.069C98.3516 221.203 98.757 220.374 99.4751 219.763C100.193 219.152 101.165 218.808 102.179 218.808H235.356C235.859 218.808 236.358 218.893 236.822 219.058C237.287 219.222 237.71 219.463 238.065 219.767C238.421 220.071 238.703 220.432 238.896 220.829C239.089 221.226 239.188 221.652 239.188 222.081C239.184 222.947 238.778 223.776 238.06 224.387C237.342 224.998 236.37 225.341 235.356 225.341Z" fill="#E0E0E0"/>
<path d="M235.356 239.56H102.179C101.163 239.56 100.188 239.215 99.4698 238.602C98.7513 237.988 98.3477 237.155 98.3477 236.287C98.3477 235.419 98.7513 234.587 99.4698 233.973C100.188 233.359 101.163 233.015 102.179 233.015H235.356C235.859 233.015 236.358 233.099 236.822 233.264C237.287 233.428 237.71 233.669 238.065 233.973C238.421 234.277 238.703 234.638 238.896 235.035C239.089 235.432 239.188 235.858 239.188 236.287C239.188 237.155 238.784 237.988 238.065 238.602C237.347 239.215 236.372 239.56 235.356 239.56Z" fill="#E0E0E0"/>
<path d="M108.172 208.095C108.172 208.768 107.938 209.425 107.5 209.984C107.063 210.544 106.441 210.979 105.713 211.237C104.985 211.494 104.185 211.561 103.413 211.429C102.64 211.297 101.931 210.973 101.375 210.497C100.819 210.021 100.44 209.414 100.287 208.754C100.135 208.094 100.215 207.411 100.517 206.79C100.819 206.169 101.331 205.638 101.986 205.265C102.642 204.892 103.412 204.694 104.199 204.695C105.253 204.697 106.264 205.056 107.009 205.693C107.753 206.331 108.172 207.194 108.172 208.095Z" fill="#742871"/>
<path d="M235.357 154.442H118.782C117.766 154.442 116.791 154.097 116.073 153.483C115.354 152.869 114.951 152.037 114.951 151.169C114.951 150.301 115.354 149.468 116.073 148.854C116.791 148.241 117.766 147.896 118.782 147.896H235.357C235.86 147.896 236.358 147.981 236.823 148.145C237.288 148.309 237.71 148.551 238.066 148.854C238.422 149.158 238.704 149.519 238.896 149.916C239.089 150.313 239.188 150.739 239.188 151.169C239.188 151.599 239.089 152.024 238.896 152.421C238.704 152.818 238.422 153.179 238.066 153.483C237.71 153.787 237.288 154.028 236.823 154.192C236.358 154.357 235.86 154.442 235.357 154.442Z" fill="#E0E0E0"/>
<path d="M104.199 154.569C106.397 154.569 108.179 153.046 108.179 151.169C108.179 149.291 106.397 147.769 104.199 147.769C102.001 147.769 100.219 149.291 100.219 151.169C100.219 153.046 102.001 154.569 104.199 154.569Z" fill="#742871"/>
<path d="M231.637 260.372H201.751C200.132 260.372 198.58 259.823 197.435 258.845C196.29 257.868 195.647 256.541 195.647 255.159C195.647 253.776 196.29 252.45 197.435 251.472C198.58 250.494 200.132 249.945 201.751 249.945H231.637C233.256 249.945 234.808 250.494 235.953 251.472C237.098 252.45 237.741 253.776 237.741 255.159C237.741 256.541 237.098 257.868 235.953 258.845C234.808 259.823 233.256 260.372 231.637 260.372Z" fill="#742871"/>
<path d="M77.6764 14.3489L46.6987 27.6242C45.5652 28.0359 44.5983 28.7232 43.9184 29.6005C43.2385 30.4779 42.8756 31.5067 42.8748 32.5589V44.9399C42.8381 56.2078 46.6803 67.2362 53.9234 76.6535C59.5071 83.8969 66.9025 93.1826 79.2208 98.4851H84.7748C98.4816 94.9142 108.713 85.3937 114.973 77.256C122.216 67.8388 126.058 56.8103 126.021 45.5424V32.5589C126.023 31.5095 125.665 30.4828 124.99 29.6057C124.316 28.7287 123.355 28.0397 122.227 27.6242L86.9133 14.7612C85.3391 14.2094 79.2505 13.7781 77.6764 14.3489Z" fill="#742871"/>
<path opacity="0.3" d="M77.6764 14.3489L46.6987 27.6242C45.5652 28.0359 44.5983 28.7232 43.9184 29.6005C43.2385 30.4779 42.8756 31.5067 42.8748 32.5589V44.9399C42.8381 56.2078 46.6803 67.2362 53.9234 76.6535C59.5071 83.8969 66.9025 93.1826 79.2208 98.4851H84.7748C98.4816 94.9142 108.713 85.3937 114.973 77.256C122.216 67.8388 126.058 56.8103 126.021 45.5424V32.5589C126.023 31.5095 125.665 30.4828 124.99 29.6057C124.316 28.7287 123.355 28.0397 122.227 27.6242L86.9133 14.7612C85.3391 14.2094 79.2505 13.7781 77.6764 14.3489Z" fill="black"/>
<path d="M76.429 14.7619L41.1373 27.6249C40.0046 28.0368 39.0387 28.7244 38.3601 29.6018C37.6815 30.4793 37.32 31.5079 37.3208 32.5595V44.9405C37.3226 56.4049 41.3044 67.6112 48.7626 77.1423C56.2209 86.6734 66.8205 94.101 79.2208 98.4858C92.9276 94.9148 103.159 85.3944 109.411 77.2567C116.658 67.8407 120.5 56.8114 120.46 45.5431V32.5595C120.461 31.5079 120.099 30.4793 119.421 29.6018C118.742 28.7244 117.776 28.0368 116.644 27.6249L81.389 14.7619C80.6053 14.475 79.7616 14.3271 78.909 14.3271C78.0564 14.3271 77.2127 14.475 76.429 14.7619Z" fill="#742871"/>
<path d="M120.349 42.207C120.358 42.2553 120.358 42.3046 120.349 42.3529C120.349 42.4671 120.349 42.6066 120.349 42.7779C120.349 43.1838 120.386 43.7293 120.416 44.4206C120.445 45.112 120.49 46 120.416 47.0148C120.416 47.5222 120.416 48.0614 120.356 48.6322C120.356 48.924 120.356 49.2157 120.356 49.5202C120.356 49.8246 120.29 50.1545 120.252 50.4526C120.104 51.7211 120.007 53.1165 119.696 54.5944C119.554 55.3301 119.443 56.1039 119.265 56.8841C119.087 57.6642 118.864 58.4698 118.656 59.2943C117.675 62.8595 116.311 66.3396 114.58 69.69C112.811 73.0252 110.699 76.2197 108.268 79.2358C107.095 80.5932 106.041 81.9061 104.853 83.0415C104.281 83.6123 103.761 84.1895 103.204 84.6969L101.6 86.1557C100.606 87.1072 99.5809 87.8619 98.727 88.566C98.2889 88.9085 97.8954 89.2383 97.5167 89.5237L96.4772 90.2405L94.9921 91.2807L94.5986 91.5471C94.5095 91.6041 94.4575 91.6295 94.4575 91.6232C94.4575 91.6168 94.4575 91.5851 94.5689 91.5153L94.9401 91.2299L96.3732 90.1453L97.4201 89.3652C97.7988 89.0797 98.1627 88.7309 98.6082 88.3884C99.4472 87.678 100.45 86.9169 101.43 85.9591L103.011 84.4876C103.561 83.9802 104.073 83.403 104.63 82.8322C105.781 81.7032 106.857 80.3902 108.001 79.0265C110.408 76.0168 112.502 72.8334 114.26 69.5124C115.976 66.1788 117.341 62.721 118.337 59.1802C118.552 58.3619 118.753 57.5628 118.96 56.7889C119.168 56.0151 119.257 55.2413 119.406 54.5056C119.733 53.0341 119.844 51.645 120.007 50.3828C120.052 50.072 120.089 49.7485 120.126 49.4631C120.163 49.1777 120.126 48.8669 120.171 48.5815C120.2 48.0106 120.23 47.4715 120.26 46.9641C120.342 45.9556 120.319 45.0613 120.319 44.3762V42.7842V42.3529C120.318 42.3031 120.328 42.2535 120.349 42.207Z" fill="#263238"/>
<path d="M92.8678 58.8432H89.1033V41.3436C89.037 39.4005 88.0868 37.556 86.4544 36.2016C84.8219 34.8472 82.6359 34.0896 80.3602 34.0896C78.0845 34.0896 75.8984 34.8472 74.266 36.2016C72.6336 37.556 71.6834 39.4005 71.6171 41.3436V58.8432H67.8525V41.3436C67.9321 38.5551 69.2848 35.9035 71.6217 33.9553C73.9587 32.0071 77.0947 30.9165 80.3602 30.9165C83.6256 30.9165 86.7617 32.0071 89.0986 33.9553C91.4356 35.9035 92.7883 38.5551 92.8678 41.3436V58.8432Z" fill="#F5F5F5"/>
<path d="M92.9054 46.9706H67.8233C65.4407 46.9706 63.5093 48.6205 63.5093 50.6557V65.8529C63.5093 67.8881 65.4407 69.538 67.8233 69.538H92.9054C95.2879 69.538 97.2194 67.8881 97.2194 65.8529V50.6557C97.2194 48.6205 95.2879 46.9706 92.9054 46.9706Z" fill="white"/>
<path d="M92.9058 69.5387C93.2833 69.5046 93.6578 69.4495 94.027 69.3738C94.9265 69.152 95.7162 68.6847 96.2754 68.0433C96.8346 67.4018 97.1324 66.6216 97.1233 65.8218C97.1233 65.0797 97.1233 64.2742 97.1233 63.4053C97.1233 61.6737 97.1233 59.7011 97.1233 57.5192C97.1233 55.3373 97.1233 52.9588 97.1233 50.3963C97.0674 49.7577 96.8101 49.1439 96.3787 48.6201C95.9473 48.0964 95.3578 47.6822 94.673 47.4216C93.9425 47.1647 93.1509 47.0604 92.3637 47.1172H89.8689L67.8237 47.1108C66.897 47.1105 65.9973 47.377 65.2698 47.8673C64.5423 48.3575 64.0295 49.0429 63.8141 49.8128C63.7177 50.1961 63.6778 50.5882 63.6953 50.9799V54.5508C63.6953 57.7222 63.6953 60.716 63.6953 63.6019C63.7621 65.0353 63.4131 66.5132 64.2744 67.6422C64.6558 68.1968 65.2056 68.6529 65.8658 68.9622C66.5259 69.2715 67.2717 69.4225 68.0241 69.3991H76.3774L88.473 69.4562H91.7549H92.6088C92.7075 69.4482 92.807 69.4482 92.9058 69.4562C92.8071 69.4657 92.7075 69.4657 92.6088 69.4562H91.7549H88.473L76.3774 69.507H68.0241C67.4106 69.5305 66.798 69.4463 66.2241 69.2596C65.6501 69.0729 65.1271 68.7876 64.6873 68.4215C64.2476 68.0553 63.9003 67.616 63.6671 67.1307C63.4339 66.6454 63.3197 66.1244 63.3315 65.5999V63.6019C63.3315 60.716 63.3315 57.6905 63.3315 54.5508V51.0053C63.3091 50.5795 63.3516 50.1531 63.4577 49.7367C63.6989 48.9054 64.2614 48.168 65.0541 47.6436C65.8533 47.1036 66.8418 46.8087 67.8608 46.8064H89.8243H92.3192C93.1562 46.7518 93.9965 46.8692 94.7695 47.1489C95.5081 47.4306 96.143 47.8787 96.606 48.4452C97.0691 49.0118 97.3429 49.6753 97.398 50.3646C97.398 52.9525 97.398 55.3246 97.398 57.5065C97.398 59.6884 97.398 61.661 97.398 63.3926C97.398 64.2615 97.398 65.0671 97.398 65.8092C97.3988 66.5038 97.1725 67.1848 96.7446 67.7754C96.1624 68.5956 95.2265 69.1878 94.1383 69.4245C93.7394 69.5279 93.3214 69.5666 92.9058 69.5387Z" fill="#263238"/>
<path d="M82.9481 58.8372C83.288 58.5477 83.5574 58.2036 83.7409 57.8248C83.9244 57.446 84.0184 57.0399 84.0174 56.6299C84.0217 56.039 83.8327 55.4588 83.4716 54.9547C83.1106 54.4507 82.5919 54.0428 81.9739 53.7772C81.356 53.5115 80.6635 53.3986 79.9745 53.4512C79.2854 53.5038 78.6273 53.7198 78.0743 54.0748C77.5213 54.4298 77.0955 54.9098 76.8447 55.4605C76.594 56.0113 76.5284 56.6109 76.6553 57.1918C76.7822 57.7727 77.0966 58.3117 77.563 58.7481C78.0294 59.1846 78.6293 59.501 79.295 59.6617L78.5005 62.6682H82.0274L81.2849 59.6617C81.9012 59.5114 82.4614 59.2273 82.911 58.8372" fill="#742871"/>
<path d="M312.92 81.4683V107.169C312.987 111.609 313.751 118.586 305.495 118.358C298.374 117.723 296.48 111.932 296.429 107.784C296.429 105.818 296.377 104.175 296.354 103.979C296.354 103.979 288.558 103.433 287.897 96.8494C287.578 93.6781 287.548 87.0753 287.6 81.1068C287.632 78.0157 289.024 75.0479 291.501 72.7938C293.977 70.5397 297.356 69.1644 300.965 68.9415L301.708 68.8971C309.779 68.7956 313.053 74.5865 312.92 81.4683Z" fill="#FFBF9D"/>
<path d="M296.376 103.978C299.938 103.745 303.347 102.644 306.2 100.807C306.2 100.807 304.165 105.773 296.421 105.659L296.376 103.978Z" fill="#742871"/>
<path d="M300.795 83.8115C300.951 83.9447 301.842 83.3294 303.126 83.3041C304.411 83.2787 305.354 83.8115 305.517 83.672C305.68 83.5324 305.428 83.3612 305.005 83.1138C304.44 82.7896 303.769 82.6254 303.089 82.6444C302.414 82.6626 301.764 82.8649 301.233 83.2216C300.847 83.5007 300.72 83.7481 300.795 83.8115Z" fill="#263238"/>
<path d="M300.772 86.9236C300.787 87.1569 300.91 87.3757 301.113 87.5324C301.316 87.6891 301.583 87.7712 301.856 87.7608C301.989 87.7617 302.121 87.7397 302.244 87.6962C302.367 87.6527 302.479 87.5885 302.572 87.5075C302.666 87.4264 302.739 87.3302 302.789 87.2244C302.838 87.1187 302.861 87.0056 302.858 86.8919C302.841 86.6602 302.719 86.4434 302.518 86.2872C302.318 86.131 302.053 86.0476 301.782 86.0546C301.649 86.0546 301.517 86.0771 301.394 86.1209C301.271 86.1646 301.159 86.2287 301.065 86.3095C300.971 86.3903 300.897 86.4861 300.847 86.5915C300.796 86.6969 300.771 86.8098 300.772 86.9236Z" fill="#263238"/>
<path d="M297.565 91.5108C296.925 91.3836 296.269 91.3239 295.612 91.3332C295.308 91.3332 295.018 91.2888 294.951 91.1176C294.902 90.852 294.948 90.5798 295.085 90.3374C295.322 89.7031 295.56 89.0245 295.827 88.3141C296.83 85.4345 297.535 83.075 297.402 83.0433C297.268 83.0116 296.34 85.314 295.337 88.1936C295.1 88.904 294.87 89.5826 294.647 90.2296C294.485 90.5529 294.462 90.9142 294.58 91.2508C294.63 91.34 294.704 91.418 294.795 91.4786C294.887 91.5392 294.994 91.5806 295.107 91.5996C295.28 91.617 295.454 91.617 295.627 91.5996C296.275 91.6359 296.925 91.6061 297.565 91.5108Z" fill="#263238"/>
<path d="M301.344 79.1178C301.47 79.3651 302.502 79.1812 303.742 79.2319C304.982 79.2827 305.97 79.5174 306.14 79.2827C306.2 79.1749 306.007 78.9465 305.591 78.7309C305.037 78.4653 304.417 78.3154 303.782 78.2934C303.147 78.2713 302.515 78.3778 301.938 78.604C301.5 78.7879 301.292 79.0036 301.344 79.1178Z" fill="#263238"/>
<path d="M289.085 80.7655C289.226 80.9685 290.228 80.7655 291.454 80.7148C292.679 80.664 293.681 80.8163 293.815 80.6069C293.867 80.5055 293.666 80.3279 293.243 80.1693C292.67 79.974 292.055 79.8874 291.439 79.9156C290.815 79.9303 290.202 80.0601 289.642 80.2962C289.226 80.4801 289.026 80.6704 289.085 80.7655Z" fill="#263238"/>
<path d="M277.413 75.2031C277.456 75.0693 277.53 74.9442 277.631 74.8353C277.731 74.7264 277.857 74.6357 277.999 74.5688C278.615 74.3294 279.294 74.2352 279.967 74.2961C282.023 74.2636 284.028 73.7432 285.758 72.7928C286.566 71.8014 287.468 70.868 288.454 70.002C290.793 67.947 292.708 66.5453 294.698 65.8603C297.267 64.9786 301.567 64.5917 304.247 65.226C306.927 65.8603 309.333 67.687 309.712 70.0274C311.197 68.9428 313.469 68.9555 315.303 69.5834H315.348C317.382 70.2177 318.54 72.0444 319.142 73.8204C319.743 75.5963 320.003 77.4991 321.102 79.0912C321.332 79.421 321.607 79.8206 321.406 80.1694C321.314 80.2957 321.178 80.3949 321.017 80.4538C320.857 80.5127 320.679 80.5286 320.508 80.4992C320.164 80.4363 319.84 80.3109 319.558 80.1314C319.788 80.6007 320.011 81.0637 320.241 81.5268C319.497 81.6373 318.734 81.596 318.013 81.4063C317.639 82.9896 317.155 84.5526 316.565 86.0872C315.805 86.0107 315.038 86.1705 314.405 86.5375C313.662 87.0893 313.372 88.1232 312.177 87.7299C311.576 87.527 311.026 86.4614 310.818 85.9223C309.475 82.4095 309.032 78.6911 309.519 75.0191C308.674 74.2509 307.666 73.6267 306.549 73.1798L306.638 73.2495C304.485 72.6153 302.049 71.981 300.007 72.8436C298.426 73.5159 297.498 74.9177 296.295 76.015C295.206 77.058 293.88 77.9011 292.398 78.4932C290.916 79.0852 289.309 79.4138 287.674 79.459C287.563 81.3111 287.741 83.9307 287.63 85.8018L285.803 82.8334C285.659 82.6277 285.528 82.416 285.409 82.1991V82.1357C285.226 81.7734 285.021 81.4198 284.793 81.0764C284.54 81.25 284.223 81.3406 283.899 81.3318C283.575 81.323 283.265 81.2154 283.025 81.0285C282.786 80.8415 282.633 80.5876 282.593 80.3126C282.554 80.0375 282.631 79.7595 282.811 79.5288C282.994 79.3134 283.214 79.123 283.464 78.9643C283.199 79.1848 282.871 79.3423 282.513 79.4213C282.155 79.5003 281.779 79.498 281.422 79.4146C281.069 79.3226 280.76 79.1335 280.546 78.8766C280.331 78.6197 280.221 78.3094 280.234 77.9939C280.265 77.7817 280.36 77.5801 280.509 77.4088C280.659 77.2375 280.859 77.1025 281.088 77.0171C280.132 77.0826 279.175 76.9015 278.341 76.497C277.747 76.2243 277.212 75.7866 277.413 75.2031Z" fill="#263238"/>
<path d="M307.27 70.7946C307.538 70.9872 307.787 71.1994 308.012 71.4288C308.622 72.0555 309.029 72.8078 309.193 73.6107C309.327 74.1614 309.395 74.7226 309.393 75.2852C309.393 75.9195 309.341 76.5537 309.282 77.2261C309.212 77.9433 309.194 78.6635 309.23 79.3826C309.251 79.7665 309.308 80.1483 309.401 80.5243C309.47 80.9252 309.656 81.3048 309.943 81.6279C310.078 81.7559 310.249 81.8519 310.44 81.9064C310.632 81.9608 310.836 81.972 311.034 81.9387C311.411 81.8798 311.753 81.7145 312.007 81.4694C312.427 80.9787 312.683 80.4 312.749 79.7949H312.593C312.823 80.2929 313.139 80.7589 313.529 81.1776C313.903 81.5625 314.433 81.8119 315.014 81.8753C315.287 81.8985 315.562 81.8568 315.808 81.7548C316.038 81.6522 316.227 81.4931 316.35 81.2981C316.462 81.1186 316.518 80.9178 316.514 80.7146C316.502 80.5253 316.413 80.3457 316.261 80.2071L316.18 80.2706C316.639 80.7186 317.203 81.0794 317.836 81.3298C318.058 81.4144 318.229 81.4715 318.348 81.5011L318.533 81.5391L318.363 81.4757C318.244 81.4313 318.073 81.3742 317.865 81.2854C317.252 81.0201 316.707 80.6536 316.261 80.2071L316.18 80.2706C316.306 80.4086 316.379 80.5768 316.388 80.7519C316.398 80.9269 316.343 81.1001 316.232 81.2474C316.122 81.4193 315.954 81.5587 315.749 81.6469C315.518 81.7418 315.26 81.7771 315.007 81.7484C314.464 81.6953 313.965 81.4686 313.611 81.1142C313.237 80.7027 312.935 80.2477 312.712 79.7632L312.601 79.5539L312.549 79.7822C312.469 80.3613 312.213 80.9125 311.806 81.3806C311.574 81.5959 311.267 81.7425 310.93 81.7992C310.762 81.8283 310.589 81.8196 310.426 81.774C310.263 81.7285 310.117 81.6475 310.002 81.5391C309.735 81.2368 309.563 80.8807 309.505 80.5053C309.413 80.1374 309.353 79.7643 309.326 79.3889C309.291 78.6741 309.308 77.9581 309.378 77.2451C309.423 76.5601 309.475 75.9131 309.467 75.2979C309.463 74.7283 309.388 74.1607 309.245 73.6044C309.064 72.7863 308.631 72.0243 307.99 71.3971C307.792 71.1627 307.548 70.9589 307.27 70.7946Z" fill="#455A64"/>
<path d="M283.428 77.195L283.495 77.2394C283.555 77.2836 283.62 77.3239 283.688 77.36C283.789 77.4307 283.898 77.4923 284.014 77.5439C284.166 77.6203 284.322 77.6901 284.482 77.7532C285.515 78.1532 286.648 78.3276 287.779 78.2606C289.462 78.1636 291.076 77.6526 292.427 76.7891C294.061 75.727 295.421 74.3882 296.422 72.8566C296.986 72.0638 297.439 71.2456 297.907 70.4908C298.386 69.7538 298.986 69.0789 299.689 68.4865C300.307 67.9486 301.072 67.5516 301.916 67.3321C302.298 67.2418 302.694 67.2033 303.089 67.218C303.449 67.2412 303.804 67.3052 304.144 67.4082C304.743 67.5821 305.293 67.8632 305.755 68.2328C306.104 68.5116 306.398 68.8372 306.624 69.1969C306.804 69.5111 306.936 69.8436 307.017 70.1863C307.017 70.1863 307.017 70.1863 307.017 70.1166C307.017 70.0468 307.017 69.9961 306.98 69.9136C306.918 69.6565 306.819 69.4071 306.683 69.1715C306.163 68.2989 305.27 67.631 304.188 67.3067C303.831 67.2005 303.459 67.1344 303.082 67.1101C302.672 67.0954 302.261 67.1339 301.864 67.2243C300.996 67.4433 300.206 67.8471 299.57 68.3977C298.87 68.9967 298.277 69.6806 297.81 70.4274C297.298 71.1885 296.838 72.0004 296.288 72.7932C295.294 74.3048 293.953 75.6294 292.345 76.6876C291.023 77.5435 289.44 78.0565 287.786 78.1655C286.673 78.2405 285.554 78.0838 284.527 77.7088C284.148 77.5573 283.781 77.3857 283.428 77.195Z" fill="#455A64"/>
<path d="M282.729 74.3009C282.729 74.3009 282.818 74.3707 283.004 74.4658C283.265 74.6013 283.538 74.72 283.82 74.821C284.241 74.9735 284.675 75.0945 285.12 75.1826C285.663 75.2918 286.218 75.3556 286.776 75.3728C287.335 75.3846 287.894 75.3528 288.446 75.2777C288.894 75.2133 289.333 75.1157 289.761 74.9859C290.052 74.901 290.335 74.7971 290.607 74.6751C290.71 74.6358 290.807 74.5868 290.897 74.5293C290.897 74.5293 290.459 74.6878 289.723 74.8844C289.295 74.9934 288.858 75.0782 288.417 75.1382C287.876 75.2025 287.329 75.23 286.783 75.2206C286.237 75.1999 285.693 75.1427 285.157 75.0494C284.72 74.9672 284.29 74.8569 283.872 74.7195C283.16 74.4849 282.744 74.2755 282.729 74.3009Z" fill="#455A64"/>
<path d="M289.033 83.8114C289.181 83.9446 290.072 83.3294 291.364 83.304C292.656 83.2787 293.592 83.8114 293.755 83.6719C293.919 83.5324 293.659 83.3611 293.243 83.1137C292.675 82.7898 292.003 82.6257 291.32 82.6444C290.647 82.6621 289.999 82.8645 289.471 83.2216C289.077 83.5006 288.951 83.748 289.033 83.8114Z" fill="#263238"/>
<path d="M290.347 86.9236C290.364 87.1552 290.486 87.372 290.687 87.5282C290.888 87.6845 291.152 87.7679 291.424 87.7608C291.557 87.7617 291.69 87.7397 291.813 87.6963C291.937 87.6528 292.049 87.5888 292.143 87.5078C292.237 87.4269 292.311 87.3307 292.361 87.2249C292.411 87.1191 292.436 87.0059 292.434 86.8919C292.415 86.6597 292.291 86.4429 292.089 86.2868C291.887 86.1307 291.622 86.0475 291.35 86.0546C291.217 86.0546 291.085 86.0772 290.963 86.121C290.84 86.1648 290.729 86.229 290.636 86.3099C290.542 86.3907 290.469 86.4866 290.419 86.592C290.37 86.6974 290.345 86.8101 290.347 86.9236Z" fill="#263238"/>
<path d="M312.72 86.3857C312.846 86.3286 317.917 84.7175 318.118 89.2272C318.318 93.7369 312.987 92.9884 312.972 92.8616C312.957 92.7347 312.72 86.3857 312.72 86.3857Z" fill="#FFBF9D"/>
<path d="M314.538 91.0963C314.538 91.0963 314.635 91.147 314.791 91.2041C315.013 91.2775 315.259 91.2775 315.481 91.2041C315.813 91.0072 316.078 90.7382 316.247 90.4249C316.417 90.1117 316.486 89.7654 316.447 89.4218C316.446 89.0347 316.342 88.6529 316.142 88.3055C316.084 88.1641 315.986 88.0374 315.856 87.9366C315.727 87.8358 315.57 87.7642 315.4 87.7283C315.294 87.7104 315.184 87.7239 315.088 87.7665C314.992 87.8092 314.916 87.8785 314.872 87.963C314.806 88.0898 314.872 88.1786 314.813 88.1913C314.754 88.204 314.702 88.1216 314.731 87.9313C314.759 87.8193 314.826 87.7173 314.924 87.6395C315.068 87.5437 315.248 87.4963 315.429 87.5063C315.648 87.5364 315.853 87.6132 316.027 87.7297C316.201 87.8462 316.338 87.9985 316.424 88.1723C316.673 88.5614 316.803 88.9976 316.803 89.4408C316.803 90.3479 316.313 91.2168 315.556 91.4325C315.416 91.4726 315.267 91.4855 315.121 91.4701C314.974 91.4548 314.833 91.4116 314.709 91.3437C314.538 91.2041 314.486 91.1026 314.538 91.0963Z" fill="#742871"/>
<path d="M301.322 92.4098C301.366 92.4098 301.366 92.6762 301.188 93.0441C300.929 93.539 300.506 93.9581 299.97 94.2492C299.449 94.5489 298.831 94.6999 298.203 94.6805C297.72 94.6424 297.46 94.5029 297.46 94.4712C297.46 94.4395 297.757 94.4712 298.203 94.4712C298.769 94.4354 299.316 94.2784 299.792 94.0145C300.272 93.751 300.676 93.3974 300.973 92.9806C301.173 92.6318 301.262 92.3971 301.322 92.4098Z" fill="#263238"/>
<path d="M327.904 270.749L329.478 285.971L335.062 297.743C335.153 297.948 335.193 298.168 335.177 298.387C335.162 298.606 335.093 298.82 334.973 299.014C334.854 299.209 334.687 299.379 334.485 299.514C334.283 299.649 334.049 299.746 333.799 299.798C333.504 299.874 333.192 299.89 332.889 299.846C332.585 299.802 332.297 299.699 332.047 299.545C328.862 297.566 317.375 290.284 317.249 289.339C317.085 288.109 314.152 273.121 314.152 273.121L327.904 270.749Z" fill="#455A64"/>
<path d="M333.844 299.817L316.974 287.62L317.144 288.749C317.256 289.383 317.271 289.7 317.776 290.087C322.259 293.556 326.969 296.804 331.883 299.817C332.185 299.938 332.515 300 332.849 300C333.182 300 333.512 299.938 333.814 299.817H333.844Z" fill="#263238"/>
<path d="M320.256 282.865C320.503 282.974 320.691 283.16 320.783 283.384C320.874 283.608 320.861 283.854 320.746 284.07C320.597 284.279 320.365 284.435 320.091 284.509C319.818 284.582 319.523 284.568 319.261 284.47C319.003 284.353 318.808 284.157 318.714 283.921C318.62 283.685 318.635 283.428 318.756 283.201C318.936 282.995 319.198 282.854 319.493 282.803C319.788 282.753 320.094 282.797 320.352 282.928" fill="white"/>
<path d="M328.602 293.538C328.713 293.577 329.032 292.739 330.087 292.219C330.756 291.94 331.477 291.762 332.218 291.693C332.218 291.655 331.973 291.56 331.527 291.547C330.939 291.543 330.361 291.676 329.856 291.934C329.364 292.177 328.967 292.539 328.713 292.974C328.55 293.304 328.55 293.532 328.602 293.538Z" fill="#263238"/>
<path d="M330.221 295.459C330.317 295.522 330.859 294.97 331.81 294.666C332.41 294.518 333.02 294.401 333.636 294.317C333.324 294.195 332.983 294.135 332.64 294.142C332.297 294.148 331.959 294.221 331.654 294.355C330.57 294.71 330.132 295.427 330.221 295.459Z" fill="#263238"/>
<path d="M325.743 291.146C326.487 290.642 327.274 290.186 328.097 289.783C328.988 289.472 329.903 289.215 330.837 289.015C329.825 288.885 328.792 289.051 327.904 289.485C326.374 290.113 325.676 291.108 325.743 291.146Z" fill="#263238"/>
<path d="M324.786 286.542C324.845 286.631 325.847 286.187 327.199 286.035C328.55 285.883 329.671 286.035 329.701 285.952C328.904 285.626 328.003 285.537 327.139 285.699C326.265 285.743 325.435 286.041 324.786 286.542Z" fill="#263238"/>
<path d="M324.191 282.078C324.972 281.743 325.824 281.545 326.696 281.495C327.568 281.444 328.443 281.544 329.27 281.786C329.27 281.748 329.069 281.577 328.602 281.412C327.986 281.206 327.324 281.119 326.664 281.158C326.005 281.19 325.364 281.353 324.793 281.634C324.347 281.85 324.147 282.046 324.191 282.078Z" fill="#263238"/>
<path d="M326.53 280.644C326.53 280.644 326.575 280.435 326.486 280.067C326.355 279.543 326.103 279.047 325.743 278.608C325.499 278.261 325.128 277.992 324.689 277.84C324.536 277.801 324.374 277.801 324.221 277.839C324.068 277.878 323.931 277.953 323.827 278.056C323.739 278.158 323.675 278.274 323.639 278.397C323.604 278.52 323.597 278.648 323.62 278.773C323.748 279.295 324.085 279.763 324.572 280.098C325.06 280.432 325.668 280.611 326.293 280.606C326.917 280.614 327.53 280.467 328.058 280.182C328.585 279.897 329.004 279.487 329.263 279.001C329.321 278.883 329.348 278.754 329.34 278.626C329.333 278.497 329.291 278.372 329.218 278.259C329.123 278.149 328.992 278.066 328.841 278.019C328.69 277.973 328.527 277.966 328.372 277.999C327.922 278.123 327.516 278.341 327.191 278.633C326.729 278.996 326.344 279.426 326.055 279.902C325.935 280.07 325.859 280.258 325.832 280.454C326.256 279.835 326.784 279.273 327.399 278.786C327.691 278.54 328.047 278.357 328.438 278.253C328.523 278.233 328.612 278.235 328.695 278.26C328.777 278.285 328.848 278.331 328.899 278.392C328.94 278.469 328.961 278.552 328.961 278.636C328.961 278.721 328.94 278.804 328.899 278.881C328.662 279.292 328.296 279.639 327.84 279.881C327.385 280.123 326.859 280.251 326.322 280.251C325.793 280.252 325.278 280.102 324.86 279.824C324.443 279.545 324.147 279.155 324.02 278.716C323.984 278.542 324.027 278.363 324.139 278.215C324.195 278.156 324.27 278.113 324.355 278.091C324.44 278.07 324.53 278.071 324.614 278.094C324.987 278.222 325.305 278.443 325.528 278.728C325.998 279.309 326.337 279.958 326.53 280.644Z" fill="#263238"/>
<path d="M282.952 271.535L283.65 284.443C283.65 284.443 267.545 289.352 267.389 291.75L298.612 291.553L298.545 271.402L282.952 271.535Z" fill="#455A64"/>
<path d="M293.295 283.295C293.589 283.357 293.844 283.512 294.01 283.729C294.175 283.945 294.238 284.207 294.186 284.462C294.096 284.712 293.9 284.924 293.636 285.057C293.372 285.19 293.06 285.233 292.761 285.179C292.451 285.114 292.181 284.95 292.008 284.722C291.834 284.493 291.769 284.217 291.825 283.948C291.948 283.691 292.18 283.483 292.474 283.366C292.769 283.248 293.104 283.23 293.414 283.314" fill="#E0E0E0"/>
<path d="M298.611 291.554L298.507 289.524L268.606 290.469C268.606 290.469 267.225 290.964 267.388 291.738L298.611 291.554Z" fill="#263238"/>
<path d="M283.145 284.33C283.145 284.45 283.888 284.501 284.63 284.888C285.373 285.275 285.789 285.789 285.93 285.738C286.071 285.687 285.833 284.983 284.912 284.527C283.992 284.07 283.108 284.209 283.145 284.33Z" fill="#263238"/>
<path d="M279.878 285.426C279.878 285.546 280.509 285.749 281.029 286.263C281.549 286.777 281.712 287.329 281.86 287.322C282.009 287.316 282.105 286.618 281.437 285.99C280.769 285.362 279.885 285.312 279.878 285.426Z" fill="#263238"/>
<path d="M278.051 288.586C278.192 288.586 278.393 288.002 277.999 287.317C277.606 286.632 276.885 286.391 276.819 286.493C276.752 286.594 277.205 286.949 277.517 287.501C277.828 288.053 277.903 288.579 278.051 288.586Z" fill="#263238"/>
<path d="M283.39 281.36C283.456 281.474 284.132 281.303 285.016 281.36C285.899 281.417 286.553 281.614 286.627 281.512C286.701 281.411 286.063 280.973 285.045 280.935C284.028 280.897 283.353 281.265 283.39 281.36Z" fill="#263238"/>
<path d="M277.517 178.838C277.517 179.58 281.14 282.763 281.14 282.763H300.445L304.358 194.498C304.358 194.498 308.925 240.647 308.925 241.643C308.925 242.639 312.949 283.258 312.949 283.258L330.844 282.084L329.663 189.189L327.48 175.565L277.517 178.838Z" fill="#263238"/>
<path d="M306.371 191.23C306.127 191.349 305.864 191.438 305.592 191.497C305.079 191.649 304.329 191.858 303.409 192.131L303.238 192.175V192.029C303.134 190.792 303.008 189.131 302.896 187.31C302.77 185.338 302.681 183.555 302.636 182.236C302.636 181.602 302.599 181.063 302.599 180.701C302.577 180.512 302.592 180.321 302.644 180.137C302.706 180.318 302.741 180.506 302.748 180.695C302.8 181.056 302.852 181.583 302.904 182.223C303.022 183.492 303.156 185.3 303.275 187.298C303.394 189.118 303.475 190.78 303.52 192.023L303.334 191.921C304.27 191.699 305.027 191.522 305.562 191.408C305.824 191.326 306.095 191.267 306.371 191.23Z" fill="#455A64"/>
<path d="M304.886 180.505C304.886 180.505 304.945 180.422 305.146 180.365C305.428 180.302 305.727 180.324 305.992 180.429C306.192 180.491 306.362 180.607 306.479 180.759C306.595 180.911 306.651 181.091 306.638 181.272C306.613 181.501 306.501 181.717 306.318 181.887C306.136 182.057 305.894 182.17 305.628 182.211C305.358 182.246 305.082 182.216 304.831 182.125C304.579 182.035 304.362 181.886 304.203 181.697C304.091 181.551 304.032 181.38 304.032 181.206C304.032 181.031 304.091 180.86 304.203 180.714C304.356 180.517 304.58 180.368 304.841 180.289C305.034 180.232 305.146 180.245 305.153 180.257C305.16 180.27 304.715 180.378 304.448 180.809C304.369 180.924 304.332 181.056 304.34 181.189C304.347 181.322 304.4 181.45 304.492 181.558C304.612 181.693 304.773 181.799 304.957 181.864C305.141 181.928 305.342 181.95 305.539 181.926C305.723 181.895 305.892 181.819 306.024 181.706C306.157 181.593 306.246 181.448 306.282 181.291C306.296 181.161 306.263 181.03 306.188 180.917C306.112 180.803 305.997 180.713 305.858 180.657C305.561 180.52 305.221 180.466 304.886 180.505Z" fill="#455A64"/>
<path d="M313.751 181.578C313.647 181.578 313.499 181.134 313.425 180.576C313.35 180.017 313.373 179.554 313.477 179.548C313.581 179.542 313.729 179.986 313.803 180.544C313.878 181.102 313.855 181.578 313.751 181.578Z" fill="#455A64"/>
<path d="M315.088 181.457C314.984 181.457 314.895 180.981 314.895 180.391C314.895 179.801 314.969 179.326 315.081 179.326C315.192 179.326 315.274 179.801 315.274 180.391C315.274 180.981 315.199 181.457 315.088 181.457Z" fill="#455A64"/>
<path d="M291.825 182.165C291.721 182.165 291.558 181.639 291.461 180.973C291.365 180.307 291.372 179.749 291.461 179.742C291.55 179.736 291.729 180.269 291.825 180.941C291.922 181.614 291.929 182.159 291.825 182.165Z" fill="#455A64"/>
<path d="M293.451 182.268C293.108 181.913 292.938 181.459 292.976 181C292.896 180.556 293.015 180.103 293.31 179.731C293.422 179.731 293.31 180.315 293.362 181C293.414 181.685 293.555 182.243 293.451 182.268Z" fill="#455A64"/>
<path d="M287.348 180.892C287.356 181.044 287.333 181.196 287.281 181.342C287.188 181.754 287.059 182.159 286.895 182.554C286.344 183.885 285.536 185.129 284.504 186.232C283.432 187.37 282.159 188.359 280.732 189.163C280.293 189.41 279.837 189.635 279.366 189.835C279.194 189.918 279.012 189.983 278.824 190.032C278.824 189.994 279.522 189.664 280.583 189.011C281.949 188.182 283.174 187.196 284.222 186.08C285.234 184.992 286.056 183.785 286.665 182.497C287.118 181.513 287.288 180.879 287.348 180.892Z" fill="#455A64"/>
<path d="M329.077 187.842C328.886 187.89 328.689 187.916 328.49 187.918C327.952 187.954 327.41 187.954 326.872 187.918C325.109 187.773 323.413 187.269 321.927 186.447C320.519 185.659 319.383 184.564 318.637 183.275C318.421 182.901 318.251 182.507 318.132 182.102C318.072 181.96 318.044 181.809 318.051 181.658C318.11 181.658 318.273 182.292 318.86 183.199C319.643 184.426 320.768 185.469 322.134 186.237C323.574 187.031 325.202 187.542 326.901 187.734C328.23 187.861 329.07 187.791 329.077 187.842Z" fill="#455A64"/>
<path d="M297.632 240.096C297.632 240.166 294.409 239.57 290.489 238.777C286.568 237.984 283.405 237.273 283.435 237.204C283.464 237.134 286.657 237.724 290.578 238.523C294.498 239.322 297.654 240.026 297.632 240.096Z" fill="#455A64"/>
<path d="M328.728 236.339C328.773 236.402 325.989 237.639 322.514 239.11C319.039 240.582 316.173 241.717 316.128 241.647C316.083 241.578 318.868 240.341 322.343 238.876C325.818 237.411 328.684 236.275 328.728 236.339Z" fill="#455A64"/>
<path d="M268.146 143.894L270.782 146.717V141.865H279.098C279.098 141.865 280.019 152.971 279.841 155.337C279.643 156.57 279.303 157.783 278.823 158.958C278.575 159.642 278.124 160.26 277.515 160.752C276.906 161.244 276.159 161.594 275.345 161.767C274.532 161.94 273.68 161.932 272.871 161.742C272.063 161.552 271.325 161.188 270.73 160.684C269.799 159.91 268.931 159.084 268.131 158.21C264.419 154.151 258.3 144.256 258.3 144.256L264.716 140.983L268.146 143.894Z" fill="#FFBF9D"/>
<path d="M267.619 143.374C267.933 143.825 268.296 144.25 268.703 144.643C269.446 145.385 270.381 146.406 271.488 147.51C272.594 148.613 273.648 149.59 274.458 150.256C274.868 150.64 275.343 150.97 275.868 151.233C275.492 150.83 275.085 150.449 274.651 150.091C273.908 149.394 272.884 148.398 271.777 147.294C269.587 145.049 267.716 143.298 267.619 143.374Z" fill="#742871"/>
<path d="M287.11 109.778L295.879 106.835L312.029 106.055L319.618 108.522L309.215 113.457L300.245 113.178L287.11 109.778Z" fill="#FFBF9D"/>
<path d="M276.767 180.246C277.561 180.36 330.473 182.282 330.473 182.282L328.646 141.619L328.49 133.639L325.52 109.467C325.52 109.467 317.605 107.14 313.573 106.03C313.573 106.03 309.326 109.835 301.248 109.708C293.355 109.613 291.706 108.091 291.706 108.091L280.673 111.706C280.673 111.706 272.824 114.11 271.473 117.079C270.121 120.047 267.76 136.456 267.76 136.456H279.202L278.898 165.613L276.767 180.246Z" fill="#455A64"/>
<g opacity="0.2">
<path d="M310.039 126.003L311.68 136.252L319.617 139.278L325.483 135.009V125.495L310.039 126.003Z" fill="black"/>
</g>
<path d="M325.275 128.933C325.275 129.016 321.978 129.085 317.909 129.085C313.84 129.085 310.536 129.016 310.536 128.933C312.989 128.774 315.45 128.721 317.909 128.775C320.366 128.721 322.825 128.774 325.275 128.933Z" fill="#263238"/>
<path d="M273.203 121.32C273.24 121.409 273.27 121.5 273.292 121.593C273.344 121.796 273.411 122.05 273.5 122.373C273.785 123.352 274.137 124.316 274.554 125.259C275.081 126.471 275.824 127.898 276.737 129.496C277.65 131.094 278.378 133.004 279.187 135.033C279.187 137.469 279.187 140.107 279.128 142.917C279.054 149.133 278.979 154.759 278.935 158.863C278.89 160.88 278.861 162.523 278.831 163.696C278.831 164.242 278.816 164.679 278.786 165.009C278.79 165.162 278.777 165.315 278.749 165.466C278.736 165.312 278.736 165.157 278.749 165.003C278.749 164.681 278.749 164.244 278.749 163.69C278.749 162.523 278.749 160.874 278.749 158.857C278.749 154.753 278.809 149.127 278.846 142.917C278.846 140.133 278.905 137.469 278.927 135.033V135.078C278.133 133.048 277.368 131.164 276.537 129.547C275.742 128.154 275.034 126.727 274.413 125.272C274.012 124.319 273.687 123.344 273.44 122.354C273.366 122.005 273.307 121.72 273.277 121.555C273.244 121.479 273.219 121.4 273.203 121.32Z" fill="#263238"/>
<path d="M329.299 116.577C329.325 116.866 329.325 117.156 329.299 117.445C329.299 118.08 329.24 118.854 329.195 119.805C329.099 121.847 328.973 124.575 328.832 127.588C328.691 130.6 328.527 133.334 328.423 135.376C328.356 136.328 328.304 137.121 328.26 137.736C328.258 138.026 328.223 138.315 328.156 138.598C328.129 138.309 328.129 138.019 328.156 137.73C328.156 137.095 328.156 136.321 328.208 135.37C328.267 133.372 328.371 130.619 328.52 127.581C328.668 124.543 328.832 121.784 328.98 119.799C329.054 118.803 329.129 117.997 329.195 117.439C329.2 117.15 329.235 116.861 329.299 116.577Z" fill="#263238"/>
<g opacity="0.3">
<path d="M273.233 122.811C273.032 127.274 274.899 131.625 278.431 134.919C277.354 130.726 274.666 126.826 273.233 122.811Z" fill="black"/>
</g>
<g opacity="0.3">
<path d="M296.473 163.043C298.961 162.76 301.23 161.681 302.822 160.024C304.497 158.426 305.931 156.655 307.091 154.753C308.588 152.165 309.438 149.34 309.586 146.457C306.504 153.516 301.99 159.098 296.473 163.043Z" fill="black"/>
</g>
<path d="M310.566 143.381C310.561 143.468 310.546 143.556 310.522 143.641C310.47 143.844 310.403 144.085 310.328 144.377C310.254 144.668 310.135 145.081 309.972 145.525C309.809 145.969 309.653 146.476 309.415 147.028C308.895 148.326 308.285 149.597 307.589 150.833C305.885 153.861 303.699 156.672 301.092 159.187C300.028 160.213 298.887 161.179 297.676 162.079C297.179 162.479 296.681 162.796 296.258 163.088C295.835 163.379 295.463 163.614 295.144 163.798L294.402 164.223C294.231 164.312 294.142 164.362 294.134 164.35C294.2 164.283 294.274 164.223 294.357 164.172L295.048 163.703C295.352 163.513 295.716 163.265 296.124 162.961C296.533 162.656 297.015 162.326 297.505 161.927C298.678 161.007 299.791 160.033 300.839 159.009C302.109 157.746 303.292 156.42 304.381 155.039C305.446 153.647 306.418 152.205 307.292 150.719C307.994 149.499 308.621 148.247 309.17 146.971C309.423 146.432 309.601 145.924 309.772 145.487C309.942 145.049 310.083 144.668 310.187 144.358C310.291 144.047 310.366 143.837 310.44 143.641C310.514 143.444 310.551 143.374 310.566 143.381Z" fill="#263238"/>
<path d="M309.037 130.656C309.025 130.797 309.003 130.936 308.97 131.075C308.91 131.373 308.829 131.766 308.732 132.254C308.636 132.743 308.487 133.39 308.272 134.106C308.057 134.823 307.863 135.654 307.529 136.542C307.381 136.986 307.217 137.455 307.047 137.944C306.876 138.432 306.653 138.927 306.445 139.441C306.052 140.487 305.517 141.565 304.96 142.707C302.521 147.635 299.244 152.228 295.233 156.338C294.29 157.264 293.407 158.164 292.501 158.938C292.055 159.331 291.64 159.725 291.209 160.074C290.778 160.422 290.37 160.765 289.969 161.082C289.226 161.716 288.424 162.268 287.741 162.75C287.058 163.232 286.509 163.632 286.019 163.943L284.898 164.666C284.775 164.757 284.641 164.836 284.497 164.9C284.605 164.798 284.724 164.705 284.853 164.621L285.93 163.854C286.405 163.53 286.984 163.131 287.615 162.63C288.246 162.129 289.011 161.596 289.776 160.93L290.994 159.915C291.417 159.56 291.825 159.167 292.263 158.773C293.162 157.993 294.03 157.092 294.966 156.16C298.942 152.057 302.212 147.491 304.678 142.599C305.228 141.464 305.762 140.398 306.163 139.365C306.378 138.844 306.601 138.356 306.779 137.874C306.958 137.392 307.121 136.929 307.284 136.485C307.626 135.603 307.841 134.785 308.071 134.068C308.302 133.352 308.465 132.736 308.584 132.229C308.703 131.722 308.814 131.36 308.888 131.062C308.92 130.922 308.97 130.786 309.037 130.656Z" fill="#263238"/>
<path d="M267.226 118.017L287.6 144.479C287.698 144.604 287.751 144.75 287.753 144.9C287.756 145.05 287.707 145.198 287.614 145.325C287.521 145.452 287.387 145.554 287.227 145.618C287.068 145.681 286.891 145.704 286.717 145.684L263.253 143.147C263.13 143.132 263.011 143.097 262.904 143.042C262.797 142.988 262.704 142.915 262.63 142.83L240.221 116.685C240.11 116.564 240.043 116.418 240.028 116.265C240.013 116.112 240.051 115.958 240.137 115.823C240.223 115.688 240.353 115.578 240.512 115.506C240.671 115.433 240.851 115.402 241.03 115.417L265.169 116.939C265.586 116.971 265.989 117.085 266.345 117.272C266.702 117.459 267.003 117.714 267.226 118.017Z" fill="#E0E0E0"/>
<path d="M267.226 118.017C267.175 117.931 267.113 117.85 267.04 117.776C266.833 117.557 266.582 117.373 266.297 117.231C265.814 117.015 265.276 116.904 264.731 116.907L262.563 116.755L248.648 115.823L244.037 115.518L241.587 115.36C241.371 115.36 241.186 115.36 240.941 115.36C240.69 115.367 240.45 115.45 240.265 115.594C240.076 115.741 239.955 115.94 239.922 116.156C239.89 116.372 239.948 116.591 240.087 116.774L246.606 124.417C251.21 129.789 256.259 135.694 261.568 141.898C261.909 142.284 262.214 142.659 262.585 143.065C262.699 143.172 262.841 143.255 263.001 143.306C263.147 143.349 263.299 143.375 263.454 143.382L264.285 143.471L267.567 143.826L273.982 144.511L286.115 145.779C286.368 145.779 286.575 145.836 286.858 145.849C287.002 145.85 287.146 145.826 287.279 145.78C287.413 145.733 287.535 145.664 287.637 145.576C287.832 145.406 287.945 145.18 287.957 144.942C287.945 144.71 287.846 144.488 287.674 144.308L286.1 142.253L283.13 138.447L277.814 131.578C274.562 127.398 271.933 124.005 270.099 121.652L267.983 118.956C267.745 118.664 267.56 118.429 267.419 118.265C267.359 118.182 267.292 118.104 267.218 118.03C267.269 118.117 267.326 118.202 267.389 118.284L267.916 118.994C268.391 119.628 269.082 120.548 269.965 121.721L277.584 131.711L282.863 138.599L285.833 142.437L287.377 144.447C287.511 144.581 287.589 144.748 287.6 144.923C287.593 145.089 287.513 145.248 287.377 145.367C287.239 145.484 287.052 145.55 286.858 145.551C286.657 145.551 286.382 145.5 286.152 145.481L273.997 144.156L267.582 143.464L264.3 143.109L263.476 143.02C263.353 143.011 263.231 142.992 263.112 142.963C263.008 142.929 262.914 142.874 262.837 142.805C262.511 142.424 262.184 142.05 261.857 141.663C256.541 135.472 251.462 129.574 246.873 124.201C244.564 121.525 242.381 118.975 240.332 116.59C240.255 116.496 240.21 116.386 240.201 116.271C240.192 116.157 240.219 116.043 240.28 115.94C240.341 115.838 240.433 115.752 240.547 115.691C240.661 115.63 240.791 115.597 240.926 115.594C241.096 115.594 241.334 115.594 241.535 115.626L243.985 115.778L248.603 116.057L262.563 116.882L264.746 117.009C265.278 116.993 265.806 117.092 266.283 117.294C266.654 117.474 266.976 117.721 267.226 118.017Z" fill="#263238"/>
<path d="M240.221 116.704C240.381 116.739 240.545 116.76 240.711 116.767L242.136 116.894L247.438 117.294L265.466 118.562L265.325 118.493C266.454 119.926 267.619 121.41 268.785 122.932C273.545 129.18 277.695 134.927 280.836 139.011C282.395 141.06 283.695 142.696 284.601 143.825L285.655 145.094C285.769 145.249 285.901 145.393 286.049 145.525C285.951 145.363 285.842 145.207 285.722 145.056L284.727 143.73L281.066 138.865C277.992 134.749 273.871 128.99 269.112 122.736C267.946 121.195 266.773 119.71 265.637 118.296L265.585 118.233H265.533L247.497 117.091L242.188 116.786L240.755 116.717C240.578 116.701 240.399 116.697 240.221 116.704Z" fill="#263238"/>
<path d="M254.188 120.742C254.201 120.69 254.228 120.64 254.265 120.596C254.302 120.552 254.349 120.515 254.403 120.488C254.457 120.46 254.517 120.442 254.58 120.434C254.642 120.427 254.706 120.43 254.767 120.444C255.006 120.491 255.225 120.594 255.398 120.742C255.508 120.828 255.58 120.945 255.6 121.071C255.62 121.197 255.588 121.326 255.509 121.434C255.279 121.681 254.767 121.586 254.514 121.383C254.4 121.309 254.311 121.211 254.253 121.099C254.196 120.987 254.174 120.864 254.188 120.742Z" fill="white"/>
<path d="M265.147 135.572C265.147 135.572 266.067 133.669 263.721 133.441C260.884 133.315 258.041 133.315 255.204 133.441C255.204 133.441 251.826 133.745 252.539 135.813C252.539 135.813 250.549 137.335 251.618 138.984C252.687 140.633 253.103 140.139 253.103 140.139C253.103 140.139 252.821 142.149 254.588 142.447C254.588 142.447 256.518 144.395 258.301 144.274C260.083 144.153 267.619 141.052 268.117 140.468C268.614 139.885 269.327 139.517 268.904 138.838C268.904 138.838 269.824 137.056 267.834 136.783C267.849 136.752 267.708 135.274 265.147 135.572Z" fill="#FFBF9D"/>
<path d="M254.44 136.251C254.962 136.344 255.496 136.378 256.029 136.353C257.009 136.353 258.36 136.353 259.853 136.353C261.139 136.385 262.426 136.321 263.699 136.162C264.709 135.959 265.11 135.452 265.065 135.439C264.629 135.675 264.146 135.841 263.64 135.928C262.712 136.061 261.338 135.978 259.845 136.023C258.353 136.067 257.002 136.08 256.021 136.118C255.49 136.108 254.959 136.153 254.44 136.251Z" fill="#742871"/>
<path d="M256.118 139.295C256.275 139.374 256.449 139.423 256.63 139.441C257.118 139.526 257.618 139.554 258.115 139.524C258.84 139.476 259.557 139.364 260.253 139.187C261.041 139.003 261.88 138.743 262.763 138.515C263.584 138.283 264.434 138.132 265.295 138.065C266.04 138.124 266.788 137.996 267.448 137.697C267.706 137.548 267.889 137.321 267.961 137.063C268.008 136.869 267.977 136.668 267.872 136.492C267.686 136.206 267.434 136.187 267.441 136.2C267.448 136.213 267.619 136.289 267.731 136.549C267.802 136.725 267.797 136.917 267.716 137.091C267.636 137.264 267.486 137.407 267.292 137.494C266.658 137.732 265.961 137.822 265.273 137.754C264.381 137.801 263.5 137.946 262.652 138.185L260.157 138.889C259.483 139.068 258.792 139.2 258.093 139.283C257.435 139.321 256.776 139.325 256.118 139.295Z" fill="#742871"/>
<path d="M258.642 141.866C259.183 141.839 259.717 141.752 260.231 141.606C261.197 141.397 262.518 141.073 263.944 140.673C265.37 140.274 266.676 139.862 267.597 139.538C268.12 139.398 268.619 139.199 269.082 138.948C269.038 138.859 266.721 139.582 263.885 140.35C261.048 141.117 258.613 141.777 258.642 141.866Z" fill="#742871"/>
<path d="M258.041 144.249C258.484 144.282 258.931 144.239 259.355 144.122C260.391 143.907 261.398 143.603 262.362 143.215C263.491 142.777 264.478 142.327 265.191 142.003C265.598 141.856 265.978 141.66 266.32 141.42C264.897 141.812 263.518 142.311 262.199 142.91C259.979 143.824 258.026 144.154 258.041 144.249Z" fill="#742871"/>
<path d="M333.05 126.115C333.05 126.115 328.253 142.53 322.261 148.594C316.454 154.467 307.359 151.765 304.21 144.154C301.062 136.543 295.449 119.221 295.449 119.221L302.339 114.717L314.219 134.437L319.588 120.997L333.05 126.115Z" fill="#FFBF9D"/>
<path d="M295.768 119.692L290.711 113.432C289.975 113.296 289.255 113.105 288.558 112.861C287.986 112.576 287.422 110.089 287.437 109.607C287.452 109.125 286.457 107.99 286.858 107.667C287.258 107.343 288.61 107.324 288.536 106.861C288.536 106.76 287.533 105.719 288.32 104.958C288.754 104.713 289.238 104.539 289.746 104.444L289.664 102.053C289.664 102.053 291.149 99.237 292.716 100.258C292.716 100.258 298.53 104.064 299.116 104.698C299.703 105.332 301.945 113.254 302.339 114.745" fill="#FFBF9D"/>
<path d="M302.339 114.729C302.331 114.588 302.306 114.448 302.265 114.311C302.183 114.006 302.087 113.613 301.96 113.118C301.693 112.078 301.285 110.581 300.735 108.736C300.453 107.81 300.149 106.833 299.755 105.723C299.659 105.456 299.555 105.184 299.421 104.905C299.268 104.62 299.033 104.374 298.738 104.188C298.203 103.788 297.646 103.395 297.075 102.995C295.924 102.203 294.699 101.378 293.429 100.534C293.108 100.291 292.748 100.088 292.36 99.9319C292.133 99.8854 291.896 99.8853 291.669 99.9316C291.442 99.9779 291.231 100.069 291.053 100.198C290.39 100.691 289.86 101.302 289.501 101.987V102.025C289.501 102.26 289.501 102.507 289.501 102.754C289.501 103.313 289.501 103.871 289.56 104.416L289.694 104.264C289.343 104.336 289.001 104.434 288.669 104.556C288.484 104.621 288.316 104.716 288.172 104.835C288.044 104.963 287.948 105.112 287.89 105.272C287.795 105.589 287.826 105.924 287.979 106.224C288.04 106.367 288.117 106.505 288.209 106.636L288.335 106.82V106.864C288.339 106.879 288.339 106.894 288.335 106.909C288.335 106.96 288.187 107.036 288.046 107.08C287.905 107.125 287.749 107.169 287.593 107.213C287.431 107.25 287.273 107.295 287.117 107.347C286.923 107.394 286.753 107.497 286.635 107.638C286.557 107.801 286.557 107.983 286.635 108.146C286.679 108.283 286.737 108.416 286.806 108.545C286.932 108.799 287.073 109.04 287.177 109.275C287.23 109.381 287.26 109.495 287.266 109.611C287.269 109.747 287.284 109.883 287.311 110.017C287.355 110.277 287.407 110.531 287.474 110.784C287.589 111.273 287.746 111.754 287.942 112.224C288.036 112.47 288.187 112.696 288.387 112.89C288.63 113.024 288.895 113.125 289.174 113.188C289.687 113.321 290.191 113.429 290.659 113.524L290.578 113.48L294.29 118.021L295.33 119.252C295.445 119.4 295.574 119.54 295.716 119.67C295.621 119.513 295.514 119.36 295.397 119.214L294.416 117.945C293.533 116.823 292.293 115.256 290.771 113.34V113.302H290.778C290.303 113.201 289.805 113.087 289.293 112.953C289.055 112.896 288.828 112.81 288.617 112.7C288.458 112.533 288.337 112.341 288.261 112.135C288.071 111.676 287.923 111.205 287.815 110.727C287.756 110.48 287.704 110.232 287.659 109.979C287.659 109.858 287.659 109.725 287.659 109.611C287.653 109.463 287.618 109.317 287.556 109.18C287.444 108.92 287.303 108.678 287.184 108.431C287.119 108.315 287.067 108.194 287.028 108.07C286.988 107.975 286.988 107.872 287.028 107.778C287.114 107.702 287.221 107.647 287.34 107.619C287.488 107.569 287.639 107.527 287.793 107.492C287.949 107.448 288.112 107.41 288.276 107.353C288.48 107.299 288.651 107.178 288.751 107.017C288.778 106.965 288.791 106.908 288.788 106.852C288.786 106.812 288.773 106.773 288.751 106.738V106.687L288.625 106.503C288.545 106.383 288.476 106.258 288.417 106.129C288.297 105.891 288.271 105.626 288.343 105.374C288.382 105.252 288.453 105.139 288.551 105.044C288.662 104.96 288.791 104.894 288.929 104.847C289.242 104.733 289.565 104.639 289.894 104.568L290.028 104.537V104.416C290.028 103.871 289.991 103.319 289.969 102.761C289.969 102.513 289.969 102.26 289.969 102.031V102.101C290.299 101.461 290.788 100.89 291.402 100.427C291.533 100.323 291.693 100.248 291.867 100.209C292.04 100.171 292.222 100.169 292.397 100.205C292.743 100.35 293.065 100.533 293.355 100.75C294.632 101.594 295.857 102.412 297.008 103.198C297.587 103.592 298.144 103.979 298.671 104.365C298.938 104.527 299.15 104.746 299.287 105C299.413 105.26 299.517 105.533 299.621 105.793C300.015 106.858 300.364 107.867 300.631 108.78C301.188 110.6 301.648 112.078 301.968 113.137C302.124 113.626 302.242 114.019 302.332 114.317C302.317 114.454 302.32 114.593 302.339 114.729Z" fill="#742871"/>
<path d="M289.745 104.443C289.745 104.494 290.332 104.443 291.23 104.532C291.768 104.603 292.299 104.706 292.819 104.843C293.501 104.925 294.194 104.925 294.876 104.843C295.461 104.772 296.058 104.817 296.62 104.973C297.182 105.129 297.695 105.392 298.121 105.743C298.45 106.055 298.714 106.414 298.9 106.802C298.904 106.577 298.853 106.352 298.751 106.144C298.648 105.936 298.497 105.747 298.306 105.591C297.92 105.228 297.443 104.944 296.91 104.76C296.256 104.543 295.55 104.467 294.854 104.538C294.2 104.608 293.539 104.608 292.886 104.538C292.35 104.411 291.8 104.328 291.245 104.291C290.738 104.256 290.228 104.308 289.745 104.443Z" fill="#742871"/>
<path d="M291.803 104.308C291.884 104.346 292.122 104.055 292.092 103.642C292.063 103.23 291.788 102.97 291.714 103.008C291.639 103.046 291.714 103.325 291.714 103.642C291.714 103.959 291.706 104.276 291.803 104.308Z" fill="#742871"/>
<path d="M288.357 106.947C289.826 107.067 291.309 106.968 292.738 106.655C293.257 106.51 293.804 106.45 294.35 106.478C294.772 106.557 295.145 106.767 295.396 107.068C295.615 107.366 295.809 107.678 295.976 108C296.001 107.616 295.873 107.235 295.612 106.922C295.345 106.553 294.918 106.288 294.424 106.186C293.834 106.127 293.237 106.177 292.671 106.332C290.318 106.789 288.357 106.858 288.357 106.947Z" fill="#742871"/>
<path d="M287.585 109.205C287.94 109.275 288.308 109.275 288.662 109.205C289.323 109.141 290.214 108.945 291.179 108.78C291.625 108.695 292.081 108.657 292.538 108.666C292.893 108.671 293.236 108.778 293.511 108.97C293.757 109.164 293.926 109.419 293.993 109.7C293.993 109.7 294.06 109.617 294.053 109.446C294.022 109.205 293.894 108.98 293.689 108.812C293.388 108.558 292.989 108.407 292.568 108.387C292.07 108.357 291.57 108.389 291.083 108.482C290.088 108.647 289.226 108.875 288.588 108.989C288.246 109.032 287.91 109.104 287.585 109.205Z" fill="#742871"/>
<path d="M289.293 110.996C289.233 111.034 289.731 111.478 290.637 111.478L290.459 111.345C290.459 111.478 290.459 111.611 290.511 111.744C290.535 112.288 290.676 112.824 290.926 113.324C291.025 112.788 291.005 112.242 290.867 111.713L290.8 111.313V111.174H290.644C290.187 111.157 289.734 111.098 289.293 110.996Z" fill="#742871"/>
<path d="M325.461 109.492C325.461 109.492 335.285 111.521 335.263 122.653C335.24 133.784 332.293 139.277 332.293 139.277L314.183 130.835L318.252 122.19L325.461 109.492Z" fill="#455A64"/>
<path d="M332.292 139.277C332.161 139.245 332.037 139.198 331.921 139.137L330.866 138.681L327.005 136.943L314.093 131L313.944 130.936L314.004 130.803L314.976 128.634C316.135 126.065 317.204 123.617 318.243 121.39C318.748 120.281 319.224 119.221 319.677 118.219C320.072 117.288 320.551 116.385 321.11 115.517C321.856 114.219 322.981 113.107 324.377 112.289C324.769 112.079 325.201 111.931 325.654 111.851C325.769 111.83 325.885 111.817 326.003 111.813H326.129C325.535 111.919 324.969 112.116 324.458 112.397C323.119 113.234 322.048 114.346 321.347 115.631C320.814 116.496 320.355 117.393 319.974 118.314C319.535 119.31 319.068 120.369 318.57 121.486L315.333 128.742L314.36 130.911L314.271 130.708L327.161 136.753L330.963 138.579L331.98 139.087C332.092 139.14 332.196 139.204 332.292 139.277Z" fill="#263238"/>
</svg>
