<svg width="45" height="50" viewBox="0 0 45 50" fill="none" xmlns="http://www.w3.org/2000/svg">
<path d="M27.312 30.2053C26.6528 29.3744 25.9277 28.6413 25.1367 28.0059C24.3457 27.3705 23.4961 26.8247 22.5879 26.3685C21.6797 25.9123 20.7568 25.5784 19.8193 25.3666C18.8818 25.1548 17.9004 25.0407 16.875 25.0244C15.5859 25.0244 14.3408 25.2118 13.1396 25.5865C11.9385 25.9612 10.8179 26.4826 9.77783 27.1505C8.73779 27.8185 7.79297 28.6331 6.94336 29.5943C6.09375 30.5556 5.36133 31.6145 4.74609 32.7713C4.13086 33.928 3.65479 35.1743 3.31787 36.5103C2.98096 37.8462 2.8125 39.231 2.8125 40.6647H0C0 38.7097 0.256348 36.828 0.769043 35.0196C1.28174 33.2111 2.02148 31.5412 2.98828 30.0098C3.95508 28.4783 5.09766 27.118 6.41602 25.9286C7.73438 24.7393 9.22852 23.8025 10.8984 23.1183C9.24316 21.9127 7.9541 20.3975 7.03125 18.5728C6.1084 16.7481 5.63965 14.7279 5.625 12.5122C5.625 10.7853 5.91797 9.16422 6.50391 7.64907C7.08984 6.13392 7.88818 4.80613 8.89893 3.66569C9.90967 2.52525 11.1035 1.6292 12.4805 0.977517C13.8574 0.325839 15.3223 0 16.875 0C18.4277 0 19.8853 0.325839 21.2476 0.977517C22.6099 1.6292 23.8037 2.51711 24.8291 3.64125C25.8545 4.7654 26.6602 6.09319 27.2461 7.62463C27.832 9.15608 28.125 10.7853 28.125 12.5122C28.125 13.5875 28.0078 14.6383 27.7734 15.6647C27.5391 16.6911 27.1875 17.6605 26.7188 18.5728C26.25 19.4852 25.7007 20.3242 25.0708 21.0899C24.4409 21.8557 23.7012 22.5318 22.8516 23.1183C24.082 23.6396 25.2393 24.3076 26.3232 25.1222C27.4072 25.9368 28.396 26.8899 29.2896 27.9814L27.312 30.2053ZM8.4375 12.5122C8.4375 13.8156 8.65723 15.0293 9.09668 16.1535C9.53613 17.2776 10.1367 18.2714 10.8984 19.1349C11.6602 19.9984 12.5537 20.6745 13.5791 21.1632C14.6045 21.652 15.7031 21.8964 16.875 21.8964C18.0322 21.8964 19.1235 21.652 20.1489 21.1632C21.1743 20.6745 22.0679 20.0065 22.8296 19.1593C23.5913 18.3122 24.1992 17.3183 24.6533 16.1779C25.1074 15.0375 25.3271 13.8156 25.3125 12.5122C25.3125 11.2252 25.0928 10.0114 24.6533 8.87097C24.2139 7.73053 23.6133 6.73672 22.8516 5.88954C22.0898 5.04236 21.189 4.36624 20.1489 3.86119C19.1089 3.35614 18.0176 3.11176 16.875 3.12805C15.7031 3.12805 14.6118 3.37243 13.6011 3.86119C12.5903 4.34995 11.6968 5.01792 10.9204 5.8651C10.144 6.71228 9.53613 7.71424 9.09668 8.87097C8.65723 10.0277 8.4375 11.2414 8.4375 12.5122ZM40.6055 21.8964C41.2207 21.8964 41.792 22.0186 42.3193 22.263C42.8467 22.5073 43.3154 22.8413 43.7256 23.2649C44.1357 23.6885 44.4434 24.2017 44.6484 24.8045C44.8535 25.4073 44.9707 26.0508 45 26.7351C45 27.3705 44.8901 27.9896 44.6704 28.5924C44.4507 29.1952 44.1357 29.7247 43.7256 30.1808L27.9712 47.7028L19.6875 50L21.7529 40.7869L37.5073 23.2893C37.9321 22.8169 38.4082 22.4666 38.9355 22.2385C39.4629 22.0104 40.0195 21.8964 40.6055 21.8964ZM41.7261 27.9814C42.0337 27.6393 42.1875 27.2239 42.1875 26.7351C42.1875 26.23 42.041 25.8227 41.748 25.5132C41.4551 25.2036 41.0742 25.0407 40.6055 25.0244C40.4004 25.0244 40.2026 25.057 40.0122 25.1222C39.8218 25.1874 39.6533 25.3095 39.5068 25.4888L24.3018 42.3998L23.5547 45.6989L26.521 44.868L41.7261 27.9814Z" fill="black"/>
</svg>
