<svg width="70" height="70" viewBox="0 0 70 70" fill="none" xmlns="http://www.w3.org/2000/svg">
<rect width="70" height="70" rx="35" fill="#6750A4"/>
<path d="M39.812 40.2053C39.1528 39.3744 38.4277 38.6413 37.6367 38.0059C36.8457 37.3705 35.9961 36.8247 35.0879 36.3685C34.1797 35.9123 33.2568 35.5784 32.3193 35.3666C31.3818 35.1548 30.4004 35.0407 29.375 35.0244C28.0859 35.0244 26.8408 35.2118 25.6396 35.5865C24.4385 35.9612 23.3179 36.4826 22.2778 37.1505C21.2378 37.8185 20.293 38.6331 19.4434 39.5943C18.5938 40.5556 17.8613 41.6145 17.2461 42.7713C16.6309 43.928 16.1548 45.1743 15.8179 46.5103C15.481 47.8462 15.3125 49.231 15.3125 50.6647H12.5C12.5 48.7097 12.7563 46.828 13.269 45.0196C13.7817 43.2111 14.5215 41.5412 15.4883 40.0098C16.4551 38.4783 17.5977 37.118 18.916 35.9286C20.2344 34.7393 21.7285 33.8025 23.3984 33.1183C21.7432 31.9127 20.4541 30.3975 19.5312 28.5728C18.6084 26.7481 18.1396 24.7279 18.125 22.5122C18.125 20.7853 18.418 19.1642 19.0039 17.6491C19.5898 16.1339 20.3882 14.8061 21.3989 13.6657C22.4097 12.5253 23.6035 11.6292 24.9805 10.9775C26.3574 10.3258 27.8223 10 29.375 10C30.9277 10 32.3853 10.3258 33.7476 10.9775C35.1099 11.6292 36.3037 12.5171 37.3291 13.6413C38.3545 14.7654 39.1602 16.0932 39.7461 17.6246C40.332 19.1561 40.625 20.7853 40.625 22.5122C40.625 23.5875 40.5078 24.6383 40.2734 25.6647C40.0391 26.6911 39.6875 27.6605 39.2188 28.5728C38.75 29.4852 38.2007 30.3242 37.5708 31.0899C36.9409 31.8557 36.2012 32.5318 35.3516 33.1183C36.582 33.6396 37.7393 34.3076 38.8232 35.1222C39.9072 35.9368 40.896 36.8899 41.7896 37.9814L39.812 40.2053ZM20.9375 22.5122C20.9375 23.8156 21.1572 25.0293 21.5967 26.1535C22.0361 27.2776 22.6367 28.2714 23.3984 29.1349C24.1602 29.9984 25.0537 30.6745 26.0791 31.1632C27.1045 31.652 28.2031 31.8964 29.375 31.8964C30.5322 31.8964 31.6235 31.652 32.6489 31.1632C33.6743 30.6745 34.5679 30.0065 35.3296 29.1593C36.0913 28.3122 36.6992 27.3183 37.1533 26.1779C37.6074 25.0375 37.8271 23.8156 37.8125 22.5122C37.8125 21.2252 37.5928 20.0114 37.1533 18.871C36.7139 17.7305 36.1133 16.7367 35.3516 15.8895C34.5898 15.0424 33.689 14.3662 32.6489 13.8612C31.6089 13.3561 30.5176 13.1118 29.375 13.1281C28.2031 13.1281 27.1118 13.3724 26.1011 13.8612C25.0903 14.35 24.1968 15.0179 23.4204 15.8651C22.644 16.7123 22.0361 17.7142 21.5967 18.871C21.1572 20.0277 20.9375 21.2414 20.9375 22.5122ZM53.1055 31.8964C53.7207 31.8964 54.292 32.0186 54.8193 32.263C55.3467 32.5073 55.8154 32.8413 56.2256 33.2649C56.6357 33.6885 56.9434 34.2017 57.1484 34.8045C57.3535 35.4073 57.4707 36.0508 57.5 36.7351C57.5 37.3705 57.3901 37.9896 57.1704 38.5924C56.9507 39.1952 56.6357 39.7247 56.2256 40.1808L40.4712 57.7028L32.1875 60L34.2529 50.7869L50.0073 33.2893C50.4321 32.8169 50.9082 32.4666 51.4355 32.2385C51.9629 32.0104 52.5195 31.8964 53.1055 31.8964ZM54.2261 37.9814C54.5337 37.6393 54.6875 37.2239 54.6875 36.7351C54.6875 36.23 54.541 35.8227 54.248 35.5132C53.9551 35.2036 53.5742 35.0407 53.1055 35.0244C52.9004 35.0244 52.7026 35.057 52.5122 35.1222C52.3218 35.1874 52.1533 35.3095 52.0068 35.4888L36.8018 52.3998L36.0547 55.6989L39.021 54.868L54.2261 37.9814Z" fill="white"/>
</svg>
